SplineFontDB: 3.2
FontName: lichess
FullName: lichess
FamilyName: lichess
Weight: Book
Version: 1.0
ItalicAngle: 0
UnderlinePosition: 0
UnderlineWidth: 0
Ascent: 480
Descent: 32
InvalidEm: 0
sfntRevision: 0x00010000
LayerCount: 2
Layer: 0 1 "Back" 1
Layer: 1 1 "Fore" 0
XUID: [1021 528 -1611433020 2877456]
StyleMap: 0x0040
FSType: 8
OS2Version: 3
OS2_WeightWidthSlopeOnly: 0
OS2_UseTypoMetrics: 0
CreationTime: 1554434404
ModificationTime: 1769363864
PfmFamily: 17
TTFWeight: 400
TTFWidth: 5
LineGap: 46
VLineGap: 0
Panose: 2 0 5 9 0 0 0 0 0 0
OS2TypoAscent: 480
OS2TypoAOffset: 0
OS2TypoDescent: -32
OS2TypoDOffset: 0
OS2TypoLinegap: 46
OS2WinAscent: 512
OS2WinAOffset: 0
OS2WinDescent: 0
OS2WinDOffset: 0
HheadAscent: 512
HheadAOffset: 0
HheadDescent: 0
HheadDOffset: 0
OS2SubXSize: 332
OS2SubYSize: 358
OS2SubXOff: 0
OS2SubYOff: 71
OS2SupXSize: 332
OS2SupYSize: 358
OS2SupXOff: 0
OS2SupYOff: 245
OS2StrikeYSize: 25
OS2StrikeYPos: 132
OS2CapHeight: 475
OS2XHeight: 475
OS2Vendor: 'PfEd'
OS2CodePages: 00000001.00000000
OS2UnicodeRanges: 00000001.10000000.00000000.00000000
DEI: 91125
ShortTable: cvt  2
  17
  324
EndShort
ShortTable: maxp 16
  1
  0
  115
  330
  49
  0
  0
  2
  0
  1
  1
  0
  64
  46
  0
  0
EndShort
LangName: 1033 "" "" "Regular" "FontForge 2.0 : lichess : 5-4-2019" "" "Version 1.0"
GaspTable: 1 65535 2 0
Encoding: UnicodeBmp
UnicodeInterp: none
NameList: AGL For New Fonts
DisplaySize: -128
AntiAlias: 1
FitToEm: 0
WinInfo: 57345 15 8
BeginChars: 65539 130

StartChar: .notdef
Encoding: 65536 -1 0
Width: 512
GlyphClass: 1
Flags: W
LayerCount: 2
Fore
SplineSet
17 0 m 1,0,-1
 17 341 l 1,1,-1
 153 341 l 1,2,-1
 153 0 l 1,3,-1
 17 0 l 1,0,-1
34 17 m 1,4,-1
 136 17 l 1,5,-1
 136 324 l 1,6,-1
 34 324 l 1,7,-1
 34 17 l 1,4,-1
EndSplineSet
Validated: 1
EndChar

StartChar: rabbit
Encoding: 57346 57346 3
Width: 512
GlyphClass: 2
Flags: W
LayerCount: 2
Fore
SplineSet
353 59 m 2,0,-1
 349 60 l 2,1,2
 345 60 345 60 338 60 c 128,-1,3
 331 60 331 60 325 60 c 0,4,5
 299 62 299 62 258 61 c 0,6,7
 172 58 172 58 161 63 c 2,8,-1
 158 64 l 1,9,-1
 158 70 l 2,10,11
 158 79 158 79 165 85 c 0,12,13
 184 101 184 101 277 103 c 2,14,-1
 287 103 l 1,15,-1
 279 105 l 2,16,17
 235 114 235 114 218 144 c 0,18,19
 203 171 203 171 223 193 c 0,20,21
 235 205 235 205 262 205 c 0,22,23
 276 205 276 205 280 204 c 2,24,-1
 287 203 l 1,25,26
 287 205 287 205 286 207 c 0,27,28
 275 226 275 226 244 228 c 0,29,30
 209 231 209 231 194 201 c 0,31,32
 189 188 189 188 189 172 c 0,33,34
 189 158 189 158 190 152 c 2,35,-1
 192 143 l 1,36,-1
 181 125 l 2,37,38
 144 67 144 67 132 62 c 0,39,40
 129 61 129 61 110 60 c 0,41,42
 86 60 86 60 79 64 c 0,43,44
 77 65 77 65 77 71 c 0,45,46
 77 82 77 82 82 87 c 0,47,48
 88 94 88 94 108 97 c 0,49,50
 120 99 120 99 122.5 102 c 128,-1,51
 125 105 125 105 126 118 c 0,52,53
 129 147 129 147 132 158 c 0,54,55
 138 183 138 183 129 206 c 0,56,57
 122 224 122 224 122 233 c 0,58,59
 120 244 120 244 124 254 c 2,60,-1
 125 257 l 1,61,-1
 121 258 l 2,62,63
 98 261 98 261 93 263 c 0,64,65
 66 269 66 269 63 285 c 0,66,67
 55 317 55 317 88 360 c 0,68,69
 108 386 108 386 134 395 c 0,70,71
 155 400 155 400 178 395 c 0,72,73
 179 394 179 394 179.5 395 c 128,-1,74
 180 396 180 396 182 399 c 0,75,76
 189 415 189 415 222 438 c 0,77,78
 260 463 260 463 294 463 c 0,79,80
 309 463 309 463 312 454 c 0,81,82
 314 446 314 446 306.5 440 c 128,-1,83
 299 434 299 434 276 424 c 0,84,85
 264 419 264 419 264 418 c 1,86,87
 266 419 266 419 269 420 c 0,88,89
 311 434 311 434 334 418 c 0,90,91
 345 410 345 410 340 401 c 0,92,93
 335 396 335 396 311 390 c 0,94,95
 277 379 277 379 259 369 c 0,96,97
 247 363 247 363 233 355 c 2,98,-1
 222 349 l 1,99,-1
 223 341 l 2,100,101
 227 326 227 326 240 321 c 0,102,103
 249 318 249 318 285 315 c 0,104,105
 329 312 329 312 345 305 c 0,106,107
 354 300 354 300 362 293 c 0,108,109
 405 254 405 254 417 206 c 0,110,111
 420 184 420 184 419 175 c 2,112,-1
 419 169 l 1,113,-1
 425 169 l 2,114,115
 442 166 442 166 448 151 c 0,116,117
 451 145 451 145 451 138 c 0,118,119
 451 133 451 133 449 125 c 0,120,121
 442 111 442 111 428 108 c 0,122,123
 411 103 411 103 390 118 c 2,124,-1
 387 120 l 1,125,-1
 386 118 l 2,126,127
 385 116 385 116 384.5 108 c 128,-1,128
 384 100 384 100 385 95 c 2,129,-1
 388 83 l 2,130,131
 391 73 391 73 389 67 c 0,132,133
 388 65 388 65 379 60 c 0,134,135
 376 59 376 59 366 58.5 c 128,-1,136
 356 58 356 58 353 59 c 2,0,-1
135 309 m 0,137,138
 145 314 145 314 144.5 325.5 c 128,-1,139
 144 337 144 337 134 342 c 0,140,141
 127 346 127 346 120 342 c 0,142,143
 112 338 112 338 111 331 c 0,144,145
 110 325 110 325 111 320 c 0,146,147
 113 312 113 312 120.5 308.5 c 128,-1,148
 128 305 128 305 135 309 c 0,137,138
EndSplineSet
Validated: 33
EndChar

StartChar: share-ios
Encoding: 57347 57347 4
Width: 512
LayerCount: 2
Fore
SplineSet
229.599609375 448.971679688 m 6,0,1
 229.599609375 460.19140625 229.599609375 460.19140625 237.190429688 467.782226562 c 132,-1,2
 244.780273438 475.372070312 244.780273438 475.372070312 256 475.372070312 c 132,-1,3
 267.219726562 475.372070312 267.219726562 475.372070312 274.809570312 467.782226562 c 132,-1,4
 282.400390625 460.19140625 282.400390625 460.19140625 282.400390625 448.971679688 c 6,5,-1
 282.400390625 171.771484375 l 6,6,7
 282.400390625 160.551757812 282.400390625 160.551757812 274.809570312 152.961914062 c 132,-1,8
 267.219726562 145.372070312 267.219726562 145.372070312 256 145.372070312 c 132,-1,9
 244.780273438 145.372070312 244.780273438 145.372070312 237.190429688 152.961914062 c 132,-1,10
 229.599609375 160.551757812 229.599609375 160.551757812 229.599609375 171.771484375 c 6,11,-1
 229.599609375 448.971679688 l 6,0,1
272.901367188 455.08984375 m 6,12,-1
 193.701171875 389.08984375 l 6,13,14
 185.30078125 382.08984375 185.30078125 382.08984375 174.41015625 383.079101562 c 132,-1,15
 163.51953125 384.069335938 163.51953125 384.069335938 156.51953125 392.470703125 c 132,-1,16
 149.518554688 400.87109375 149.518554688 400.87109375 150.5078125 411.760742188 c 132,-1,17
 151.498046875 422.651367188 151.498046875 422.651367188 159.899414062 429.65234375 c 6,18,-1
 239.098632812 495.65234375 l 6,19,20
 247.5 502.65234375 247.5 502.65234375 258.390625 501.662109375 c 132,-1,21
 269.28125 500.672851562 269.28125 500.672851562 276.280273438 492.272460938 c 132,-1,22
 283.28125 483.87109375 283.28125 483.87109375 282.291992188 472.98046875 c 132,-1,23
 281.302734375 462.090820312 281.302734375 462.090820312 272.901367188 455.08984375 c 6,12,-1
239.098632812 455.08984375 m 6,24,25
 230.698242188 462.090820312 230.698242188 462.090820312 229.708007812 472.98046875 c 132,-1,26
 228.717773438 483.87109375 228.717773438 483.87109375 235.71875 492.272460938 c 132,-1,27
 242.719726562 500.672851562 242.719726562 500.672851562 253.610351562 501.662109375 c 132,-1,28
 264.5 502.65234375 264.5 502.65234375 272.901367188 495.65234375 c 6,29,-1
 352.1015625 429.65234375 l 6,30,31
 360.501953125 422.651367188 360.501953125 422.651367188 361.4921875 411.760742188 c 132,-1,32
 362.481445312 400.87109375 362.481445312 400.87109375 355.48046875 392.470703125 c 132,-1,33
 348.481445312 384.069335938 348.481445312 384.069335938 337.590820312 383.079101562 c 132,-1,34
 326.700195312 382.08984375 326.700195312 382.08984375 318.298828125 389.08984375 c 6,35,-1
 239.098632812 455.08984375 l 6,24,25
335.200195312 290.572265625 m 6,36,37
 323.98046875 290.572265625 323.98046875 290.572265625 316.389648438 298.162109375 c 132,-1,38
 308.799804688 305.751953125 308.799804688 305.751953125 308.799804688 316.971679688 c 132,-1,39
 308.799804688 328.19140625 308.799804688 328.19140625 316.389648438 335.782226562 c 132,-1,40
 323.98046875 343.372070312 323.98046875 343.372070312 335.200195312 343.372070312 c 6,41,-1
 361.599609375 343.372070312 l 6,42,43
 394.103515625 343.372070312 394.103515625 343.372070312 417.452148438 322.794921875 c 132,-1,44
 440.799804688 302.21875 440.799804688 302.21875 440.799804688 272.294921875 c 6,45,-1
 440.799804688 71.2490234375 l 6,46,47
 440.799804688 41.326171875 440.799804688 41.326171875 417.452148438 20.748046875 c 132,-1,48
 394.103515625 0.171875 394.103515625 0.171875 361.599609375 0.171875 c 6,49,-1
 150.400390625 0.171875 l 6,50,51
 117.896484375 0.171875 117.896484375 0.171875 94.5478515625 20.748046875 c 132,-1,52
 71.2001953125 41.326171875 71.2001953125 41.326171875 71.2001953125 71.2490234375 c 6,53,-1
 71.2001953125 272.294921875 l 6,54,55
 71.2001953125 302.21875 71.2001953125 302.21875 94.5478515625 322.794921875 c 132,-1,56
 117.896484375 343.372070312 117.896484375 343.372070312 150.400390625 343.372070312 c 6,57,-1
 176.799804688 343.372070312 l 6,58,59
 188.01953125 343.372070312 188.01953125 343.372070312 195.610351562 335.782226562 c 132,-1,60
 203.200195312 328.19140625 203.200195312 328.19140625 203.200195312 316.971679688 c 132,-1,61
 203.200195312 305.751953125 203.200195312 305.751953125 195.610351562 298.162109375 c 132,-1,62
 188.01953125 290.572265625 188.01953125 290.572265625 176.799804688 290.572265625 c 6,63,-1
 150.400390625 290.572265625 l 6,64,65
 139.203125 290.572265625 139.203125 290.572265625 131.6015625 284.966796875 c 132,-1,66
 124 279.361328125 124 279.361328125 124 272.294921875 c 6,67,-1
 124 71.2490234375 l 6,68,69
 124 64.181640625 124 64.181640625 131.6015625 58.576171875 c 132,-1,70
 139.203125 52.9716796875 139.203125 52.9716796875 150.400390625 52.9716796875 c 6,71,-1
 361.599609375 52.9716796875 l 6,72,73
 372.797851562 52.9716796875 372.797851562 52.9716796875 380.3984375 58.576171875 c 132,-1,74
 388 64.181640625 388 64.181640625 388 71.2490234375 c 6,75,-1
 388 272.294921875 l 6,76,77
 388 279.361328125 388 279.361328125 380.3984375 284.966796875 c 132,-1,78
 372.797851562 290.572265625 372.797851562 290.572265625 361.599609375 290.572265625 c 6,79,-1
 335.200195312 290.572265625 l 6,36,37
EndSplineSet
EndChar

StartChar: share-android
Encoding: 57348 57348 5
Width: 512
Flags: W
LayerCount: 2
Fore
SplineSet
407.46875 3.552734375 m 132,-1,1
 375.913085938 3.552734375 375.913085938 3.552734375 353.82421875 25.6416015625 c 132,-1,2
 331.734375 47.73046875 331.734375 47.73046875 331.734375 79.2861328125 c 4,3,4
 331.734375 83.0830078125 331.734375 83.0830078125 333.6328125 96.962890625 c 5,5,-1
 156.278320312 200.45703125 l 5,6,7
 146.1953125 190.990234375 146.1953125 190.990234375 132.931640625 185.639648438 c 132,-1,8
 119.66796875 180.265625 119.66796875 180.265625 104.53125 180.265625 c 4,9,10
 72.9755859375 180.265625 72.9755859375 180.265625 50.8857421875 202.354492188 c 132,-1,11
 28.796875 224.443359375 28.796875 224.443359375 28.796875 256 c 132,-1,12
 28.796875 287.556640625 28.796875 287.556640625 50.8857421875 309.645507812 c 132,-1,13
 72.9755859375 331.734375 72.9755859375 331.734375 104.53125 331.734375 c 4,14,15
 119.66796875 331.734375 119.66796875 331.734375 132.931640625 326.360351562 c 132,-1,16
 146.1953125 321.009765625 146.1953125 321.009765625 156.278320312 311.54296875 c 5,17,-1
 333.6328125 415.037109375 l 5,18,19
 332.375 419.450195312 332.375 419.450195312 332.055664062 423.567382812 c 132,-1,20
 331.734375 427.66015625 331.734375 427.66015625 331.734375 432.713867188 c 4,21,22
 331.734375 464.26953125 331.734375 464.26953125 353.82421875 486.358398438 c 132,-1,23
 375.913085938 508.447265625 375.913085938 508.447265625 407.46875 508.447265625 c 132,-1,24
 439.024414062 508.447265625 439.024414062 508.447265625 461.114257812 486.358398438 c 132,-1,25
 483.203125 464.26953125 483.203125 464.26953125 483.203125 432.713867188 c 132,-1,26
 483.203125 401.158203125 483.203125 401.158203125 461.114257812 379.068359375 c 132,-1,27
 439.024414062 356.979492188 439.024414062 356.979492188 407.46875 356.979492188 c 4,28,29
 392.33203125 356.979492188 392.33203125 356.979492188 379.068359375 362.353515625 c 132,-1,30
 365.8046875 367.704101562 365.8046875 367.704101562 355.721679688 377.169921875 c 5,31,-1
 178.3671875 273.676757812 l 5,32,33
 179.625 269.263671875 179.625 269.263671875 179.944335938 265.146484375 c 132,-1,34
 180.265625 261.053710938 180.265625 261.053710938 180.265625 256 c 132,-1,35
 180.265625 250.946289062 180.265625 250.946289062 179.944335938 246.853515625 c 132,-1,36
 179.625 242.736328125 179.625 242.736328125 178.3671875 238.323242188 c 5,37,-1
 355.721679688 134.830078125 l 5,38,39
 365.8046875 144.295898438 365.8046875 144.295898438 379.068359375 149.646484375 c 132,-1,40
 392.33203125 155.020507812 392.33203125 155.020507812 407.46875 155.020507812 c 4,41,42
 439.024414062 155.020507812 439.024414062 155.020507812 461.114257812 132.931640625 c 132,-1,43
 483.203125 110.841796875 483.203125 110.841796875 483.203125 79.2861328125 c 132,-1,44
 483.203125 47.73046875 483.203125 47.73046875 461.114257812 25.6416015625 c 132,-1,0
 439.024414062 3.552734375 439.024414062 3.552734375 407.46875 3.552734375 c 132,-1,1
407.46875 54.0419921875 m 132,-1,46
 418.193359375 54.0419921875 418.193359375 54.0419921875 425.465820312 61.2900390625 c 132,-1,47
 432.713867188 68.5625 432.713867188 68.5625 432.713867188 79.2861328125 c 132,-1,48
 432.713867188 90.0107421875 432.713867188 90.0107421875 425.465820312 97.283203125 c 132,-1,49
 418.193359375 104.53125 418.193359375 104.53125 407.46875 104.53125 c 132,-1,50
 396.745117188 104.53125 396.745117188 104.53125 389.47265625 97.283203125 c 132,-1,51
 382.223632812 90.0107421875 382.223632812 90.0107421875 382.223632812 79.2861328125 c 132,-1,52
 382.223632812 68.5625 382.223632812 68.5625 389.47265625 61.2900390625 c 132,-1,45
 396.745117188 54.0419921875 396.745117188 54.0419921875 407.46875 54.0419921875 c 132,-1,46
104.53125 230.755859375 m 132,-1,54
 115.254882812 230.755859375 115.254882812 230.755859375 122.52734375 238.002929688 c 132,-1,55
 129.776367188 245.275390625 129.776367188 245.275390625 129.776367188 256 c 132,-1,56
 129.776367188 266.724609375 129.776367188 266.724609375 122.52734375 273.997070312 c 132,-1,57
 115.254882812 281.244140625 115.254882812 281.244140625 104.53125 281.244140625 c 132,-1,58
 93.806640625 281.244140625 93.806640625 281.244140625 86.5341796875 273.997070312 c 132,-1,59
 79.2861328125 266.724609375 79.2861328125 266.724609375 79.2861328125 256 c 132,-1,60
 79.2861328125 245.275390625 79.2861328125 245.275390625 86.5341796875 238.002929688 c 132,-1,53
 93.806640625 230.755859375 93.806640625 230.755859375 104.53125 230.755859375 c 132,-1,54
407.46875 407.46875 m 132,-1,62
 418.193359375 407.46875 418.193359375 407.46875 425.465820312 414.716796875 c 132,-1,63
 432.713867188 421.989257812 432.713867188 421.989257812 432.713867188 432.713867188 c 132,-1,64
 432.713867188 443.4375 432.713867188 443.4375 425.465820312 450.709960938 c 132,-1,65
 418.193359375 457.958007812 418.193359375 457.958007812 407.46875 457.958007812 c 132,-1,66
 396.745117188 457.958007812 396.745117188 457.958007812 389.47265625 450.709960938 c 132,-1,67
 382.223632812 443.4375 382.223632812 443.4375 382.223632812 432.713867188 c 132,-1,68
 382.223632812 421.989257812 382.223632812 421.989257812 389.47265625 414.716796875 c 132,-1,61
 396.745117188 407.46875 396.745117188 407.46875 407.46875 407.46875 c 132,-1,62
407.46875 79.2861328125 m 1028,69,-1
104.53125 256 m 1028,70,-1
407.46875 432.713867188 m 1028,71,-1
EndSplineSet
EndChar

StartChar: gear
Encoding: 57349 57349 6
Width: 512
GlyphClass: 2
Flags: W
LayerCount: 2
Fore
SplineSet
256 337 m 128,-1,1
 222 337 222 337 198.5 313.5 c 128,-1,2
 175 290 175 290 175 256 c 128,-1,3
 175 222 175 222 198.5 198.5 c 128,-1,4
 222 175 222 175 256 175 c 128,-1,5
 290 175 290 175 313.5 198.5 c 128,-1,6
 337 222 337 222 337 256 c 128,-1,7
 337 290 337 290 313.5 313.5 c 128,-1,0
 290 337 290 337 256 337 c 128,-1,1
418 209 m 1,8,-1
 404 174 l 1,9,-1
 430 123 l 1,10,-1
 433 116 l 1,11,-1
 397 80 l 1,12,-1
 338 108 l 1,13,-1
 303 94 l 1,14,-1
 285 39 l 1,15,-1
 283 32 l 1,16,-1
 232 32 l 1,17,-1
 210 94 l 1,18,-1
 174 108 l 1,19,-1
 123 82 l 1,20,-1
 116 79 l 1,21,-1
 80 115 l 1,22,-1
 108 174 l 1,23,-1
 94 209 l 1,24,-1
 39 227 l 1,25,-1
 32 229 l 1,26,-1
 32 280 l 1,27,-1
 94 302 l 1,28,-1
 108 338 l 1,29,-1
 82 389 l 1,30,-1
 79 396 l 1,31,-1
 115 432 l 1,32,-1
 174 404 l 1,33,-1
 209 418 l 1,34,-1
 227 473 l 1,35,-1
 229 480 l 1,36,-1
 280 480 l 1,37,-1
 302 418 l 1,38,-1
 338 404 l 1,39,-1
 389 430 l 1,40,-1
 396 433 l 1,41,-1
 432 397 l 1,42,-1
 404 338 l 1,43,-1
 418 303 l 1,44,-1
 473 285 l 1,45,-1
 480 283 l 1,46,-1
 480 232 l 1,47,-1
 418 209 l 1,8,-1
EndSplineSet
Validated: 1
EndChar

StartChar: die-six
Encoding: 57350 57350 7
Width: 512
GlyphClass: 2
Flags: W
LayerCount: 2
Fore
SplineSet
446 405 m 6,0,1
 445 422 445 422 433.5 433.5 c 132,-1,2
 422 445 422 445 405 446 c 6,3,-1
 107 446 l 6,4,5
 90 445 90 445 78.5 433.5 c 132,-1,6
 67 422 67 422 66 405 c 6,7,-1
 66 107 l 6,8,9
 67 90 67 90 78.5 78.5 c 132,-1,10
 90 67 90 67 107 66 c 6,11,-1
 405 66 l 6,12,13
 422 67 422 67 433.5 78.5 c 132,-1,14
 445 90 445 90 446 107 c 6,15,-1
 446 405 l 6,0,1
161.5 124 m 132,-1,17
 145 124 145 124 133.5 135.5 c 132,-1,18
 122 147 122 147 122 163.5 c 132,-1,19
 122 180 122 180 133.5 191.5 c 132,-1,20
 145 203 145 203 161.5 203 c 132,-1,21
 178 203 178 203 189 191.5 c 132,-1,22
 200 180 200 180 200 163.5 c 132,-1,23
 200 147 200 147 189 135.5 c 132,-1,16
 178 124 178 124 161.5 124 c 132,-1,17
161.5 217 m 132,-1,25
 145 217 145 217 133.5 228.5 c 132,-1,26
 122 240 122 240 122 256 c 132,-1,27
 122 272 122 272 133.5 283.5 c 132,-1,28
 145 295 145 295 161.5 295 c 132,-1,29
 178 295 178 295 189 283.5 c 132,-1,30
 200 272 200 272 200 256 c 132,-1,31
 200 240 200 240 189 228.5 c 132,-1,24
 178 217 178 217 161.5 217 c 132,-1,25
161.5 312 m 132,-1,33
 145 312 145 312 133.5 323 c 132,-1,34
 122 334 122 334 122 350.5 c 132,-1,35
 122 367 122 367 133.5 378.5 c 132,-1,36
 145 390 145 390 161.5 390 c 132,-1,37
 178 390 178 390 189 378.5 c 132,-1,38
 200 367 200 367 200 350.5 c 132,-1,39
 200 334 200 334 189 323 c 132,-1,32
 178 312 178 312 161.5 312 c 132,-1,33
350.5 122 m 132,-1,41
 334 122 334 122 323 133.5 c 132,-1,42
 312 145 312 145 312 161.5 c 132,-1,43
 312 178 312 178 323 189 c 132,-1,44
 334 200 334 200 350.5 200 c 132,-1,45
 367 200 367 200 378.5 189 c 132,-1,46
 390 178 390 178 390 161.5 c 132,-1,47
 390 145 390 145 378.5 133.5 c 132,-1,40
 367 122 367 122 350.5 122 c 132,-1,41
350.5 217 m 132,-1,49
 334 217 334 217 323 228.5 c 132,-1,50
 312 240 312 240 312 256 c 132,-1,51
 312 272 312 272 323 283.5 c 132,-1,52
 334 295 334 295 350.5 295 c 132,-1,53
 367 295 367 295 378.5 283.5 c 132,-1,54
 390 272 390 272 390 256 c 132,-1,55
 390 240 390 240 378.5 228.5 c 132,-1,48
 367 217 367 217 350.5 217 c 132,-1,49
350.5 312 m 132,-1,57
 334 312 334 312 323 323 c 132,-1,58
 312 334 312 334 312 350.5 c 132,-1,59
 312 367 312 367 323 378.5 c 132,-1,60
 334 390 334 390 350.5 390 c 132,-1,61
 367 390 367 390 378.5 378.5 c 132,-1,62
 390 367 390 367 390 350.5 c 132,-1,63
 390 334 390 334 378.5 323 c 132,-1,56
 367 312 367 312 350.5 312 c 132,-1,57
EndSplineSet
EndChar

StartChar: flag-king-hill
Encoding: 57351 57351 8
Width: 512
GlyphClass: 2
Flags: W
LayerCount: 2
Fore
SplineSet
473 392 m 0,0,1
 481 395 481 395 484 392 c 0,2,3
 488 388 488 388 484 382 c 0,4,5
 434 308 434 308 400 273 c 0,6,7
 366 235 366 235 344 227 c 0,8,9
 321 219 321 219 307 226 c 0,10,11
 294 231 294 231 276 245 c 0,12,13
 260 258 260 258 244 265 c 0,14,15
 227 274 227 274 196 263 c 0,16,17
 163 252 163 252 125 219 c 1,18,-1
 171 39 l 1,19,-1
 120 39 l 1,20,-1
 26 408 l 1,21,-1
 73 425 l 1,22,23
 119 459 119 459 151 469 c 0,24,25
 181 479 181 479 201 471 c 0,26,27
 220 462 220 462 233 444 c 0,28,29
 255 420 255 420 265 408 c 0,30,31
 282 389 282 389 306 376 c 128,-1,32
 330 363 330 363 372 366 c 0,33,34
 418 369 418 369 473 392 c 0,0,1
EndSplineSet
Validated: 33
EndChar

StartChar: flame-blitz
Encoding: 57352 57352 9
Width: 512
GlyphClass: 2
Flags: W
LayerCount: 2
Fore
SplineSet
217 489 m 1,0,1
 248 406 248 406 201 357 c 0,2,3
 192 348 192 348 150.5 314.5 c 128,-1,4
 109 281 109 281 89 254 c 0,5,6
 71 229 71 229 65 195.5 c 128,-1,7
 59 162 59 162 66 126.5 c 128,-1,8
 73 91 73 91 107 61 c 128,-1,9
 141 31 141 31 198 18 c 1,10,11
 145 45 145 45 140.5 108 c 128,-1,12
 136 171 136 171 189 221 c 1,13,14
 175 175 175 175 195 148 c 128,-1,15
 215 121 215 121 248 133 c 0,16,17
 279 143 279 143 299 126.5 c 128,-1,18
 319 110 319 110 318 82 c 0,19,20
 316 41 316 41 283 26 c 1,21,22
 332 34 332 34 367 63.5 c 128,-1,23
 402 93 402 93 416 127 c 128,-1,24
 430 161 430 161 430 197 c 0,25,26
 430 225 430 225 418.5 250 c 128,-1,27
 407 275 407 275 396 288 c 128,-1,28
 385 301 385 301 380.5 323.5 c 128,-1,29
 376 346 376 346 391 369 c 1,30,31
 327 363 327 363 333 284 c 0,32,33
 335 260 335 260 315.5 246.5 c 128,-1,34
 296 233 296 233 276 244 c 0,35,36
 261 253 261 253 260.5 269 c 128,-1,37
 260 285 260 285 274 298 c 0,38,39
 295 319 295 319 302 349.5 c 128,-1,40
 309 380 309 380 289 419.5 c 128,-1,41
 269 459 269 459 217 489 c 1,0,1
EndSplineSet
Validated: 41
EndChar

StartChar: feather
Encoding: 57353 57353 10
Width: 512
GlyphClass: 2
Flags: W
LayerCount: 2
Fore
SplineSet
107 6 m 2,0,1
 104 -4 104 -4 93 2 c 0,2,3
 85 6 85 6 85 19 c 0,4,5
 88 73 88 73 111 135 c 1,6,7
 60 214 60 214 84 297 c 1,8,9
 92 275 92 275 101 257 c 0,10,11
 107 244 107 244 123 216 c 0,12,13
 135 198 135 198 140 201 c 0,14,15
 143 202 143 202 140 243 c 0,16,17
 135 284 135 284 134 328 c 0,18,19
 132 374 132 374 147 409 c 0,20,21
 157 431 157 431 188 457 c 0,22,23
 216 482 216 482 241 493 c 1,24,25
 228 467 228 467 224 444 c 0,26,27
 219 419 219 419 222 404 c 128,-1,28
 225 389 225 389 233 388 c 0,29,30
 238 388 238 388 276 450 c 0,31,32
 312 511 312 511 330 512 c 0,33,34
 354 513 354 513 388 497 c 0,35,36
 424 480 424 480 430 464 c 0,37,38
 436 452 436 452 430 423 c 0,39,40
 424 395 424 395 410 381 c 0,41,42
 387 358 387 358 335 349 c 128,-1,43
 283 340 283 340 277 337 c 0,44,45
 269 332 269 332 283 319 c 0,46,47
 310 295 310 295 373 309 c 1,48,49
 343 267 343 267 303 251 c 0,50,51
 265 234 265 234 236 231 c 0,52,53
 210 230 210 230 208 226 c 0,54,55
 206 214 206 214 233 199 c 0,56,57
 259 183 259 183 285 191 c 1,58,59
 271 164 271 164 253 148 c 0,60,61
 234 133 234 133 225 131 c 0,62,63
 214 126 214 126 186 125 c 0,64,65
 180 125 180 125 143 121 c 1,66,-1
 107 6 l 2,0,1
EndSplineSet
Validated: 33
EndChar

StartChar: turtle
Encoding: 57354 57354 11
Width: 512
GlyphClass: 2
Flags: W
LayerCount: 2
Fore
SplineSet
177 221 m 1,0,-1
 119 221 l 1,1,2
 124 153 124 153 167 108 c 1,3,-1
 205 174 l 1,4,-1
 177 221 l 1,0,-1
167 364 m 1,5,6
 124 319 124 319 119 251 c 1,7,-1
 177 251 l 1,8,-1
 205 298 l 1,9,-1
 167 364 l 1,5,6
335 221 m 1,10,-1
 307 174 l 1,11,-1
 345 108 l 1,12,13
 388 153 388 153 393 221 c 1,14,-1
 335 221 l 1,10,-1
280 160 m 1,15,-1
 232 160 l 1,16,-1
 190 88 l 1,17,18
 221 68 221 68 256 68 c 128,-1,19
 291 68 291 68 322 88 c 1,20,-1
 280 160 l 1,15,-1
256 404 m 128,-1,22
 221 404 221 404 190 384 c 1,23,-1
 232 312 l 1,24,-1
 280 312 l 1,25,-1
 322 384 l 1,26,21
 291 404 291 404 256 404 c 128,-1,22
345 364 m 1,27,-1
 307 298 l 1,28,-1
 335 251 l 1,29,-1
 393 251 l 1,30,31
 388 319 388 319 345 364 c 1,27,-1
282 282 m 1,32,-1
 230 282 l 1,33,-1
 203 236 l 1,34,-1
 230 190 l 1,35,-1
 282 190 l 1,36,-1
 309 236 l 1,37,-1
 282 282 l 1,32,-1
453 390 m 0,38,39
 405 420 405 420 352 399 c 1,40,41
 365 387 365 387 377 374 c 0,42,43
 391 357 391 357 405 328 c 1,44,-1
 512 328 l 1,45,46
 493 366 493 366 453 390 c 0,38,39
382 104 m 1,47,48
 378 100 378 100 377 98 c 0,49,50
 356 73 356 73 328 57 c 1,51,-1
 368 0 l 1,52,53
 397 52 397 52 382 104 c 1,47,48
135 98 m 0,54,55
 134 100 134 100 130 104 c 1,56,57
 115 52 115 52 144 0 c 1,58,-1
 184 57 l 1,59,60
 156 73 156 73 135 98 c 0,54,55
59 390 m 0,61,62
 19 366 19 366 0 328 c 1,63,-1
 107 328 l 1,64,65
 121 356 121 356 135 374 c 0,66,67
 147 387 147 387 160 399 c 1,68,69
 107 420 107 420 59 390 c 0,61,62
256 512 m 128,-1,71
 236 512 236 512 222 498 c 128,-1,72
 208 484 208 484 208 464 c 2,73,-1
 208 426 l 1,74,75
 232 434 232 434 256 434 c 128,-1,76
 280 434 280 434 304 426 c 1,77,-1
 304 464 l 2,78,79
 304 484 304 484 290 498 c 128,-1,70
 276 512 276 512 256 512 c 128,-1,71
EndSplineSet
Validated: 41
EndChar

StartChar: flag-chessboard
Encoding: 57355 57355 12
Width: 512
GlyphClass: 2
Flags: W
LayerCount: 2
Fore
SplineSet
376 460 m 1,0,1
 391 392 391 392 427 233.5 c 128,-1,2
 463 75 463 75 482 -8 c 1,3,-1
 466 -12 l 1,4,5
 459 18 459 18 445.5 78 c 128,-1,6
 432 138 432 138 425 168 c 1,7,8
 420 169 420 169 408.5 170.5 c 128,-1,9
 397 172 397 172 391 173 c 1,10,-1
 385 202 l 1,11,12
 391 201 391 201 402 199 c 128,-1,13
 413 197 413 197 419 196 c 1,14,15
 414 217 414 217 404.5 258.5 c 128,-1,16
 395 300 395 300 391 321 c 2,17,-1
 383 355 l 2,18,19
 379 355 379 355 367.5 357 c 128,-1,20
 356 359 356 359 349 360 c 1,21,-1
 342 389 l 1,22,23
 348 388 348 388 359 386.5 c 128,-1,24
 370 385 370 385 376 384 c 1,25,26
 374 395 374 395 368.5 419.5 c 128,-1,27
 363 444 363 444 360 456 c 1,28,-1
 376 460 l 1,0,1
391 173 m 1,29,-1
 399 139 l 1,30,31
 370 144 370 144 366 144 c 2,32,-1
 365 144 l 1,33,-1
 358 177 l 1,34,35
 369 176 369 176 391 173 c 1,29,-1
358 177 m 1,36,37
 340 178 340 178 325 175 c 1,38,-1
 318 206 l 1,39,40
 330 209 330 209 351 206 c 1,41,-1
 358 177 l 1,36,37
325 175 m 1,42,-1
 332 144 l 1,43,44
 324 142 324 142 303 130 c 1,45,-1
 295 163 l 1,46,47
 311 172 311 172 325 175 c 1,42,-1
295 163 m 1,48,49
 283 156 283 156 266 145 c 1,50,-1
 260 174 l 1,51,52
 280 187 280 187 289 192 c 1,53,-1
 295 163 l 1,48,49
266 145 m 1,54,-1
 274 112 l 1,55,56
 252 97 252 97 246 92 c 1,57,-1
 238 125 l 1,58,59
 242 128 242 128 251.5 134.5 c 128,-1,60
 261 141 261 141 266 145 c 1,54,-1
238 125 m 1,61,62
 219 112 219 112 210 106 c 1,63,-1
 203 136 l 1,64,65
 214 142 214 142 232 154 c 1,66,-1
 238 125 l 1,61,62
210 106 m 1,67,-1
 217 74 l 1,68,69
 201 65 201 65 187 62 c 1,70,-1
 180 93 l 1,71,72
 192 95 192 95 210 106 c 1,67,-1
180 93 m 1,73,74
 168 90 168 90 147 92 c 1,75,-1
 140 122 l 1,76,77
 159 121 159 121 173 124 c 1,78,-1
 180 93 l 1,73,74
147 92 m 1,79,-1
 155 59 l 1,80,-1
 121 63 l 1,81,-1
 113 97 l 1,82,83
 138 93 138 93 147 92 c 1,79,-1
113 97 m 1,84,85
 108 98 108 98 96.5 100 c 128,-1,86
 85 102 85 102 79 102 c 1,87,-1
 73 131 l 1,88,89
 79 130 79 130 91 128 c 128,-1,90
 103 126 103 126 107 126 c 2,91,-1
 113 97 l 1,84,85
107 126 m 1,92,-1
 99 159 l 1,93,94
 121 156 121 156 133 155 c 1,95,-1
 140 122 l 1,96,97
 129 122 129 122 107 126 c 1,92,-1
99 159 m 1,98,99
 93 161 93 161 81 162.5 c 128,-1,100
 69 164 69 164 65 165 c 2,101,-1
 59 194 l 1,102,103
 65 193 65 193 76 191 c 128,-1,104
 87 189 87 189 93 188 c 1,105,-1
 99 159 l 1,98,99
93 188 m 1,106,-1
 85 222 l 1,107,108
 107 218 107 218 119 217 c 1,109,-1
 126 184 l 1,110,111
 114 185 114 185 93 188 c 1,106,-1
85 222 m 1,112,113
 79 223 79 223 67 225 c 128,-1,114
 55 227 55 227 51 227 c 2,115,-1
 45 256 l 1,116,117
 51 255 51 255 62 253.5 c 128,-1,118
 73 252 73 252 79 251 c 1,119,-1
 85 222 l 1,112,113
79 251 m 1,120,-1
 71 284 l 1,121,122
 93 281 93 281 105 280 c 1,123,-1
 112 247 l 1,124,125
 100 247 100 247 79 251 c 1,120,-1
71 284 m 1,126,127
 69 285 69 285 37 290 c 1,128,-1
 30 318 l 1,129,130
 36 317 36 317 47.5 315.5 c 128,-1,131
 59 314 59 314 64 313 c 1,132,-1
 71 284 l 1,126,127
64 313 m 1,133,-1
 57 347 l 1,134,135
 60 346 60 346 72 344.5 c 128,-1,136
 84 343 84 343 91 342 c 1,137,-1
 98 309 l 1,138,139
 86 310 86 310 64 313 c 1,133,-1
98 309 m 1,140,141
 116 308 116 308 130 311 c 1,142,-1
 138 280 l 1,143,144
 125 277 125 277 105 280 c 1,145,-1
 98 309 l 1,140,141
130 311 m 1,146,-1
 123 342 l 1,147,148
 135 345 135 345 153 356 c 1,149,-1
 161 323 l 1,150,151
 144 314 144 314 130 311 c 1,146,-1
123 342 m 1024,152,153
161 323 m 1,154,155
 172 329 172 329 189 341 c 1,156,-1
 196 313 l 1,157,158
 178 301 178 301 167 294 c 1,159,-1
 161 323 l 1,154,155
189 341 m 1,160,-1
 182 375 l 1,161,162
 202 389 202 389 210 394 c 1,163,-1
 218 361 l 1,164,165
 213 358 213 358 208.5 355 c 128,-1,166
 204 352 204 352 198.5 348 c 128,-1,167
 193 344 193 344 189 341 c 1,160,-1
218 361 m 1,168,169
 236 373 236 373 246 380 c 1,170,-1
 253 350 l 1,171,172
 243 345 243 345 224 332 c 1,173,-1
 218 361 l 1,168,169
246 380 m 1,174,-1
 239 413 l 1,175,176
 252 420 252 420 269 425 c 1,177,-1
 276 393 l 1,178,179
 264 391 264 391 246 380 c 1,174,-1
276 393 m 1,180,181
 288 396 288 396 309 394 c 1,182,-1
 315 364 l 1,183,184
 297 365 297 365 283 362 c 1,185,-1
 276 393 l 1,180,181
309 394 m 1,186,-1
 301 427 l 1,187,-1
 335 423 l 1,188,-1
 342 389 l 1,189,190
 320 393 320 393 309 394 c 1,186,-1
315 364 m 1,191,192
 327 364 327 364 349 360 c 1,193,-1
 357 327 l 1,194,195
 336 330 336 330 323 332 c 1,196,-1
 315 364 l 1,191,192
357 327 m 1,197,198
 363 326 363 326 375 324 c 128,-1,199
 387 322 387 322 391 321 c 2,200,-1
 397 293 l 1,201,202
 391 294 391 294 379 295.5 c 128,-1,203
 367 297 367 297 363 298 c 2,204,-1
 357 327 l 1,197,198
363 298 m 1,205,-1
 371 264 l 1,206,207
 348 268 348 268 337 269 c 1,208,-1
 329 302 l 1,209,210
 341 301 341 301 363 298 c 1,205,-1
371 264 m 1,211,212
 377 263 377 263 388 261.5 c 128,-1,213
 399 260 399 260 405 259 c 1,214,-1
 411 230 l 1,215,216
 405 231 405 231 394 233 c 128,-1,217
 383 235 383 235 377 235 c 1,218,-1
 371 264 l 1,211,212
377 235 m 1,219,-1
 385 202 l 1,220,221
 359 206 359 206 351 206 c 1,222,-1
 344 239 l 1,223,224
 355 239 355 239 377 235 c 1,219,-1
344 239 m 1,225,226
 326 241 326 241 311 237 c 1,227,-1
 304 268 l 1,228,229
 316 271 316 271 337 269 c 1,230,-1
 344 239 l 1,225,226
311 237 m 1,231,-1
 318 206 l 1,232,233
 307 204 307 204 289 192 c 1,234,-1
 281 225 l 1,235,236
 297 234 297 234 311 237 c 1,231,-1
281 225 m 1,237,238
 272 220 272 220 252 207 c 1,239,-1
 246 236 l 1,240,241
 261 247 261 247 274 255 c 1,242,-1
 281 225 l 1,237,238
252 207 m 1,243,-1
 260 174 l 1,244,245
 239 159 239 159 232 154 c 1,246,-1
 224 188 l 1,247,248
 229 191 229 191 238 197.5 c 128,-1,249
 247 204 247 204 252 207 c 1,243,-1
224 188 m 1,250,251
 204 174 204 174 196 169 c 1,252,-1
 189 198 l 1,253,254
 199 204 199 204 218 217 c 1,255,-1
 224 188 l 1,250,251
196 169 m 1,256,-1
 203 136 l 1,257,258
 187 127 187 127 173 124 c 1,259,-1
 166 155 l 1,260,261
 177 158 177 158 196 169 c 1,256,-1
166 155 m 1,262,263
 154 153 154 153 133 155 c 1,264,-1
 126 184 l 1,265,266
 144 183 144 183 159 186 c 1,267,-1
 166 155 l 1,262,263
159 186 m 1,268,-1
 152 218 l 1,269,270
 163 220 163 220 181 231 c 1,271,-1
 189 198 l 1,272,273
 174 190 174 190 159 186 c 1,268,-1
152 218 m 1,274,275
 140 215 140 215 119 217 c 1,276,-1
 112 247 l 1,277,278
 130 245 130 245 145 249 c 1,279,-1
 152 218 l 1,274,275
145 249 m 1,280,-1
 138 280 l 1,281,282
 149 282 149 282 167 294 c 1,283,-1
 175 261 l 1,284,285
 158 252 158 252 145 249 c 1,280,-1
175 261 m 1,286,287
 185 266 185 266 203 279 c 1,288,-1
 210 250 l 1,289,290
 189 236 189 236 181 231 c 1,291,-1
 175 261 l 1,286,287
203 279 m 1,292,-1
 196 312 l 2,293,294
 198 314 198 314 208 321 c 128,-1,295
 218 328 218 328 224 332 c 1,296,-1
 232 298 l 1,297,298
 207 281 207 281 203 279 c 1,292,-1
232 298 m 1,299,300
 252 312 252 312 260 317 c 1,301,-1
 267 288 l 1,302,303
 257 282 257 282 238 270 c 1,304,-1
 232 298 l 1,299,300
260 317 m 1,305,-1
 253 350 l 1,306,307
 269 359 269 359 283 362 c 1,308,-1
 290 331 l 1,309,310
 278 328 278 328 260 317 c 1,305,-1
290 331 m 1,311,312
 302 334 302 334 323 331 c 1,313,-1
 329 302 l 1,314,315
 312 303 312 303 297 300 c 1,316,-1
 290 331 l 1,311,312
297 300 m 1,317,-1
 304 268 l 1,318,319
 293 266 293 266 274 255 c 1,320,-1
 267 288 l 1,321,322
 283 297 283 297 297 300 c 1,317,-1
238 270 m 1,323,-1
 246 236 l 1,324,325
 222 220 222 220 218 216 c 1,326,-1
 210 250 l 1,327,328
 215 254 215 254 224.5 260 c 128,-1,329
 234 266 234 266 238 270 c 1,323,-1
EndSplineSet
Validated: 37
EndChar

StartChar: archery-target
Encoding: 57356 57356 13
Width: 512
GlyphClass: 2
Flags: W
LayerCount: 2
Fore
SplineSet
459 437 m 1,0,-1
 459 491 l 1,1,2
 456 490 456 490 450 488 c 128,-1,3
 444 486 444 486 429 479 c 128,-1,4
 414 472 414 472 401 464.5 c 128,-1,5
 388 457 388 457 374.5 445.5 c 128,-1,6
 361 434 361 434 354.5 421.5 c 128,-1,7
 348 409 348 409 350 393 c 128,-1,8
 352 377 352 377 366 360 c 1,9,-1
 341 335 l 1,10,11
 285 384 285 384 213 384 c 0,12,13
 134 384 134 384 77.5 328 c 128,-1,14
 21 272 21 272 21 192 c 0,15,16
 21 120 21 120 70 64 c 1,17,-1
 24 18 l 2,18,19
 16 10 16 10 24 3 c 0,20,21
 28 0 28 0 32 0 c 128,-1,22
 36 0 36 0 40 3 c 2,23,-1
 85 49 l 1,24,25
 141 0 141 0 213 0 c 128,-1,26
 285 0 285 0 341 49 c 1,27,-1
 342 49 l 1,28,-1
 387 3 l 2,29,30
 390 0 390 0 395 0 c 0,31,32
 399 0 399 0 402 3 c 0,33,34
 410 10 410 10 402 18 c 2,35,-1
 357 64 l 1,36,-1
 356 64 l 1,37,38
 405 118 405 118 405 192 c 128,-1,39
 405 266 405 266 356 320 c 1,40,-1
 381 345 l 1,41,42
 401 328 401 328 421 328 c 0,43,44
 446 328 446 328 469 355 c 128,-1,45
 492 382 492 382 502 410 c 2,46,-1
 512 437 l 1,47,-1
 459 437 l 1,0,-1
437 437 m 1,48,-1
 437 431 l 1,49,-1
 416 410 l 1,50,-1
 416 449 l 2,51,52
 419 451 419 451 426 454.5 c 128,-1,53
 433 458 433 458 437 460 c 1,54,-1
 437 437 l 1,48,-1
371 405 m 1,55,56
 375 418 375 418 395 435 c 1,57,-1
 395 388 l 1,58,-1
 381 375 l 1,59,60
 371 387 371 387 371 405 c 1,55,56
384 192 m 0,61,62
 384 122 384 122 334 71.5 c 128,-1,63
 284 21 284 21 213 21 c 0,64,65
 143 21 143 21 93 71 c 128,-1,66
 43 121 43 121 43 192 c 128,-1,67
 43 263 43 263 93 313 c 128,-1,68
 143 363 143 363 213 363 c 0,69,70
 276 363 276 363 326 320 c 1,71,-1
 296 290 l 1,72,73
 261 320 261 320 213 320 c 0,74,75
 160 320 160 320 122.5 282.5 c 128,-1,76
 85 245 85 245 85 192 c 128,-1,77
 85 139 85 139 122.5 101.5 c 128,-1,78
 160 64 160 64 213 64 c 128,-1,79
 266 64 266 64 303.5 101.5 c 128,-1,80
 341 139 341 139 341 192 c 0,81,82
 341 239 341 239 311 275 c 1,83,-1
 341 305 l 1,84,85
 384 257 384 257 384 192 c 0,61,62
256 192 m 0,86,87
 256 174 256 174 243.5 161.5 c 128,-1,88
 231 149 231 149 213 149 c 0,89,90
 196 149 196 149 183.5 161.5 c 128,-1,91
 171 174 171 174 171 192 c 128,-1,92
 171 210 171 210 183.5 222.5 c 128,-1,93
 196 235 196 235 213 235 c 0,94,95
 223 235 223 235 235 229 c 1,96,-1
 219 213 l 1,97,-1
 213 213 l 2,98,99
 205 213 205 213 198.5 207 c 128,-1,100
 192 201 192 201 192 192 c 128,-1,101
 192 183 192 183 198.5 177 c 128,-1,102
 205 171 205 171 213 171 c 0,103,104
 222 171 222 171 228.5 177 c 128,-1,105
 235 183 235 183 235 192 c 0,106,107
 235 193 235 193 234 195 c 2,108,-1
 234 197 l 1,109,-1
 250 214 l 1,110,111
 256 204 256 204 256 192 c 0,86,87
250 244 m 1,112,113
 235 256 235 256 213 256 c 0,114,115
 187 256 187 256 168 237 c 128,-1,116
 149 218 149 218 149 192 c 128,-1,117
 149 166 149 166 168 147 c 128,-1,118
 187 128 187 128 213 128 c 0,119,120
 240 128 240 128 258.5 147 c 128,-1,121
 277 166 277 166 277 192 c 0,122,123
 277 214 277 214 265 229 c 1,124,-1
 296 259 l 1,125,126
 320 230 320 230 320 192 c 0,127,128
 320 148 320 148 288.5 116.5 c 128,-1,129
 257 85 257 85 213 85 c 128,-1,130
 169 85 169 85 138 116.5 c 128,-1,131
 107 148 107 148 107 192 c 128,-1,132
 107 236 107 236 138 267.5 c 128,-1,133
 169 299 169 299 213 299 c 0,134,135
 251 299 251 299 281 275 c 1,136,-1
 250 244 l 1,112,113
421 349 m 0,137,138
 410 349 410 349 396 360 c 1,139,-1
 452 416 l 1,140,-1
 481 416 l 1,141,142
 451 349 451 349 421 349 c 0,137,138
EndSplineSet
Validated: 553
EndChar

StartChar: three-check-stack
Encoding: 57357 57357 14
Width: 512
GlyphClass: 2
Flags: W
LayerCount: 2
Fore
SplineSet
71 348 m 2,0,1
 64 351 64 351 64 355.5 c 128,-1,2
 64 360 64 360 71 363 c 2,3,-1
 240 445 l 2,4,5
 246 448 246 448 256 448 c 128,-1,6
 266 448 266 448 272 445 c 2,7,-1
 441 363 l 2,8,9
 448 360 448 360 448 355.5 c 128,-1,10
 448 351 448 351 441 348 c 2,11,-1
 272 266 l 2,12,13
 266 263 266 263 256 263 c 128,-1,14
 246 263 246 263 240 266 c 2,15,-1
 71 348 l 2,0,1
441 264 m 2,16,17
 448 261 448 261 448 256 c 128,-1,18
 448 251 448 251 441 248 c 2,19,-1
 272 167 l 2,20,21
 264 163 264 163 256 163 c 128,-1,22
 248 163 248 163 240 167 c 2,23,-1
 71 248 l 2,24,25
 64 251 64 251 64 256 c 128,-1,26
 64 261 64 261 71 264 c 0,27,28
 98 277 98 277 104 280 c 0,29,30
 110 284 110 284 117 280 c 2,31,-1
 240 220 l 2,32,33
 246 217 246 217 256 217 c 128,-1,34
 266 217 266 217 272 220 c 0,35,36
 393 279 393 279 397 281 c 0,37,38
 402 283 402 283 406 281 c 2,39,-1
 441 264 l 2,16,17
441 164 m 2,40,41
 448 161 448 161 448 156.5 c 128,-1,42
 448 152 448 152 441 149 c 2,43,-1
 272 67 l 2,44,45
 266 64 266 64 256 64 c 128,-1,46
 246 64 246 64 240 67 c 2,47,-1
 71 149 l 2,48,49
 64 152 64 152 64 156.5 c 128,-1,50
 64 161 64 161 71 164 c 0,51,52
 98 178 98 178 104 181 c 0,53,54
 109 184 109 184 117 180 c 2,55,-1
 240 121 l 2,56,57
 246 118 246 118 256 118 c 128,-1,58
 266 118 266 118 272 121 c 0,59,60
 393 179 393 179 397 181 c 0,61,62
 402 183 402 183 406 181 c 2,63,-1
 441 164 l 2,40,41
EndSplineSet
Validated: 1
EndChar

StartChar: upload-cloud
Encoding: 57358 57358 15
Width: 512
GlyphClass: 2
Flags: W
LayerCount: 2
Fore
SplineSet
389 330 m 0,0,1
 439 330 439 330 476 295 c 0,2,3
 512 260 512 260 512 210 c 128,-1,4
 512 160 512 160 476 125 c 0,5,6
 439 90 439 90 389 90 c 2,7,-1
 292 90 l 1,8,-1
 292 187 l 1,9,-1
 346 187 l 1,10,-1
 256 305 l 1,11,-1
 167 187 l 1,12,-1
 220 187 l 1,13,-1
 220 90 l 1,14,-1
 93 90 l 2,15,16
 55 90 55 90 28 117 c 0,17,18
 0 142 0 142 0 180 c 128,-1,19
 0 218 0 218 27 245 c 0,20,21
 55 271 55 271 93 271 c 0,22,23
 101 271 101 271 103 270 c 1,24,25
 103 271 103 271 102.5 278 c 128,-1,26
 102 285 102 285 102 290 c 0,27,28
 102 344 102 344 142 384 c 0,29,30
 182 423 182 423 239 423 c 0,31,32
 285 423 285 423 321 396 c 0,33,34
 355 371 355 371 369 328 c 1,35,36
 387 330 387 330 389 330 c 0,0,1
EndSplineSet
Validated: 513
EndChar

StartChar: external-arrow
Encoding: 57359 57359 16
Width: 512
GlyphClass: 2
Flags: W
LayerCount: 2
Fore
SplineSet
201 101 m 1,0,-1
 201 95 l 2,1,2
 202 92 202 92 202 87 c 0,3,4
 201 85 201 85 201 81 c 0,5,6
 200 76 200 76 198 75 c 0,7,8
 194 73 194 73 192 73 c 2,9,-1
 101 73 l 2,10,11
 68 73 68 73 42 97 c 0,12,13
 18 121 18 121 18 155 c 2,14,-1
 18 357 l 2,15,16
 18 391 18 391 42 415 c 0,17,18
 67 439 67 439 101 439 c 2,19,-1
 192 439 l 2,20,21
 196 439 196 439 198 436 c 0,22,23
 201 433 201 433 201 430 c 2,24,-1
 201 424 l 2,25,26
 202 421 202 421 202 416 c 0,27,28
 201 414 201 414 201 410 c 0,29,30
 200 406 200 406 198 404 c 0,31,32
 194 402 194 402 192 402 c 2,33,-1
 101 402 l 2,34,35
 81 402 81 402 68 389 c 128,-1,36
 55 376 55 376 55 357 c 2,37,-1
 55 155 l 2,38,39
 55 136 55 136 68 123 c 128,-1,40
 81 110 81 110 101 110 c 2,41,-1
 190 110 l 2,42,43
 191 110 191 110 193 109 c 2,44,-1
 196 109 l 1,45,46
 196 108 196 108 199 107 c 0,47,48
 201 105 201 105 201 104 c 2,49,-1
 201 101 l 1,0,-1
466 256 m 128,-1,51
 466 250 466 250 461 243 c 2,52,-1
 305 88 l 2,53,54
 300 82 300 82 293 82 c 0,55,56
 284 82 284 82 280 88 c 0,57,58
 274 92 274 92 274 101 c 2,59,-1
 274 183 l 1,60,-1
 146 183 l 2,61,62
 140 183 140 183 133 188 c 0,63,64
 128 195 128 195 128 201 c 2,65,-1
 128 311 l 2,66,67
 128 317 128 317 133 324 c 0,68,69
 140 329 140 329 146 329 c 2,70,-1
 274 329 l 1,71,-1
 274 411 l 2,72,73
 274 419 274 419 280 424 c 0,74,75
 284 430 284 430 293 430 c 0,76,77
 300 430 300 430 305 424 c 2,78,-1
 461 269 l 2,79,50
 466 262 466 262 466 256 c 128,-1,51
EndSplineSet
Validated: 513
EndChar

StartChar: analog-tv
Encoding: 57360 57360 17
Width: 512
GlyphClass: 2
Flags: W
LayerCount: 2
Fore
SplineSet
480 384 m 2,0,-1
 303 384 l 1,1,-1
 373 454 l 2,2,3
 384 465 384 465 373 476 c 0,4,5
 361 488 361 488 350 476 c 2,6,-1
 258 384 l 1,7,-1
 239 384 l 1,8,-1
 146 476 l 2,9,10
 135 489 135 489 124 476 c 0,11,12
 113 465 113 465 124 454 c 2,13,-1
 194 384 l 1,14,-1
 32 384 l 2,15,16
 18 384 18 384 9 375 c 128,-1,17
 0 366 0 366 0 352 c 2,18,-1
 0 64 l 2,19,20
 0 50 0 50 9 41 c 128,-1,21
 18 32 18 32 32 32 c 2,22,-1
 480 32 l 2,23,24
 494 32 494 32 503 41 c 128,-1,25
 512 50 512 50 512 64 c 2,26,-1
 512 352 l 2,27,28
 512 366 512 366 503 375 c 128,-1,29
 494 384 494 384 480 384 c 2,0,-1
352 96 m 1,30,-1
 64 96 l 1,31,-1
 64 320 l 1,32,-1
 352 320 l 1,33,-1
 352 96 l 1,30,-1
448 192 m 1,34,-1
 416 192 l 1,35,-1
 416 224 l 1,36,-1
 448 224 l 1,37,-1
 448 192 l 1,34,-1
448 256 m 1,38,-1
 416 256 l 1,39,-1
 416 288 l 1,40,-1
 448 288 l 1,41,-1
 448 256 l 1,38,-1
EndSplineSet
Validated: 553
EndChar

StartChar: rss-feed
Encoding: 57361 57361 18
Width: 512
GlyphClass: 2
Flags: W
LayerCount: 2
Fore
SplineSet
120 176 m 128,-1,1
 143 176 143 176 159.5 159.5 c 128,-1,2
 176 143 176 143 176 120 c 128,-1,3
 176 97 176 97 159.5 80.5 c 128,-1,4
 143 64 143 64 120 64 c 128,-1,5
 97 64 97 64 80.5 80.5 c 128,-1,6
 64 97 64 97 64 120 c 128,-1,7
 64 143 64 143 80.5 159.5 c 128,-1,0
 97 176 97 176 120 176 c 128,-1,1
64 320 m 1,8,9
 169 320 169 320 244.5 244.5 c 128,-1,10
 320 169 320 169 320 64 c 1,11,-1
 240 64 l 1,12,13
 240 144 240 144 192 192 c 128,-1,14
 144 240 144 240 64 240 c 1,15,-1
 64 320 l 1,8,9
64 448 m 1,16,17
 223 448 223 448 335.5 335.5 c 128,-1,18
 448 223 448 223 448 64 c 1,19,-1
 368 64 l 1,20,21
 368 192 368 192 280 280 c 128,-1,22
 192 368 192 368 64 368 c 1,23,-1
 64 448 l 1,16,17
EndSplineSet
Validated: 1
EndChar

StartChar: study-board
Encoding: 57362 57362 19
Width: 512
GlyphClass: 2
Flags: W
LayerCount: 2
Fore
SplineSet
457 119 m 2,0,-1
 457 256 l 1,1,-1
 256 256 l 1,2,-1
 256 457 l 1,3,-1
 119 457 l 2,4,5
 92 457 92 457 74 438 c 0,6,7
 55 420 55 420 55 393 c 2,8,-1
 55 256 l 1,9,-1
 256 256 l 1,10,-1
 256 55 l 1,11,-1
 393 55 l 2,12,13
 420 55 420 55 438 74 c 0,14,15
 457 92 457 92 457 119 c 2,0,-1
475 393 m 2,16,-1
 475 119 l 2,17,18
 475 85 475 85 451 61 c 128,-1,19
 427 37 427 37 393 37 c 2,20,-1
 119 37 l 2,21,22
 85 37 85 37 61 61 c 128,-1,23
 37 85 37 85 37 119 c 2,24,-1
 37 393 l 2,25,26
 37 427 37 427 61 451 c 128,-1,27
 85 475 85 475 119 475 c 2,28,-1
 393 475 l 2,29,30
 427 475 427 475 451 451 c 128,-1,31
 475 427 475 427 475 393 c 2,16,-1
EndSplineSet
Validated: 5
EndChar

StartChar: shield
Encoding: 57363 57363 20
Width: 512
GlyphClass: 2
Flags: W
LayerCount: 2
Fore
SplineSet
256 458 m 1,0,-1
 256 459 l 1,1,-1
 84 359 l 1,2,-1
 84 241 l 2,3,4
 85 168 85 168 135 114.5 c 128,-1,5
 185 61 185 61 256 53 c 1,6,7
 328 60 328 60 377 114 c 128,-1,8
 426 168 426 168 428 241 c 2,9,-1
 428 359 l 1,10,-1
 256 458 l 1,0,-1
256 105 m 1,11,-1
 256 247 l 1,12,-1
 135 247 l 1,13,-1
 135 329 l 1,14,-1
 256 399 l 1,15,-1
 256 247 l 1,16,-1
 377 247 l 1,17,-1
 377 241 l 2,18,19
 376 189 376 189 341 150.5 c 128,-1,20
 306 112 306 112 256 105 c 1,11,-1
EndSplineSet
Validated: 5
EndChar

StartChar: ink-quill
Encoding: 57364 57364 21
Width: 512
GlyphClass: 2
Flags: W
LayerCount: 2
Fore
SplineSet
121 264 m 1,0,-1
 36 196 l 1,1,-1
 71 189 l 1,2,-1
 146 252 l 1,3,4
 210 253 210 253 268.5 267.5 c 128,-1,5
 327 282 327 282 353 296 c 2,6,-1
 379 310 l 1,7,-1
 328 354 l 1,8,9
 418 361 418 361 441 350 c 1,10,11
 498 380 498 380 512 506 c 1,12,13
 473 512 473 512 439 512.5 c 128,-1,14
 405 513 405 513 376 508 c 128,-1,15
 347 503 347 503 323.5 496.5 c 128,-1,16
 300 490 300 490 278.5 475.5 c 128,-1,17
 257 461 257 461 241.5 450 c 128,-1,18
 226 439 226 439 209.5 418 c 128,-1,19
 193 397 193 397 183 383.5 c 128,-1,20
 173 370 173 370 160 344.5 c 128,-1,21
 147 319 147 319 140.5 305 c 128,-1,22
 134 291 134 291 121 264 c 1,0,-1
159 279 m 1,23,-1
 157 280 l 1,24,25
 175 299 175 299 198.5 320 c 128,-1,26
 222 341 222 341 267.5 378.5 c 128,-1,27
 313 416 313 416 369 445 c 128,-1,28
 425 474 425 474 477 485 c 1,29,30
 396 457 396 457 159 279 c 1,23,-1
190 131 m 2,31,-1
 158 131 l 1,32,33
 158 144 158 144 148.5 153.5 c 128,-1,34
 139 163 139 163 126 163 c 2,35,-1
 94 163 l 2,36,37
 80 163 80 163 71 153.5 c 128,-1,38
 62 144 62 144 62 131 c 1,39,-1
 30 131 l 2,40,41
 16 131 16 131 7 121.5 c 128,-1,42
 -2 112 -2 112 -2 99 c 2,43,-1
 -2 35 l 2,44,45
 -2 22 -2 22 7.5 12.5 c 128,-1,46
 17 3 17 3 30 3 c 2,47,-1
 190 3 l 2,48,49
 203 3 203 3 212.5 12.5 c 128,-1,50
 222 22 222 22 222 35 c 2,51,-1
 222 99 l 2,52,53
 222 112 222 112 212.5 121.5 c 128,-1,54
 203 131 203 131 190 131 c 2,31,-1
EndSplineSet
Validated: 553
EndChar

StartChar: target
Encoding: 57365 57365 22
Width: 512
GlyphClass: 2
Flags: W
LayerCount: 2
Fore
SplineSet
160 256 m 128,-1,1
 160 296 160 296 188 324 c 128,-1,2
 216 352 216 352 256 352 c 128,-1,3
 296 352 296 352 324 324 c 128,-1,4
 352 296 352 296 352 256 c 128,-1,5
 352 216 352 216 324 188 c 128,-1,6
 296 160 296 160 256 160 c 128,-1,7
 216 160 216 160 188 188 c 128,-1,0
 160 216 160 216 160 256 c 128,-1,1
512 272 m 1,8,-1
 512 240 l 1,9,-1
 447 240 l 1,10,11
 441 169 441 169 392 120 c 128,-1,12
 343 71 343 71 272 65 c 1,13,-1
 272 0 l 1,14,-1
 240 0 l 1,15,-1
 240 65 l 1,16,17
 169 71 169 71 120 120 c 128,-1,18
 71 169 71 169 65 240 c 1,19,-1
 0 240 l 1,20,-1
 0 272 l 1,21,-1
 65 272 l 1,22,23
 67 294 67 294 72 311 c 128,-1,24
 77 328 77 328 87 346 c 128,-1,25
 97 364 97 364 108 378 c 0,26,27
 120 392 120 392 134 404 c 0,28,29
 148 415 148 415 166 425 c 128,-1,30
 184 435 184 435 201 440 c 128,-1,31
 218 445 218 445 240 447 c 1,32,-1
 240 512 l 1,33,-1
 272 512 l 1,34,-1
 272 447 l 1,35,36
 343 441 343 441 392 392 c 128,-1,37
 441 343 441 343 447 272 c 1,38,-1
 512 272 l 1,8,-1
256 113 m 128,-1,40
 315 113 315 113 357 155 c 128,-1,41
 399 197 399 197 399 256 c 128,-1,42
 399 315 399 315 357 357 c 128,-1,43
 315 399 315 399 256 399 c 128,-1,44
 197 399 197 399 155 357 c 128,-1,45
 113 315 113 315 113 256 c 128,-1,46
 113 197 113 197 155 155 c 128,-1,39
 197 113 197 113 256 113 c 128,-1,40
EndSplineSet
EndChar

StartChar: crown
Encoding: 57366 57366 23
Width: 512
GlyphClass: 2
Flags: W
LayerCount: 2
Fore
SplineSet
430 102 m 2,0,1
 430 109 430 109 425.5 113.5 c 128,-1,2
 421 118 421 118 415 118 c 2,3,-1
 97 118 l 2,4,5
 91 118 91 118 86.5 113.5 c 128,-1,6
 82 109 82 109 82 102 c 2,7,-1
 82 83 l 2,8,9
 82 76 82 76 86.5 71.5 c 128,-1,10
 91 67 91 67 97 67 c 2,11,-1
 415 67 l 2,12,13
 421 67 421 67 425.5 71.5 c 128,-1,14
 430 76 430 76 430 83 c 2,15,-1
 430 102 l 2,0,1
126 315 m 2,16,17
 122 319 122 319 115 319 c 0,18,19
 100 319 100 319 98 303 c 2,20,-1
 98 153 l 1,21,-1
 99 153 l 1,22,23
 99 147 99 147 103.5 142.5 c 128,-1,24
 108 138 108 138 115 138 c 1,25,-1
 115 138 l 1,26,-1
 397 138 l 1,27,-1
 397 139 l 1,28,29
 411 139 411 139 413 153 c 1,30,-1
 414 153 l 1,31,-1
 414 155 l 1,32,-1
 414 300 l 1,33,-1
 414 303 l 2,34,35
 414 310 414 310 409 315 c 128,-1,36
 404 320 404 320 397 320 c 0,37,38
 391 320 391 320 387 316 c 1,39,-1
 386 316 l 1,40,-1
 386 315 l 1,41,-1
 385 314 l 1,42,-1
 349 279 l 1,43,-1
 268 360 l 2,44,45
 263 365 263 365 256 365 c 128,-1,46
 249 365 249 365 244 360 c 2,47,-1
 162 279 l 1,48,-1
 128 314 l 1,49,-1
 127 314 l 1,50,-1
 126 315 l 2,16,17
374 272 m 1,51,-1
 373 272 l 1,52,-1
 374 272 l 1,51,-1
145 373 m 128,-1,54
 145 360 145 360 136 351 c 128,-1,55
 127 342 127 342 114 342 c 128,-1,56
 101 342 101 342 92 351 c 128,-1,57
 83 360 83 360 83 373 c 128,-1,58
 83 386 83 386 92 395 c 128,-1,59
 101 404 101 404 114 404 c 128,-1,60
 127 404 127 404 136 395 c 128,-1,53
 145 386 145 386 145 373 c 128,-1,54
427 373 m 128,-1,62
 427 360 427 360 418 351 c 128,-1,63
 409 342 409 342 396 342 c 128,-1,64
 383 342 383 342 374 351 c 128,-1,65
 365 360 365 360 365 373 c 128,-1,66
 365 386 365 386 374 395 c 128,-1,67
 383 404 383 404 396 404 c 128,-1,68
 409 404 409 404 418 395 c 128,-1,61
 427 386 427 386 427 373 c 128,-1,62
289 414 m 128,-1,70
 289 401 289 401 280 392 c 128,-1,71
 271 383 271 383 258 383 c 128,-1,72
 245 383 245 383 236 392 c 128,-1,73
 227 401 227 401 227 414 c 128,-1,74
 227 427 227 427 236 436 c 128,-1,75
 245 445 245 445 258 445 c 128,-1,76
 271 445 271 445 280 436 c 128,-1,69
 289 427 289 427 289 414 c 128,-1,70
EndSplineSet
Validated: 5
EndChar

StartChar: line-graph
Encoding: 57367 57367 24
Width: 512
GlyphClass: 2
Flags: W
LayerCount: 2
Fore
SplineSet
17 222 m 2,0,1
 -5 228 -5 228 1 251 c 0,2,3
 6 273 6 273 28 267 c 2,4,-1
 78 255 l 1,5,-1
 52 214 l 1,6,-1
 17 222 l 2,0,1
472 216 m 2,7,8
 478 222 478 222 488 222 c 0,9,10
 499 220 499 220 504 214 c 0,11,12
 521 197 521 197 503 181 c 2,13,-1
 375 66 l 2,14,15
 368 60 368 60 359 60 c 0,16,17
 353 60 353 60 345 65 c 2,18,-1
 199 177 l 1,19,-1
 171 185 l 1,20,-1
 197 225 l 1,21,-1
 215 221 l 2,22,23
 222 219 222 219 223 217 c 2,24,-1
 358 113 l 1,25,-1
 472 216 l 2,7,8
221 328 m 1,26,-1
 43 48 l 2,27,28
 37 36 37 36 23 36 c 0,29,30
 18 36 18 36 11 41 c 0,31,32
 2 46 2 46 1 55 c 0,33,34
 0 65 0 65 4 72 c 2,35,-1
 195 372 l 2,36,37
 199 380 199 380 209 383 c 0,38,39
 218 386 218 386 228 380 c 2,40,-1
 353 300 l 1,41,-1
 468 466 l 2,42,43
 474 474 474 474 483 476 c 0,44,45
 492 477 492 477 500 471 c 0,46,47
 519 459 519 459 506 440 c 2,48,-1
 378 255 l 2,49,50
 365 237 365 237 346 249 c 2,51,-1
 221 328 l 1,26,-1
EndSplineSet
Validated: 545
EndChar

StartChar: graduate-cap
Encoding: 57368 57368 25
Width: 512
GlyphClass: 2
Flags: W
LayerCount: 2
Fore
SplineSet
256 422 m 1,0,-1
 22 335 l 1,1,-1
 256 218 l 1,2,-1
 367 274 l 1,3,-1
 263 306 l 2,4,5
 259 304 259 304 256 304 c 0,6,7
 240 304 240 304 240 320 c 128,-1,8
 240 336 240 336 256 336 c 1,9,-1
 253 327 l 1,10,-1
 272 322 l 2,11,12
 283 322 283 322 291.5 313.5 c 128,-1,13
 300 305 300 305 300 294 c 0,14,15
 300 282 300 282 291.5 274 c 128,-1,16
 283 266 283 266 272 266 c 1,17,-1
 299 257 l 1,18,-1
 455 265 l 1,19,-1
 455 253 l 1,20,21
 448 248 448 248 448 240 c 128,-1,22
 448 232 448 232 455 227 c 1,23,24
 448 199 448 199 448 112 c 1,25,26
 460 104 460 104 464 104 c 128,-1,27
 468 104 468 104 480 112 c 1,28,29
 480 199 480 199 473 227 c 1,30,31
 480 232 480 232 480 240 c 128,-1,32
 480 248 480 248 473 253 c 1,33,-1
 473 279 l 1,34,-1
 414 297 l 1,35,-1
 490 335 l 1,36,-1
 256 422 l 1,0,-1
120 263 m 1,37,-1
 107 184 l 1,38,39
 141 180 141 180 193 148 c 0,40,41
 220 130 220 130 237 115 c 0,42,43
 245 109 245 109 256 96 c 1,44,45
 267 109 267 109 275 115 c 0,46,47
 292 130 292 130 319 148 c 0,48,49
 371 180 371 180 406 184 c 1,50,-1
 392 263 l 1,51,-1
 386 263 l 1,52,-1
 256 198 l 1,53,-1
 126 263 l 1,54,-1
 120 263 l 1,37,-1
EndSplineSet
Validated: 517
EndChar

StartChar: paper-airplane
Encoding: 57369 57369 26
Width: 512
GlyphClass: 2
Flags: W
LayerCount: 2
Fore
SplineSet
203 207 m 1,0,-1
 186 43 l 1,1,-1
 288 168 l 1,2,-1
 385 124 l 1,3,-1
 485 469 l 1,4,-1
 203 207 l 1,0,-1
485 469 m 1,5,-1
 -27 259 l 1,6,-1
 94 235 l 1,7,-1
 186 43 l 1,8,-1
 120 235 l 1,9,-1
 485 469 l 1,5,-1
EndSplineSet
Validated: 517
EndChar

StartChar: zoom-in
Encoding: 57370 57370 27
Width: 512
GlyphClass: 2
Flags: W
LayerCount: 2
Fore
SplineSet
498 14 m 128,-1,1
 484 0 484 0 464 0 c 128,-1,2
 444 0 444 0 430 14 c 2,3,-1
 345 99 l 1,4,5
 288 63 288 63 224 63 c 0,6,7
 131 63 131 63 65.5 129 c 128,-1,8
 0 195 0 195 0 288 c 128,-1,9
 0 381 0 381 65.5 446.5 c 128,-1,10
 131 512 131 512 224 512 c 128,-1,11
 317 512 317 512 383 446.5 c 128,-1,12
 449 381 449 381 449 288 c 0,13,14
 449 224 449 224 413 167 c 1,15,-1
 498 82 l 2,16,17
 512 68 512 68 512 48 c 128,-1,0
 512 28 512 28 498 14 c 128,-1,1
224 448 m 0,18,19
 158 448 158 448 111 401 c 128,-1,20
 64 354 64 354 64 288 c 0,21,22
 64 221 64 221 111 174 c 128,-1,23
 158 127 158 127 224 127 c 0,24,25
 291 127 291 127 338 174 c 128,-1,26
 385 221 385 221 385 288 c 0,27,28
 385 354 385 354 338 401 c 128,-1,29
 291 448 291 448 224 448 c 0,18,19
256 191 m 1,30,-1
 192 191 l 1,31,-1
 192 256 l 1,32,-1
 128 256 l 1,33,-1
 128 320 l 1,34,-1
 192 320 l 1,35,-1
 192 384 l 1,36,-1
 256 384 l 1,37,-1
 256 320 l 1,38,-1
 321 320 l 1,39,-1
 321 256 l 1,40,-1
 256 256 l 1,41,-1
 256 191 l 1,30,-1
EndSplineSet
Validated: 513
EndChar

StartChar: expand
Encoding: 57371 57371 28
Width: 512
GlyphClass: 2
Flags: W
LayerCount: 2
Fore
SplineSet
96 128 m 1,0,-1
 416 128 l 1,1,-1
 416 384 l 1,2,-1
 96 384 l 1,3,-1
 96 128 l 1,0,-1
160 320 m 1,4,-1
 352 320 l 1,5,-1
 352 192 l 1,6,-1
 160 192 l 1,7,-1
 160 320 l 1,4,-1
64 416 m 1,8,-1
 160 416 l 1,9,-1
 160 448 l 1,10,-1
 32 448 l 1,11,-1
 32 320 l 1,12,-1
 64 320 l 1,13,-1
 64 416 l 1,8,-1
64 192 m 1,14,-1
 32 192 l 1,15,-1
 32 64 l 1,16,-1
 160 64 l 1,17,-1
 160 96 l 1,18,-1
 64 96 l 1,19,-1
 64 192 l 1,14,-1
352 448 m 1,20,-1
 352 416 l 1,21,-1
 448 416 l 1,22,-1
 448 320 l 1,23,-1
 480 320 l 1,24,-1
 480 448 l 1,25,-1
 352 448 l 1,20,-1
448 96 m 1,26,-1
 352 96 l 1,27,-1
 352 64 l 1,28,-1
 480 64 l 1,29,-1
 480 192 l 1,30,-1
 448 192 l 1,31,-1
 448 96 l 1,26,-1
EndSplineSet
Validated: 521
EndChar

StartChar: atom
Encoding: 57372 57372 29
Width: 512
GlyphClass: 2
Flags: W
LayerCount: 2
Fore
SplineSet
256 320 m 128,-1,1
 230 320 230 320 211 301 c 128,-1,2
 192 282 192 282 192 256 c 128,-1,3
 192 230 192 230 211 211 c 128,-1,4
 230 192 230 192 256 192 c 128,-1,5
 282 192 282 192 301 211 c 128,-1,6
 320 230 320 230 320 256 c 128,-1,7
 320 282 320 282 301 301 c 128,-1,0
 282 320 282 320 256 320 c 128,-1,1
453 312 m 1,8,9
 444 315 444 315 434 323 c 1,10,11
 428 311 428 311 404 274 c 1,12,13
 375 311 375 311 343 343 c 0,14,15
 303 382 303 382 274 404 c 1,16,17
 361 466 361 466 419 466 c 0,18,19
 442 466 442 466 454 454 c 0,20,21
 466 443 466 443 466 416 c 1,22,-1
 469 416 l 2,23,24
 478 416 478 416 487 413 c 1,25,26
 489 449 489 449 469 469 c 0,27,28
 451 487 451 487 419 487 c 0,29,30
 353 487 353 487 256 417 c 1,31,32
 159 487 159 487 93 487 c 0,33,34
 84 487 84 487 80 486 c 1,35,36
 88 479 88 479 93 466 c 1,37,38
 151 466 151 466 238 404 c 1,39,40
 209 382 209 382 169 343 c 0,41,42
 130 303 130 303 108 274 c 1,43,44
 79 316 79 316 64 350 c 0,45,46
 54 372 54 372 49 395 c 1,47,-1
 43 395 l 2,48,49
 37 395 37 395 27 397 c 1,50,51
 31 373 31 373 45 341 c 0,52,53
 63 300 63 300 95 256 c 1,54,55
 63 212 63 212 45 171 c 0,56,57
 4 80 4 80 43 43 c 0,58,59
 61 25 61 25 93 25 c 0,60,61
 141 25 141 25 209 64 c 128,-1,62
 277 103 277 103 343 169 c 0,63,64
 382 209 382 209 404 238 c 1,65,66
 447 177 447 177 460.5 126.5 c 128,-1,67
 474 76 474 76 454 58 c 0,68,69
 442 46 442 46 419 46 c 0,70,71
 391 46 391 46 348 65 c 1,72,73
 344 54 344 54 336 47 c 1,74,75
 385 25 385 25 419 25 c 0,76,77
 451 25 451 25 469 43 c 0,78,79
 496 72 496 72 481.5 129.5 c 128,-1,80
 467 187 467 187 417 256 c 1,81,82
 437 283 437 283 453 312 c 1,8,9
93 46 m 0,83,84
 70 46 70 46 58 58 c 0,85,86
 31 84 31 84 64 162 c 0,87,88
 79 196 79 196 108 238 c 1,89,90
 137 201 137 201 169 169 c 128,-1,91
 201 137 201 137 238 108 c 1,92,93
 151 46 151 46 93 46 c 0,83,84
328 184 m 0,94,95
 299 155 299 155 256 121 c 1,96,97
 220 150 220 150 184 184 c 0,98,99
 150 220 150 220 121 256 c 1,100,101
 150 292 150 292 184 328 c 0,102,103
 220 362 220 362 256 391 c 1,104,105
 292 362 292 362 328 328 c 0,106,107
 364 292 364 292 391 256 c 1,108,109
 362 220 362 220 328 184 c 0,94,95
469 384 m 0,110,111
 461 384 461 384 454.5 377.5 c 128,-1,112
 448 371 448 371 448 363 c 0,113,114
 448 354 448 354 454.5 347.5 c 128,-1,115
 461 341 461 341 469 341 c 0,116,117
 478 341 478 341 484.5 347.5 c 128,-1,118
 491 354 491 354 491 363 c 0,119,120
 491 371 491 371 484.5 377.5 c 128,-1,121
 478 384 478 384 469 384 c 0,110,111
299 107 m 0,122,123
 290 107 290 107 283.5 100.5 c 128,-1,124
 277 94 277 94 277 85 c 0,125,126
 277 77 277 77 283.5 70.5 c 128,-1,127
 290 64 290 64 299 64 c 0,128,129
 307 64 307 64 313.5 70.5 c 128,-1,130
 320 77 320 77 320 85 c 0,131,132
 320 94 320 94 313.5 100.5 c 128,-1,133
 307 107 307 107 299 107 c 0,122,123
43 427 m 0,134,135
 51 427 51 427 57.5 433 c 128,-1,136
 64 439 64 439 64 448 c 128,-1,137
 64 457 64 457 57.5 463 c 128,-1,138
 51 469 51 469 43 469 c 0,139,140
 34 469 34 469 27.5 463 c 128,-1,141
 21 457 21 457 21 448 c 128,-1,142
 21 439 21 439 27.5 433 c 128,-1,143
 34 427 34 427 43 427 c 0,134,135
EndSplineSet
Validated: 41
EndChar

StartChar: list
Encoding: 57373 57373 30
Width: 512
GlyphClass: 2
Flags: W
LayerCount: 2
Fore
SplineSet
73 137 m 2,0,-1
 73 82 l 2,1,2
 73 79 73 79 70 76 c 0,3,4
 68 73 68 73 64 73 c 2,5,-1
 9 73 l 2,6,7
 6 73 6 73 3 76 c 128,-1,8
 0 79 0 79 0 82 c 2,9,-1
 0 137 l 2,10,11
 0 141 0 141 3 144 c 0,12,13
 7 146 7 146 9 146 c 2,14,-1
 64 146 l 2,15,16
 68 146 68 146 70 144 c 0,17,18
 73 141 73 141 73 137 c 2,0,-1
73 247 m 2,19,-1
 73 192 l 2,20,21
 73 188 73 188 70 186 c 0,22,23
 68 183 68 183 64 183 c 2,24,-1
 9 183 l 2,25,26
 6 183 6 183 3 186 c 0,27,28
 0 188 0 188 0 192 c 2,29,-1
 0 247 l 2,30,31
 0 250 0 250 3 253 c 128,-1,32
 6 256 6 256 9 256 c 2,33,-1
 64 256 l 2,34,35
 68 256 68 256 70 253 c 0,36,37
 73 250 73 250 73 247 c 2,19,-1
73 357 m 2,38,-1
 73 302 l 2,39,40
 73 298 73 298 70 295 c 0,41,42
 69 293 69 293 64 293 c 2,43,-1
 9 293 l 2,44,45
 5 293 5 293 3 295 c 0,46,47
 0 298 0 298 0 302 c 2,48,-1
 0 357 l 2,49,50
 0 360 0 360 3 363 c 128,-1,51
 6 366 6 366 9 366 c 2,52,-1
 64 366 l 2,53,54
 68 366 68 366 70 363 c 0,55,56
 73 360 73 360 73 357 c 2,38,-1
512 137 m 2,57,-1
 512 82 l 2,58,59
 512 79 512 79 509 76 c 128,-1,60
 506 73 506 73 503 73 c 2,61,-1
 119 73 l 2,62,63
 115 73 115 73 112 76 c 0,64,65
 110 80 110 80 110 82 c 2,66,-1
 110 137 l 2,67,68
 110 140 110 140 112 144 c 0,69,70
 116 146 116 146 119 146 c 2,71,-1
 503 146 l 2,72,73
 505 146 505 146 509 144 c 0,74,75
 512 141 512 141 512 137 c 2,57,-1
73 466 m 2,76,-1
 73 411 l 2,77,78
 73 408 73 408 70 405 c 0,79,80
 68 402 68 402 64 402 c 2,81,-1
 9 402 l 2,82,83
 6 402 6 402 3 405 c 128,-1,84
 0 408 0 408 0 411 c 2,85,-1
 0 466 l 2,86,87
 0 470 0 470 3 473 c 0,88,89
 5 475 5 475 9 475 c 2,90,-1
 64 475 l 2,91,92
 69 475 69 475 70 473 c 0,93,94
 73 470 73 470 73 466 c 2,76,-1
512 247 m 2,95,-1
 512 192 l 2,96,97
 512 188 512 188 509 186 c 0,98,99
 506 183 506 183 503 183 c 2,100,-1
 119 183 l 2,101,102
 115 183 115 183 112 186 c 0,103,104
 110 188 110 188 110 192 c 2,105,-1
 110 247 l 2,106,107
 110 249 110 249 112 253 c 0,108,109
 115 256 115 256 119 256 c 2,110,-1
 503 256 l 2,111,112
 506 256 506 256 509 253 c 128,-1,113
 512 250 512 250 512 247 c 2,95,-1
512 357 m 2,114,-1
 512 302 l 2,115,116
 512 298 512 298 509 295 c 0,117,118
 507 293 507 293 503 293 c 2,119,-1
 119 293 l 2,120,121
 114 293 114 293 112 295 c 0,122,123
 110 299 110 299 110 302 c 2,124,-1
 110 357 l 2,125,126
 110 359 110 359 112 363 c 0,127,128
 115 366 115 366 119 366 c 2,129,-1
 503 366 l 2,130,131
 506 366 506 366 509 363 c 128,-1,132
 512 360 512 360 512 357 c 2,114,-1
512 466 m 2,133,-1
 512 411 l 2,134,135
 512 408 512 408 509 405 c 128,-1,136
 506 402 506 402 503 402 c 2,137,-1
 119 402 l 2,138,139
 115 402 115 402 112 405 c 0,140,141
 110 409 110 409 110 411 c 2,142,-1
 110 466 l 2,143,144
 110 469 110 469 112 473 c 0,145,146
 114 475 114 475 119 475 c 2,147,-1
 503 475 l 2,148,149
 507 475 507 475 509 473 c 0,150,151
 512 470 512 470 512 466 c 2,133,-1
EndSplineSet
Validated: 1
EndChar

StartChar: antichess
Encoding: 57374 57374 31
Width: 512
GlyphClass: 2
Flags: W
LayerCount: 2
Fore
SplineSet
223 464 m 0,0,1
 130 460 130 460 118 426 c 0,2,3
 116 420 116 420 116 409 c 0,4,5
 115 380 115 380 109 358 c 0,6,7
 102 331 102 331 70 286 c 0,8,9
 48 254 48 254 48 227 c 0,10,11
 48 194 48 194 70 172 c 0,12,13
 89 153 89 153 116 147 c 0,14,15
 137 145 137 145 151 148 c 0,16,17
 175 152 175 152 196 169 c 2,18,-1
 201 172 l 1,19,-1
 201 164 l 2,20,21
 201 140 201 140 208 127 c 0,22,23
 211 121 211 121 218 114 c 0,24,25
 224 108 224 108 232 102 c 2,26,-1
 238 98 l 1,27,-1
 238 89 l 1,28,-1
 238 81 l 1,29,-1
 224 73 l 1,30,-1
 211 64 l 1,31,-1
 210 52 l 1,32,-1
 210 39 l 1,33,-1
 223 39 l 1,34,-1
 236 39 l 1,35,-1
 240 27 l 1,36,-1
 244 14 l 1,37,-1
 267 14 l 1,38,-1
 272 27 l 1,39,-1
 276 39 l 1,40,-1
 289 39 l 1,41,-1
 301 39 l 1,42,-1
 301 52 l 1,43,-1
 301 64 l 1,44,-1
 287 73 l 1,45,-1
 274 81 l 1,46,-1
 274 89 l 1,47,-1
 274 98 l 1,48,-1
 279 102 l 2,49,50
 298 116 298 116 303 125 c 0,51,52
 311 139 311 139 311 162 c 0,53,54
 311 163 311 163 311 166 c 2,55,-1
 313 172 l 1,56,-1
 313 171 l 1,57,58
 320 164 320 164 334 158 c 0,59,60
 356 146 356 146 379 146 c 0,61,62
 408 146 408 146 429 161 c 0,63,64
 443 169 443 169 452 185 c 0,65,66
 473 217 473 217 460 251 c 0,67,68
 453 271 453 271 433 299 c 0,69,70
 420 316 420 316 414 328 c 0,71,72
 399 358 399 358 396 408 c 0,73,74
 395 429 395 429 387 437 c 0,75,76
 375 450 375 450 347 456 c 0,77,78
 303 468 303 468 223 464 c 0,0,1
214 408 m 2,79,-1
 256 404 l 1,80,-1
 298 408 l 2,81,82
 342 411 342 411 350 410 c 0,83,84
 356 408 356 408 357 403.5 c 128,-1,85
 358 399 358 399 353 395 c 0,86,87
 336 382 336 382 248 384 c 0,88,89
 175 386 175 386 159 395 c 0,90,91
 154 398 154 398 154 402 c 0,92,93
 155 409 155 409 165 410 c 0,94,95
 169 411 169 411 214 408 c 2,79,-1
194 330 m 0,96,97
 223 328 223 328 247 322 c 2,98,-1
 255 321 l 1,99,-1
 268 323 l 2,100,101
 301 329 301 329 336 331 c 0,102,103
 358 333 358 333 373 326 c 0,104,105
 385 320 385 320 409 290 c 0,106,107
 426 264 426 264 435 243 c 0,108,109
 437 235 437 235 437 225 c 0,110,111
 437 208 437 208 431 198 c 0,112,113
 418 172 418 172 378 170 c 0,114,115
 376 170 376 170 371 170.5 c 128,-1,116
 366 171 366 171 365 171 c 0,117,118
 336 177 336 177 308 205 c 0,119,120
 294 219 294 219 286 235 c 0,121,122
 274 259 274 259 274 290 c 0,123,124
 274 302 274 302 261 305 c 0,125,126
 248 307 248 307 240 301 c 0,127,128
 237 296 237 296 237 289 c 0,129,130
 237 253 237 253 217 221 c 0,131,132
 193 187 193 187 158 174 c 0,133,134
 133 165 133 165 108 174 c 0,135,136
 89 180 89 180 80 197 c 0,137,138
 75 209 75 209 74 219 c 0,139,140
 73 234 73 234 77 245 c 0,141,142
 88 278 88 278 124 315 c 0,143,144
 137 327 137 327 147 329 c 0,145,146
 161 333 161 333 194 330 c 0,96,97
157 312 m 0,147,148
 148 311 148 311 137 302 c 0,149,150
 112 284 112 284 96 252 c 0,151,152
 90 241 90 241 89 228 c 0,153,154
 89 210 89 210 99 200 c 0,155,156
 106 193 106 193 120 189 c 0,157,158
 136 185 136 185 151 189 c 0,159,160
 174 196 174 196 191 214 c 0,161,162
 217 243 217 243 220 287 c 0,163,164
 221 298 221 298 220 301 c 0,165,166
 215 309 215 309 200 312 c 0,167,168
 183 314 183 314 157 312 c 0,147,148
313 312 m 0,169,170
 296 309 296 309 291 300 c 0,171,172
 290 297 290 297 290 288 c 0,173,174
 293 261 293 261 303 239 c 0,175,176
 310 224 310 224 324 212 c 0,177,178
 341 195 341 195 360 189 c 0,179,180
 365 188 365 188 376 188 c 0,181,182
 392 188 392 188 403 193 c 0,183,184
 414 200 414 200 417 207 c 0,185,186
 422 215 422 215 422 229 c 0,187,188
 422 261 422 261 376 299 c 0,189,190
 362 311 362 311 352 312 c 0,191,192
 329 314 329 314 313 312 c 0,169,170
EndSplineSet
Validated: 41
EndChar

StartChar: microscope
Encoding: 57375 57375 32
Width: 512
GlyphClass: 2
Flags: W
LayerCount: 2
Fore
SplineSet
416 32 m 2,0,-1
 394 32 l 1,1,2
 434 58 434 58 457 100.5 c 128,-1,3
 480 143 480 143 480 192 c 0,4,5
 480 259 480 259 439 310.5 c 128,-1,6
 398 362 398 362 335 378 c 1,7,-1
 371 446 l 2,8,9
 378 462 378 462 364 469 c 2,10,-1
 278 510 l 2,11,12
 273 513 273 513 265 511 c 0,13,14
 259 508 259 508 256 502 c 2,15,-1
 154 308 l 2,16,17
 148 295 148 295 152 282 c 128,-1,18
 156 269 156 269 168 264 c 1,19,-1
 154 235 l 1,20,-1
 211 207 l 1,21,-1
 225 236 l 1,22,23
 237 230 237 230 250 235 c 128,-1,24
 263 240 263 240 269 253 c 2,25,-1
 304 318 l 1,26,27
 351 313 351 313 383.5 277 c 128,-1,28
 416 241 416 241 416 192 c 0,29,30
 416 139 416 139 378.5 101.5 c 128,-1,31
 341 64 341 64 288 64 c 0,32,33
 227 64 227 64 192 96 c 1,34,-1
 192 112 l 2,35,36
 192 128 192 128 208 128 c 2,37,-1
 288 128 l 1,38,-1
 288 160 l 1,39,-1
 32 160 l 1,40,-1
 32 128 l 1,41,-1
 112 128 l 2,42,43
 128 128 128 128 128 112 c 2,44,-1
 128 32 l 1,45,46
 83 32 83 32 73 24 c 0,47,48
 64 17 64 17 64 0 c 1,49,-1
 480 0 l 1,50,51
 480 15 480 15 471.5 22.5 c 128,-1,52
 463 30 463 30 453.5 31 c 128,-1,53
 444 32 444 32 424 32 c 0,54,55
 419 32 419 32 416 32 c 2,0,-1
304 469 m 1,56,57
 296 465 296 465 294 459 c 2,58,-1
 220 320 l 1,59,-1
 192 334 l 2,60,61
 192 335 192 335 193 337 c 128,-1,62
 194 339 194 339 194 340 c 2,63,-1
 264 470 l 2,64,65
 267 476 267 476 273 479 c 0,66,67
 281 481 281 481 286 478 c 2,68,-1
 304 469 l 1,56,57
EndSplineSet
Validated: 41
EndChar

StartChar: chasing-arrows
Encoding: 57376 57376 33
Width: 512
GlyphClass: 2
Flags: W
LayerCount: 2
Fore
SplineSet
319 160 m 1,0,-1
 415 288 l 1,1,-1
 512 160 l 1,2,-1
 448 160 l 1,3,-1
 448 128 l 2,4,5
 448 88 448 88 420 60 c 128,-1,6
 392 32 392 32 352 32 c 2,7,-1
 160 32 l 2,8,9
 120 32 120 32 92 60 c 128,-1,10
 64 88 64 88 64 128 c 2,11,-1
 64 160 l 1,12,-1
 128 160 l 1,13,-1
 128 128 l 2,14,15
 128 114 128 114 137 105 c 128,-1,16
 146 96 146 96 160 96 c 2,17,-1
 352 96 l 2,18,19
 366 96 366 96 375 105 c 128,-1,20
 384 114 384 114 384 128 c 2,21,-1
 384 160 l 1,22,-1
 319 160 l 1,0,-1
193 352 m 1,23,-1
 97 224 l 1,24,-1
 0 352 l 1,25,-1
 64 352 l 1,26,-1
 64 384 l 2,27,28
 64 424 64 424 92 452 c 128,-1,29
 120 480 120 480 160 480 c 2,30,-1
 352 480 l 2,31,32
 392 480 392 480 420 452 c 128,-1,33
 448 424 448 424 448 384 c 2,34,-1
 448 352 l 1,35,-1
 384 352 l 1,36,-1
 384 384 l 2,37,38
 384 398 384 398 375 407 c 128,-1,39
 366 416 366 416 352 416 c 2,40,-1
 160 416 l 2,41,42
 146 416 146 416 137 407 c 128,-1,43
 128 398 128 398 128 384 c 2,44,-1
 128 352 l 1,45,-1
 193 352 l 1,23,-1
EndSplineSet
Validated: 513
EndChar

StartChar: crown-elite
Encoding: 57377 57377 34
Width: 512
GlyphClass: 2
Flags: W
LayerCount: 2
Fore
SplineSet
410 64 m 2,0,-1
 70 64 l 2,1,2
 64 64 64 64 64 58 c 2,3,-1
 64 6 l 2,4,5
 64 0 64 0 70 0 c 2,6,-1
 410 0 l 2,7,8
 416 0 416 0 416 6 c 2,9,-1
 416 58 l 2,10,11
 416 64 416 64 410 64 c 2,0,-1
480 400 m 0,12,13
 480 420 480 420 466 434 c 128,-1,14
 452 448 452 448 432 448 c 128,-1,15
 412 448 412 448 398 434 c 128,-1,16
 384 420 384 420 384 400 c 0,17,18
 384 376 384 376 404 361 c 1,19,-1
 320 192 l 1,20,-1
 264 359 l 1,21,22
 288 373 288 373 288 400 c 0,23,24
 288 420 288 420 274 434 c 128,-1,25
 260 448 260 448 240 448 c 128,-1,26
 220 448 220 448 206 434 c 128,-1,27
 192 420 192 420 192 400 c 0,28,29
 192 373 192 373 216 359 c 1,30,-1
 160 192 l 1,31,-1
 76 361 l 1,32,33
 96 376 96 376 96 400 c 0,34,35
 96 420 96 420 82 434 c 128,-1,36
 68 448 68 448 48 448 c 128,-1,37
 28 448 28 448 14 434 c 128,-1,38
 0 420 0 420 0 400 c 0,39,40
 0 384 0 384 10 371 c 128,-1,41
 20 358 20 358 35 354 c 1,42,-1
 64 96 l 1,43,-1
 416 96 l 1,44,-1
 445 354 l 1,45,46
 460 358 460 358 470 371 c 128,-1,47
 480 384 480 384 480 400 c 0,12,13
EndSplineSet
Validated: 521
EndChar

StartChar: funnel
Encoding: 57378 57378 35
Width: 512
GlyphClass: 2
Flags: W
LayerCount: 2
Fore
SplineSet
456 428 m 0,0,1
 461 415 461 415 452 408 c 2,2,-1
 311 267 l 1,3,-1
 311 55 l 2,4,5
 311 43 311 43 300 38 c 0,6,7
 297 37 297 37 293 37 c 0,8,9
 284 37 284 37 280 42 c 2,10,-1
 207 115 l 2,11,12
 201 121 201 121 201 128 c 2,13,-1
 201 267 l 1,14,-1
 60 408 l 2,15,16
 51 415 51 415 56 428 c 0,17,18
 62 439 62 439 73 439 c 2,19,-1
 439 439 l 2,20,21
 450 439 450 439 456 428 c 0,0,1
EndSplineSet
Validated: 545
EndChar

StartChar: checkmark
Encoding: 57379 57379 36
Width: 512
GlyphClass: 2
Flags: W
LayerCount: 2
Fore
SplineSet
477 350 m 128,-1,1
 477 338 477 338 469 331 c 2,2,-1
 263 124 l 1,3,-1
 224 85 l 2,4,5
 214 77 214 77 204 77 c 0,6,7
 193 77 193 77 185 85 c 2,8,-1
 43 227 l 2,9,10
 35 235 35 235 35 247 c 128,-1,11
 35 259 35 259 43 266 c 2,12,-1
 81 305 l 2,13,14
 91 313 91 313 101 313 c 0,15,16
 112 313 112 313 120 305 c 2,17,-1
 204 221 l 1,18,-1
 392 409 l 2,19,20
 400 417 400 417 411 417 c 0,21,22
 421 417 421 417 431 409 c 2,23,-1
 469 370 l 2,24,0
 477 362 477 362 477 350 c 128,-1,1
EndSplineSet
Validated: 513
EndChar

StartChar: internal-arrow
Encoding: 57380 57380 37
Width: 512
GlyphClass: 2
Flags: W
LayerCount: 2
Fore
SplineSet
375 256 m 128,-1,1
 375 249 375 249 369 243 c 2,2,-1
 214 88 l 2,3,4
 208 82 208 82 201 82 c 128,-1,5
 194 82 194 82 188 88 c 0,6,7
 183 93 183 93 183 101 c 2,8,-1
 183 183 l 1,9,-1
 55 183 l 2,10,11
 49 183 49 183 42 188 c 0,12,13
 37 193 37 193 37 201 c 2,14,-1
 37 311 l 2,15,16
 37 319 37 319 42 324 c 0,17,18
 49 329 49 329 55 329 c 2,19,-1
 183 329 l 1,20,-1
 183 411 l 2,21,22
 183 419 183 419 188 424 c 0,23,24
 194 430 194 430 201 430 c 128,-1,25
 208 430 208 430 214 424 c 2,26,-1
 369 269 l 2,27,0
 375 263 375 263 375 256 c 128,-1,1
475 357 m 2,28,-1
 475 155 l 2,29,30
 475 121 475 121 451 97 c 128,-1,31
 427 73 427 73 393 73 c 2,32,-1
 302 73 l 2,33,34
 298 73 298 73 295 76 c 0,35,36
 293 78 293 78 293 82 c 2,37,-1
 292 84 l 2,38,39
 292 86 292 86 292 88 c 2,40,-1
 292 96 l 2,41,42
 292 97 292 97 292.5 99 c 128,-1,43
 293 101 293 101 293 102 c 0,44,45
 293 106 293 106 296 108 c 0,46,47
 298 110 298 110 302 110 c 2,48,-1
 393 110 l 2,49,50
 412 110 412 110 425 123 c 0,51,52
 439 137 439 137 439 155 c 2,53,-1
 439 357 l 2,54,55
 439 375 439 375 425 389 c 0,56,57
 412 402 412 402 393 402 c 2,58,-1
 304 402 l 2,59,60
 303 402 303 402 301 403 c 2,61,-1
 297 403 l 1,62,63
 297 404 297 404 295 405 c 0,64,65
 293 407 293 407 293 408 c 2,66,-1
 293 411 l 1,67,-1
 292 413 l 2,68,69
 292 415 292 415 292 417 c 2,70,-1
 292 425 l 2,71,72
 292 426 292 426 292.5 428 c 128,-1,73
 293 430 293 430 293 431 c 0,74,75
 293 436 293 436 296 437 c 0,76,77
 298 439 298 439 302 439 c 2,78,-1
 393 439 l 2,79,80
 427 439 427 439 451 415 c 128,-1,81
 475 391 475 391 475 357 c 2,28,-1
EndSplineSet
Validated: 513
EndChar

StartChar: play-triangle
Encoding: 57381 57381 38
Width: 512
GlyphClass: 2
Flags: W
LayerCount: 2
Fore
SplineSet
450 247 m 2,0,-1
 71 36 l 2,1,2
 65 33 65 33 60 35 c 0,3,4
 55 38 55 38 55 46 c 2,5,-1
 55 466 l 2,6,7
 55 474 55 474 60 477 c 0,8,9
 65 479 65 479 71 476 c 2,10,-1
 450 265 l 2,11,12
 457 261 457 261 457 256 c 128,-1,13
 457 251 457 251 450 247 c 2,0,-1
EndSplineSet
Validated: 513
EndChar

StartChar: greater-than
Encoding: 57382 57382 39
Width: 512
GlyphClass: 2
Flags: W
LayerCount: 2
Fore
SplineSet
405 257 m 0,0,1
 405 242 405 242 395 231 c 2,2,-1
 209 45 l 2,3,4
 199 35 199 35 183 35 c 128,-1,5
 167 35 167 35 157 45 c 2,6,-1
 135 67 l 2,7,8
 125 77 125 77 125 93 c 0,9,10
 125 108 125 108 135 118 c 2,11,-1
 274 257 l 1,12,-1
 135 396 l 2,13,14
 125 406 125 406 125 422 c 128,-1,15
 125 438 125 438 135 448 c 2,16,-1
 157 469 l 2,17,18
 168 480 168 480 183 480 c 128,-1,19
 198 480 198 480 209 469 c 2,20,-1
 395 283 l 2,21,22
 405 273 405 273 405 257 c 0,0,1
EndSplineSet
Validated: 513
EndChar

StartChar: less-than
Encoding: 57383 57383 40
Width: 512
GlyphClass: 2
Flags: W
LayerCount: 2
Fore
SplineSet
303 46 m 2,0,-1
 117 232 l 2,1,2
 107 242 107 242 107 257 c 0,3,4
 107 273 107 273 117 283 c 2,5,-1
 303 469 l 2,6,7
 314 480 314 480 329 480 c 128,-1,8
 344 480 344 480 355 469 c 2,9,-1
 377 448 l 2,10,11
 387 438 387 438 387 422 c 128,-1,12
 387 406 387 406 377 396 c 2,13,-1
 238 257 l 1,14,-1
 377 119 l 2,15,16
 387 108 387 108 387 93 c 0,17,18
 387 77 387 77 377 67 c 2,19,-1
 355 46 l 2,20,21
 344 35 344 35 329 35 c 128,-1,22
 314 35 314 35 303 46 c 2,0,-1
EndSplineSet
Validated: 513
EndChar

StartChar: disc-big
Encoding: 57384 57384 41
Width: 512
GlyphClass: 2
Flags: W
LayerCount: 2
Fore
SplineSet
475 256 m 128,-1,1
 475 194 475 194 446 146 c 0,2,3
 416 96 416 96 366 66 c 0,4,5
 318 37 318 37 256 37 c 128,-1,6
 194 37 194 37 146 66 c 0,7,8
 96 96 96 96 66 146 c 0,9,10
 37 194 37 194 37 256 c 128,-1,11
 37 318 37 318 66 366 c 0,12,13
 96 416 96 416 146 446 c 0,14,15
 194 475 194 475 256 475 c 128,-1,16
 318 475 318 475 366 446 c 0,17,18
 416 416 416 416 446 366 c 0,19,0
 475 318 475 318 475 256 c 128,-1,1
EndSplineSet
Validated: 513
EndChar

StartChar: disc-big-outline
Encoding: 57385 57385 42
Width: 512
GlyphClass: 2
Flags: W
LayerCount: 2
Fore
SplineSet
256 411 m 128,-1,1
 215 411 215 411 178 391 c 0,2,3
 142 370 142 370 121 334 c 0,4,5
 101 297 101 297 101 256 c 128,-1,6
 101 215 101 215 121 178 c 0,7,8
 142 142 142 142 178 121 c 0,9,10
 215 101 215 101 256 101 c 128,-1,11
 297 101 297 101 334 121 c 0,12,13
 370 142 370 142 391 178 c 0,14,15
 411 215 411 215 411 256 c 128,-1,16
 411 297 411 297 391 334 c 0,17,18
 370 370 370 370 334 391 c 0,19,0
 297 411 297 411 256 411 c 128,-1,1
475 256 m 128,-1,21
 475 194 475 194 446 146 c 0,22,23
 416 96 416 96 366 66 c 0,24,25
 318 37 318 37 256 37 c 128,-1,26
 194 37 194 37 146 66 c 0,27,28
 96 96 96 96 66 146 c 0,29,30
 37 194 37 194 37 256 c 128,-1,31
 37 318 37 318 66 366 c 0,32,33
 96 416 96 416 146 446 c 0,34,35
 194 475 194 475 256 475 c 128,-1,36
 318 475 318 475 366 446 c 0,37,38
 416 416 416 416 446 366 c 0,39,20
 475 318 475 318 475 256 c 128,-1,21
EndSplineSet
Validated: 513
EndChar

StartChar: x
Encoding: 57386 57386 43
Width: 512
GlyphClass: 2
Flags: W
LayerCount: 2
Fore
SplineSet
426 152 m 4,0,1
 426 141 426 141 418 133 c 6,2,-1
 379 94 l 6,3,4
 371 86 371 86 359 86 c 4,5,6
 348 86 348 86 340 94 c 6,7,-1
 256 178 l 5,8,-1
 172 94 l 6,9,10
 164 86 164 86 153 86 c 4,11,12
 141 86 141 86 133 94 c 6,13,-1
 94 133 l 6,14,15
 86 141 86 141 86 152 c 4,16,17
 86 162 86 162 94 172 c 6,18,-1
 178 256 l 5,19,-1
 94 340 l 6,20,21
 86 348 86 348 86 359 c 4,22,23
 86 369 86 369 94 379 c 6,24,-1
 133 417 l 6,25,26
 140 425 140 425 153 425 c 4,27,28
 165 425 165 425 172 417 c 6,29,-1
 256 333 l 5,30,-1
 340 417 l 6,31,32
 347 425 347 425 359 425 c 4,33,34
 372 425 372 425 379 417 c 6,35,-1
 418 379 l 6,36,37
 426 369 426 369 426 359 c 4,38,39
 426 348 426 348 418 340 c 6,40,-1
 334 256 l 5,41,-1
 418 172 l 6,42,43
 426 162 426 162 426 152 c 4,0,1
EndSplineSet
EndChar

StartChar: arrow-down-right
Encoding: 57387 57387 44
Width: 512
GlyphClass: 2
Flags: W
LayerCount: 2
Fore
SplineSet
448 384 m 1,0,-1
 352 288 l 1,1,-1
 192 448 l 1,2,-1
 64 320 l 1,3,-1
 224 160 l 1,4,-1
 128 64 l 1,5,-1
 448 64 l 1,6,-1
 448 384 l 1,0,-1
EndSplineSet
Validated: 521
EndChar

StartChar: arrow-up-right
Encoding: 57388 57388 45
Width: 512
GlyphClass: 2
Flags: W
LayerCount: 2
Fore
SplineSet
448 128 m 1,0,-1
 352 224 l 1,1,-1
 192 64 l 1,2,-1
 64 192 l 1,3,-1
 224 352 l 1,4,-1
 128 448 l 1,5,-1
 448 448 l 1,6,-1
 448 128 l 1,0,-1
EndSplineSet
Validated: 513
EndChar

StartChar: plus-button
Encoding: 57389 57389 46
Width: 512
GlyphClass: 2
Flags: W
LayerCount: 2
Fore
SplineSet
402 238 m 2,0,-1
 402 274 l 2,1,2
 402 282 402 282 397 287 c 0,3,4
 391 293 391 293 384 293 c 2,5,-1
 293 293 l 1,6,-1
 293 384 l 2,7,8
 293 391 293 391 287 397 c 0,9,10
 282 402 282 402 274 402 c 2,11,-1
 238 402 l 2,12,13
 230 402 230 402 225 397 c 0,14,15
 219 391 219 391 219 384 c 2,16,-1
 219 293 l 1,17,-1
 128 293 l 2,18,19
 121 293 121 293 115 287 c 0,20,21
 110 282 110 282 110 274 c 2,22,-1
 110 238 l 2,23,24
 110 230 110 230 115 225 c 0,25,26
 121 219 121 219 128 219 c 2,27,-1
 219 219 l 1,28,-1
 219 128 l 2,29,30
 219 121 219 121 225 115 c 0,31,32
 230 110 230 110 238 110 c 2,33,-1
 274 110 l 2,34,35
 282 110 282 110 287 115 c 0,36,37
 293 121 293 121 293 128 c 2,38,-1
 293 219 l 1,39,-1
 384 219 l 2,40,41
 391 219 391 219 397 225 c 0,42,43
 402 230 402 230 402 238 c 2,0,-1
475 393 m 2,44,-1
 475 119 l 2,45,46
 475 85 475 85 451 61 c 128,-1,47
 427 37 427 37 393 37 c 2,48,-1
 119 37 l 2,49,50
 85 37 85 37 61 61 c 128,-1,51
 37 85 37 85 37 119 c 2,52,-1
 37 393 l 2,53,54
 37 427 37 427 61 451 c 128,-1,55
 85 475 85 475 119 475 c 2,56,-1
 393 475 l 2,57,58
 427 475 427 475 451 451 c 128,-1,59
 475 427 475 427 475 393 c 2,44,-1
EndSplineSet
Validated: 513
EndChar

StartChar: minus-button
Encoding: 57390 57390 47
Width: 512
GlyphClass: 2
Flags: W
LayerCount: 2
Fore
SplineSet
293 219 m 5,0,-1
 384 219 l 2,1,2
 391 219 391 219 397 225 c 0,3,4
 402 230 402 230 402 238 c 2,5,-1
 402 274 l 2,6,7
 402 282 402 282 397 287 c 0,8,9
 390.959537572 293.040462428 390.959537572 293.040462428 384 293 c 2,10,-1
 212 292 l 1,11,-1
 128 293 l 2,12,13
 121 293 121 293 115 287 c 0,14,15
 110 282 110 282 110 274 c 2,16,-1
 110 238 l 2,17,18
 110 230 110 230 115 225 c 0,19,20
 121 219 121 219 128 219 c 2,21,-1
 293 219 l 5,0,-1
475 393 m 2,22,-1
 475 119 l 2,23,24
 475 85 475 85 451 61 c 128,-1,25
 427 37 427 37 393 37 c 2,26,-1
 119 37 l 2,27,28
 85 37 85 37 61 61 c 128,-1,29
 37 85 37 85 37 119 c 2,30,-1
 37 393 l 2,31,32
 37 427 37 427 61 451 c 128,-1,33
 85 475 85 475 119 475 c 2,34,-1
 393 475 l 2,35,36
 427 475 427 475 451 451 c 128,-1,37
 475 427 475 427 475 393 c 2,22,-1
EndSplineSet
EndChar

StartChar: fire
Encoding: 57391 57391 48
Width: 512
GlyphClass: 2
Flags: W
LayerCount: 2
Fore
SplineSet
384 320 m 1,0,1
 361 319 361 319 306 288 c 1,2,-1
 302 293 l 1,3,4
 306 380 306 380 320 416 c 1,5,6
 317 414 317 414 308.5 407.5 c 128,-1,7
 300 401 300 401 285 389.5 c 128,-1,8
 270 378 270 378 258 369 c 1,9,10
 246 398 246 398 244.5 440 c 128,-1,11
 243 482 243 482 256 512 c 1,12,13
 154 439 154 439 93 343.5 c 128,-1,14
 32 248 32 248 32 176 c 0,15,16
 32 172 32 172 32 165 c 0,17,18
 32 141 32 141 32.5 128 c 128,-1,19
 33 115 33 115 37 92 c 128,-1,20
 41 69 41 69 51.5 55.5 c 128,-1,21
 62 42 62 42 78.5 27.5 c 128,-1,22
 95 13 95 13 124 6.5 c 128,-1,23
 153 0 153 0 192 0 c 0,24,25
 255 0 255 0 293.5 15 c 128,-1,26
 332 30 332 30 345.5 54 c 128,-1,27
 359 78 359 78 363.5 112.5 c 128,-1,28
 368 147 368 147 365 180 c 128,-1,29
 362 213 362 213 366 252.5 c 128,-1,30
 370 292 370 292 384 320 c 1,0,1
211 50 m 0,31,32
 100 47 100 47 101 126 c 0,33,34
 102 165 102 165 123 197 c 1,35,-1
 124 198 l 1,36,37
 123 196 123 196 122 194 c 256,38,39
 121 192 121 192 119.5 187 c 128,-1,40
 118 182 118 182 119 172.5 c 128,-1,41
 120 163 120 163 124.5 153 c 128,-1,42
 129 143 129 143 141.5 131 c 128,-1,43
 154 119 154 119 173 109 c 1,44,45
 165 119 165 119 164 131 c 128,-1,46
 163 143 163 143 165.5 152 c 128,-1,47
 168 161 168 161 177 174 c 128,-1,48
 186 187 186 187 191.5 193 c 128,-1,49
 197 199 197 199 209 211 c 128,-1,50
 221 223 221 223 222 224 c 1,51,52
 222 198 222 198 228 169 c 128,-1,53
 234 140 234 140 240 124 c 2,54,-1
 246 109 l 1,55,56
 250 112 250 112 257.5 118 c 128,-1,57
 265 124 265 124 283 151 c 128,-1,58
 301 178 301 178 313 214 c 1,59,60
 332 132 332 132 310 92.5 c 128,-1,61
 288 53 288 53 211 50 c 0,31,32
EndSplineSet
Validated: 553
EndChar

StartChar: down-triangle
Encoding: 57392 57392 49
Width: 512
GlyphClass: 2
Flags: W
LayerCount: 2
Fore
SplineSet
32 352 m 1,0,-1
 256 128 l 1,1,-1
 480 352 l 1,2,-1
 32 352 l 1,0,-1
EndSplineSet
Validated: 521
EndChar

StartChar: up-triangle
Encoding: 57393 57393 50
Width: 512
GlyphClass: 2
Flags: W
LayerCount: 2
Fore
SplineSet
480 160 m 1,0,-1
 256 384 l 1,1,-1
 32 160 l 1,2,-1
 480 160 l 1,0,-1
EndSplineSet
Validated: 521
EndChar

StartChar: bullet
Encoding: 57394 57394 51
Width: 512
GlyphClass: 2
Flags: W
LayerCount: 2
Fore
SplineSet
199 351 m 1,0,1
 207 352 207 352 223 352 c 0,2,3
 361 351 361 351 459 264 c 1,4,5
 368 318 368 318 220 318 c 0,6,7
 203 318 203 318 192 317 c 1,8,9
 197 346 197 346 199 351 c 1,0,1
464 261 m 1,10,11
 364 353 364 353 221 353 c 0,12,13
 199 353 199 353 198 352 c 128,-1,14
 197 351 197 351 190 316 c 1,15,16
 202 317 202 317 220 317 c 0,17,18
 372 317 372 317 464 260 c 1,19,-1
 464 261 l 1,10,11
140 246 m 128,-1,21
 140 295 140 295 150.5 334.5 c 128,-1,22
 161 374 161 374 174 376 c 0,23,24
 195 379 195 379 226 379 c 0,25,26
 250 379 250 379 274 376.5 c 128,-1,27
 298 374 298 374 330 365 c 128,-1,28
 362 356 362 356 391.5 342.5 c 128,-1,29
 421 329 421 329 453 304 c 128,-1,30
 485 279 485 279 511 246 c 1,31,32
 479 205 479 205 439 177 c 128,-1,33
 399 149 399 149 358.5 136 c 128,-1,34
 318 123 318 123 286.5 118 c 128,-1,35
 255 113 255 113 225 113 c 2,36,-1
 174 116 l 2,37,38
 161 118 161 118 150.5 157.5 c 128,-1,20
 140 197 140 197 140 246 c 128,-1,21
45 347 m 1,39,-1
 130 365 l 1,40,-1
 109 328 l 1,41,-1
 35 332 l 1,42,-1
 45 347 l 1,39,-1
133 366 m 1,43,44
 125 365 125 365 93 358.5 c 128,-1,45
 61 352 61 352 44 348 c 1,46,47
 38 339 38 339 34 331 c 1,48,-1
 109 327 l 1,49,-1
 133 366 l 1,43,44
106 246 m 128,-1,51
 106 240 106 240 108 227 c 1,52,-1
 1 240 l 1,53,-1
 1 252 l 1,54,-1
 108 265 l 1,55,50
 106 252 106 252 106 246 c 128,-1,51
0 253 m 1,56,-1
 0 239 l 1,57,-1
 109 226 l 1,58,59
 107 240 107 240 107 246.5 c 128,-1,60
 107 253 107 253 109 266 c 1,61,-1
 0 253 l 1,56,-1
109 164 m 1,62,-1
 130 127 l 1,63,-1
 45 145 l 1,64,-1
 35 160 l 1,65,-1
 109 164 l 1,62,-1
133 126 m 1,66,-1
 109 165 l 1,67,-1
 34 161 l 1,68,-1
 44 144 l 1,69,-1
 133 126 l 1,66,-1
226 380 m 2,70,-1
 174 377 l 2,71,72
 160 375 160 375 149.5 335 c 128,-1,73
 139 295 139 295 139 246 c 128,-1,74
 139 197 139 197 149.5 157 c 128,-1,75
 160 117 160 117 174 115 c 0,76,77
 195 112 195 112 225 112 c 0,78,79
 244 112 244 112 264 114 c 128,-1,80
 284 116 284 116 309.5 120.5 c 128,-1,81
 335 125 335 125 360.5 135 c 128,-1,82
 386 145 386 145 412 159.5 c 128,-1,83
 438 174 438 174 464 196 c 128,-1,84
 490 218 490 218 512 246 c 1,85,86
 480 287 480 287 440 315.5 c 128,-1,87
 400 344 400 344 360 357 c 128,-1,88
 320 370 320 370 288.5 375 c 128,-1,89
 257 380 257 380 226 380 c 2,70,-1
132 127 m 1,90,-1
 44 144 l 1,91,-1
 35 161 l 1,92,-1
 109 165 l 1,93,-1
 132 127 l 1,90,-1
108 266 m 1,94,95
 106 253 106 253 106 246 c 2,96,-1
 108 226 l 1,97,-1
 0 239 l 1,98,-1
 0 253 l 1,99,-1
 108 266 l 1,94,95
132 365 m 1,100,-1
 109 327 l 1,101,-1
 35 331 l 1,102,-1
 44 348 l 1,103,-1
 132 365 l 1,100,-1
226 380 m 2,104,105
 257 380 257 380 288.5 374.5 c 128,-1,106
 320 369 320 369 360 356 c 128,-1,107
 400 343 400 343 440 315 c 128,-1,108
 480 287 480 287 512 246 c 1,109,110
 475 199 475 199 426.5 168.5 c 128,-1,111
 378 138 378 138 335.5 127.5 c 128,-1,112
 293 117 293 117 255.5 113.5 c 128,-1,113
 218 110 218 110 196 113 c 2,114,-1
 174 116 l 2,115,116
 168 117 168 117 161.5 128 c 128,-1,117
 155 139 155 139 150 157 c 128,-1,118
 145 175 145 175 142 198.5 c 128,-1,119
 139 222 139 222 139 246 c 0,120,121
 139 295 139 295 150 334.5 c 128,-1,122
 161 374 161 374 174 376 c 2,123,-1
 226 380 l 2,104,105
223 352 m 1,124,-1
 198 351 l 1,125,-1
 191 317 l 1,126,127
 198 317 198 317 209.5 317.5 c 128,-1,128
 221 318 221 318 255 316.5 c 128,-1,129
 289 315 289 315 321 310 c 128,-1,130
 353 305 353 305 393 292.5 c 128,-1,131
 433 280 433 280 464 261 c 1,132,133
 364 352 364 352 223 352 c 1,124,-1
EndSplineSet
Validated: 549
EndChar

StartChar: swords
Encoding: 57395 57395 52
Width: 512
GlyphClass: 2
Flags: W
LayerCount: 2
Fore
SplineSet
281 240 m 1,0,-1
 377 136 l 1,1,2
 403 156 403 156 412 177 c 1,3,-1
 443 177 l 1,4,5
 434 135 434 135 403 112 c 1,6,-1
 456 49 l 1,7,8
 477 48 477 48 478 26 c 0,9,10
 477 13 477 13 466 6 c 0,11,12
 456 0 456 0 441 0 c 0,13,14
 416 1 416 1 415 28 c 1,15,-1
 361 86 l 1,16,17
 326 67 326 67 295 64 c 1,18,-1
 281 87 l 1,19,20
 315 91 315 91 339 109 c 1,21,-1
 255 209 l 1,22,-1
 172 109 l 1,23,24
 196 91 196 91 229 87 c 1,25,-1
 216 64 l 1,26,27
 184 67 184 67 149 86 c 1,28,-1
 96 28 l 1,29,30
 94 3 94 3 74 0 c 0,31,32
 58 0 58 0 47 5 c 0,33,34
 35 10 35 10 33 22 c 0,35,36
 33 48 33 48 55 49 c 1,37,-1
 108 112 l 1,38,39
 75 137 75 137 68 177 c 1,40,-1
 99 177 l 1,41,42
 108 156 108 156 134 136 c 1,43,-1
 229 240 l 1,44,-1
 44 461 l 1,45,-1
 33 512 l 1,46,-1
 255 269 l 1,47,-1
 478 512 l 1,48,-1
 467 461 l 1,49,-1
 281 240 l 1,0,-1
EndSplineSet
Validated: 513
EndChar

StartChar: jump-last
Encoding: 57396 57396 53
Width: 512
GlyphClass: 2
Flags: W
LayerCount: 2
Fore
SplineSet
13 40 m 2,0,1
 6 35 6 35 4 37 c 0,2,3
 0 38 0 38 0 46 c 2,4,-1
 0 466 l 2,5,6
 0 474 0 474 4 475 c 0,7,8
 6 477 6 477 13 472 c 2,9,-1
 216 269 l 1,10,-1
 219 263 l 1,11,-1
 219 466 l 2,12,13
 219 473 219 473 223 475 c 128,-1,14
 227 477 227 477 232 472 c 2,15,-1
 435 269 l 2,16,17
 438 266 438 266 439 263 c 1,18,-1
 439 457 l 2,19,20
 439 463 439 463 444 470 c 0,21,22
 449 475 449 475 457 475 c 2,23,-1
 494 475 l 2,24,25
 502 475 502 475 507 470 c 0,26,27
 512 463 512 463 512 457 c 2,28,-1
 512 55 l 2,29,30
 512 49 512 49 507 42 c 0,31,32
 502 37 502 37 494 37 c 2,33,-1
 457 37 l 2,34,35
 449 37 449 37 444 42 c 0,36,37
 439 49 439 49 439 55 c 2,38,-1
 439 249 l 1,39,40
 437 245 437 245 435 243 c 2,41,-1
 232 40 l 2,42,43
 227 35 227 35 223 37 c 128,-1,44
 219 39 219 39 219 46 c 2,45,-1
 219 249 l 1,46,-1
 216 243 l 1,47,-1
 13 40 l 2,0,1
EndSplineSet
Validated: 513
EndChar

StartChar: jump-first
Encoding: 57397 57397 54
Width: 512
GlyphClass: 2
Flags: W
LayerCount: 2
Fore
SplineSet
499 472 m 2,0,1
 506 477 506 477 508 475 c 0,2,3
 512 474 512 474 512 466 c 2,4,-1
 512 46 l 2,5,6
 512 38 512 38 508 37 c 0,7,8
 506 35 506 35 499 40 c 2,9,-1
 296 243 l 1,10,-1
 293 249 l 1,11,-1
 293 46 l 2,12,13
 293 39 293 39 289 37 c 128,-1,14
 285 35 285 35 280 40 c 2,15,-1
 77 243 l 2,16,17
 75 245 75 245 73 249 c 1,18,-1
 73 55 l 2,19,20
 73 49 73 49 68 42 c 0,21,22
 63 37 63 37 55 37 c 2,23,-1
 18 37 l 2,24,25
 10 37 10 37 5 42 c 0,26,27
 0 49 0 49 0 55 c 2,28,-1
 0 457 l 2,29,30
 0 463 0 463 5 470 c 0,31,32
 10 475 10 475 18 475 c 2,33,-1
 55 475 l 2,34,35
 63 475 63 475 68 470 c 0,36,37
 73 463 73 463 73 457 c 2,38,-1
 73 263 l 1,39,40
 74 266 74 266 77 269 c 2,41,-1
 280 472 l 2,42,43
 285 477 285 477 289 475 c 128,-1,44
 293 473 293 473 293 466 c 2,45,-1
 293 263 l 1,46,-1
 296 269 l 1,47,-1
 499 472 l 2,0,1
EndSplineSet
Validated: 513
EndChar

StartChar: jump-next
Encoding: 57398 57398 55
Width: 512
GlyphClass: 2
Flags: W
LayerCount: 2
Fore
SplineSet
123 40 m 2,0,1
 116 35 116 35 113 37 c 0,2,3
 110 38 110 38 110 46 c 2,4,-1
 110 466 l 2,5,6
 110 474 110 474 113 475 c 0,7,8
 116 477 116 477 123 472 c 2,9,-1
 325 269 l 2,10,11
 328 266 328 266 329 263 c 1,12,-1
 329 457 l 2,13,14
 329 464 329 464 335 470 c 0,15,16
 339 475 339 475 347 475 c 2,17,-1
 384 475 l 2,18,19
 392 475 392 475 397 470 c 0,20,21
 402 463 402 463 402 457 c 2,22,-1
 402 55 l 2,23,24
 402 49 402 49 397 42 c 0,25,26
 392 37 392 37 384 37 c 2,27,-1
 347 37 l 2,28,29
 339 37 339 37 335 42 c 0,30,31
 329 48 329 48 329 55 c 2,32,-1
 329 249 l 1,33,34
 327 245 327 245 325 243 c 2,35,-1
 123 40 l 2,0,1
EndSplineSet
Validated: 513
EndChar

StartChar: jump-prev
Encoding: 57399 57399 56
Width: 512
GlyphClass: 2
Flags: W
LayerCount: 2
Fore
SplineSet
389 472 m 2,0,1
 396 477 396 477 399 475 c 0,2,3
 402 474 402 474 402 466 c 2,4,-1
 402 46 l 2,5,6
 402 38 402 38 399 37 c 0,7,8
 396 35 396 35 389 40 c 2,9,-1
 187 243 l 2,10,11
 185 245 185 245 183 249 c 1,12,-1
 183 55 l 2,13,14
 183 48 183 48 177 42 c 0,15,16
 173 37 173 37 165 37 c 2,17,-1
 128 37 l 2,18,19
 120 37 120 37 115 42 c 0,20,21
 110 49 110 49 110 55 c 2,22,-1
 110 457 l 2,23,24
 110 463 110 463 115 470 c 0,25,26
 120 475 120 475 128 475 c 2,27,-1
 165 475 l 2,28,29
 173 475 173 475 177 470 c 0,30,31
 183 464 183 464 183 457 c 2,32,-1
 183 263 l 1,33,34
 184 266 184 266 187 269 c 2,35,-1
 389 472 l 2,0,1
EndSplineSet
Validated: 513
EndChar

StartChar: pause
Encoding: 57400 57400 57
Width: 512
GlyphClass: 2
Flags: W
LayerCount: 2
Fore
SplineSet
475 457 m 2,0,-1
 475 55 l 2,1,2
 475 47 475 47 470 42 c 128,-1,3
 465 37 465 37 457 37 c 2,4,-1
 311 37 l 2,5,6
 303 37 303 37 298 42 c 128,-1,7
 293 47 293 47 293 55 c 2,8,-1
 293 457 l 2,9,10
 293 465 293 465 298 470 c 128,-1,11
 303 475 303 475 311 475 c 2,12,-1
 457 475 l 2,13,14
 465 475 465 475 470 470 c 128,-1,15
 475 465 475 465 475 457 c 2,0,-1
219 457 m 2,16,-1
 219 55 l 2,17,18
 219 47 219 47 214 42 c 128,-1,19
 209 37 209 37 201 37 c 2,20,-1
 55 37 l 2,21,22
 47 37 47 37 42 42 c 128,-1,23
 37 47 37 47 37 55 c 2,24,-1
 37 457 l 2,25,26
 37 465 37 465 42 470 c 128,-1,27
 47 475 47 475 55 475 c 2,28,-1
 201 475 l 2,29,30
 209 475 209 475 214 470 c 128,-1,31
 219 465 219 465 219 457 c 2,16,-1
EndSplineSet
Validated: 513
EndChar

StartChar: hamburger
Encoding: 57401 57401 58
Width: 512
GlyphClass: 2
Flags: W
LayerCount: 2
Fore
SplineSet
484 396 m 128,-1,1
 484 382 484 382 473.5 371.5 c 128,-1,2
 463 361 463 361 448 361 c 2,3,-1
 64 361 l 2,4,5
 49 361 49 361 38.5 371.5 c 128,-1,6
 28 382 28 382 28 396 c 128,-1,7
 28 410 28 410 38.5 420.5 c 128,-1,8
 49 431 49 431 64 431 c 2,9,-1
 448 431 l 2,10,11
 463 431 463 431 473.5 420.5 c 128,-1,0
 484 410 484 410 484 396 c 128,-1,1
484 256 m 128,-1,13
 484 242 484 242 473.5 231.5 c 128,-1,14
 463 221 463 221 448 221 c 2,15,-1
 64 221 l 2,16,17
 49 221 49 221 38.5 231.5 c 128,-1,18
 28 242 28 242 28 256 c 128,-1,19
 28 270 28 270 38.5 280.5 c 128,-1,20
 49 291 49 291 64 291 c 2,21,-1
 448 291 l 2,22,23
 463 291 463 291 473.5 280.5 c 128,-1,12
 484 270 484 270 484 256 c 128,-1,13
484 116 m 128,-1,25
 484 102 484 102 473.5 91.5 c 128,-1,26
 463 81 463 81 448 81 c 2,27,-1
 64 81 l 2,28,29
 49 81 49 81 38.5 91.5 c 128,-1,30
 28 102 28 102 28 116 c 128,-1,31
 28 130 28 130 38.5 140.5 c 128,-1,32
 49 151 49 151 64 151 c 2,33,-1
 448 151 l 2,34,35
 463 151 463 151 473.5 140.5 c 128,-1,24
 484 130 484 130 484 116 c 128,-1,25
EndSplineSet
Validated: 1
EndChar

StartChar: globe
Encoding: 57402 57402 59
Width: 512
GlyphClass: 2
Flags: W
LayerCount: 2
Fore
SplineSet
235 139 m 128,-1,1
 310 139 310 139 363 192 c 128,-1,2
 416 245 416 245 416 320 c 128,-1,3
 416 395 416 395 363 448 c 128,-1,4
 310 501 310 501 235 501 c 128,-1,5
 160 501 160 501 106.5 448 c 128,-1,6
 53 395 53 395 53 320 c 128,-1,7
 53 245 53 245 106.5 192 c 128,-1,0
 160 139 160 139 235 139 c 128,-1,1
235 480 m 128,-1,9
 301 480 301 480 348 433 c 128,-1,10
 395 386 395 386 395 320 c 128,-1,11
 395 254 395 254 348 207 c 128,-1,12
 301 160 301 160 235 160 c 128,-1,13
 169 160 169 160 122 207 c 128,-1,14
 75 254 75 254 75 320 c 128,-1,15
 75 386 75 386 122 433 c 128,-1,8
 169 480 169 480 235 480 c 128,-1,9
401 154 m 0,16,17
 468 221 468 221 469.5 315 c 128,-1,18
 471 409 471 409 408 478 c 1,19,-1
 416 486 l 2,20,21
 424 494 424 494 416 501 c 128,-1,22
 408 508 408 508 401 501 c 2,23,-1
 370 471 l 2,24,25
 362 464 362 464 370 456 c 0,26,27
 374 453 374 453 378 453 c 0,28,29
 383 453 383 453 386 456 c 2,30,-1
 393 463 l 1,31,32
 449 400 449 400 447.5 315 c 128,-1,33
 446 230 446 230 386 169 c 0,34,35
 325 109 325 109 239.5 107 c 128,-1,36
 154 105 154 105 92 162 c 1,37,-1
 99 169 l 2,38,39
 106 176 106 176 99 184 c 128,-1,40
 92 192 92 192 84 184 c 2,41,-1
 54 154 l 2,42,43
 46 146 46 146 54 139 c 0,44,45
 57 136 57 136 61 136 c 0,46,47
 66 136 66 136 69 139 c 2,48,-1
 77 147 l 1,49,50
 134 94 134 94 213 86 c 1,51,-1
 213 63 l 1,52,53
 151 57 151 57 101 19 c 2,54,-1
 75 0 l 1,55,-1
 394 0 l 1,56,-1
 369 19 l 2,57,58
 317 57 317 57 256 63 c 1,59,-1
 256 86 l 1,60,61
 339 94 339 94 401 154 c 0,16,17
145 21 m 1,62,63
 187 43 187 43 235 43 c 0,64,65
 281 43 281 43 325 21 c 1,66,-1
 145 21 l 1,62,63
EndSplineSet
Validated: 553
EndChar

StartChar: book
Encoding: 57403 57403 60
Width: 512
GlyphClass: 2
Flags: W
LayerCount: 2
Fore
SplineSet
487 375 m 0,0,1
 498 359 498 359 492 339 c 2,2,-1
 413 80 l 2,3,4
 408 62 408 62 391 49 c 0,5,6
 374 37 374 37 356 37 c 2,7,-1
 93 37 l 2,8,9
 71 37 71 37 50 52 c 0,10,11
 30 68 30 68 22 89 c 0,12,13
 15 108 15 108 21 126 c 0,14,15
 21 129 21 129 22 133 c 0,16,17
 23 138 23 138 23 144 c 0,18,19
 23 148 23 148 22 150 c 0,20,21
 22 152 22 152 22 154 c 2,22,-1
 21 156 l 1,23,-1
 24 162 l 2,24,25
 26 166 26 166 28 168 c 0,26,27
 29 169 29 169 30.5 171.5 c 128,-1,28
 32 174 32 174 33 175 c 0,29,30
 39 183 39 183 46 201 c 0,31,32
 52 215 52 215 55 227 c 2,33,-1
 55 236 l 2,34,35
 54 241 54 241 55 244 c 0,36,37
 55 246 55 246 59 252 c 0,38,39
 64 257 64 257 64 259 c 0,40,41
 70 267 70 267 76 285 c 0,42,43
 83 304 83 304 83 311 c 2,44,-1
 83 320 l 2,45,46
 81 326 81 326 83 328 c 0,47,48
 85 332 85 332 89 336 c 0,49,50
 95 342 95 342 95 343 c 0,51,52
 100 349 100 349 108 367 c 0,53,54
 115 386 115 386 115 395 c 2,55,-1
 115 402 l 2,56,57
 114 405 114 405 114 409 c 0,58,59
 114 412 114 412 117 415 c 2,60,-1
 119 418 l 2,61,62
 121 420 121 420 122 421 c 0,63,64
 126 426 126 426 127 427 c 0,65,66
 130 434 130 434 131 436 c 0,67,68
 132 437 132 437 133.5 440.5 c 128,-1,69
 135 444 135 444 136 446 c 0,70,71
 138 452 138 452 140 456 c 0,72,73
 143 462 143 462 146 465 c 0,74,75
 149 469 149 469 153 472 c 0,76,77
 158 475 158 475 164 475 c 0,78,79
 172 475 172 475 177 474 c 1,80,-1
 177 473 l 1,81,82
 184 475 184 475 191 475 c 2,83,-1
 409 475 l 2,84,85
 431 475 431 475 441 459 c 0,86,87
 453 444 453 444 447 422 c 2,88,-1
 368 163 l 2,89,90
 357 127 357 127 348 120 c 0,91,92
 338 110 338 110 311 110 c 2,93,-1
 63 110 l 2,94,95
 55 110 55 110 52 105 c 256,96,97
 49 100 49 100 52 93 c 0,98,99
 58 73 58 73 93 73 c 2,100,-1
 357 73 l 2,101,102
 363 73 363 73 373 78 c 0,103,104
 380 82 380 82 383 89 c 2,105,-1
 468 371 l 2,106,107
 470 376 470 376 470 388 c 1,108,109
 482 383 482 383 487 375 c 0,0,1
183 375 m 2,110,111
 182 371 182 371 183 368 c 0,112,113
 185 366 185 366 189 366 c 2,114,-1
 363 366 l 2,115,116
 364 366 364 366 370 368 c 0,117,118
 374 372 374 372 375 375 c 2,119,-1
 381 393 l 2,120,121
 381 398 381 398 380 400 c 0,122,123
 378 402 378 402 374 402 c 2,124,-1
 201 402 l 2,125,126
 199 402 199 402 193 400 c 0,127,128
 189 396 189 396 189 393 c 2,129,-1
 183 375 l 2,110,111
159 302 m 2,130,131
 158 298 158 298 159 295 c 0,132,133
 161 293 161 293 165 293 c 2,134,-1
 339 293 l 2,135,136
 344 293 344 293 346 295 c 0,137,138
 349 297 349 297 351 302 c 2,139,-1
 357 320 l 2,140,141
 359 323 359 323 356 326 c 0,142,143
 354 329 354 329 351 329 c 2,144,-1
 177 329 l 2,145,146
 173 329 173 329 170 326 c 0,147,148
 168 325 168 325 165 320 c 2,149,-1
 159 302 l 2,130,131
EndSplineSet
Validated: 33
EndChar

StartChar: bar-graph
Encoding: 57404 57404 61
Width: 512
GlyphClass: 2
Flags: W
LayerCount: 2
Fore
SplineSet
352 384 m 1,0,-1
 256 384 l 1,1,-1
 256 64 l 1,2,-1
 352 64 l 1,3,-1
 352 384 l 1,0,-1
480 288 m 1,4,-1
 384 288 l 1,5,-1
 384 64 l 1,6,-1
 480 64 l 1,7,-1
 480 288 l 1,4,-1
32 32 m 1,8,-1
 32 96 l 1,9,-1
 64 96 l 1,10,-1
 64 128 l 1,11,-1
 32 128 l 1,12,-1
 32 192 l 1,13,-1
 64 192 l 1,14,-1
 64 224 l 1,15,-1
 32 224 l 1,16,-1
 32 288 l 1,17,-1
 64 288 l 1,18,-1
 64 320 l 1,19,-1
 32 320 l 1,20,-1
 32 384 l 1,21,-1
 64 384 l 1,22,-1
 64 416 l 1,23,-1
 32 416 l 1,24,-1
 32 480 l 1,25,-1
 64 480 l 1,26,-1
 64 512 l 1,27,-1
 0 512 l 1,28,-1
 0 0 l 1,29,-1
 512 0 l 1,30,-1
 512 32 l 1,31,-1
 32 32 l 1,8,-1
224 224 m 1,32,-1
 128 224 l 1,33,-1
 128 64 l 1,34,-1
 224 64 l 1,35,-1
 224 224 l 1,32,-1
EndSplineSet
Validated: 9
EndChar

StartChar: keypad
Encoding: 57405 57405 62
Width: 512
GlyphClass: 2
Flags: W
LayerCount: 2
Fore
SplineSet
160 426 m 2,0,1
 160 416 160 416 150 416 c 2,2,-1
 74 416 l 2,3,4
 64 416 64 416 64 426 c 2,5,-1
 64 502 l 2,6,7
 64 512 64 512 74 512 c 2,8,-1
 150 512 l 2,9,10
 160 512 160 512 160 502 c 2,11,-1
 160 426 l 2,0,1
307 426 m 2,12,13
 307 416 307 416 297 416 c 2,14,-1
 221 416 l 2,15,16
 211 416 211 416 211 426 c 2,17,-1
 211 502 l 2,18,19
 211 512 211 512 221 512 c 2,20,-1
 297 512 l 2,21,22
 307 512 307 512 307 502 c 2,23,-1
 307 426 l 2,12,13
448 426 m 2,24,25
 448 416 448 416 438 416 c 2,26,-1
 362 416 l 2,27,28
 352 416 352 416 352 426 c 2,29,-1
 352 502 l 2,30,31
 352 512 352 512 362 512 c 2,32,-1
 438 512 l 2,33,34
 448 512 448 512 448 502 c 2,35,-1
 448 426 l 2,24,25
160 298 m 2,36,37
 160 288 160 288 150 288 c 2,38,-1
 74 288 l 2,39,40
 64 288 64 288 64 298 c 2,41,-1
 64 374 l 2,42,43
 64 384 64 384 74 384 c 2,44,-1
 150 384 l 2,45,46
 160 384 160 384 160 374 c 2,47,-1
 160 298 l 2,36,37
307 298 m 2,48,49
 307 288 307 288 297 288 c 2,50,-1
 221 288 l 2,51,52
 211 288 211 288 211 298 c 2,53,-1
 211 374 l 2,54,55
 211 384 211 384 221 384 c 2,56,-1
 297 384 l 2,57,58
 307 384 307 384 307 374 c 2,59,-1
 307 298 l 2,48,49
448 298 m 2,60,61
 448 288 448 288 438 288 c 2,62,-1
 362 288 l 2,63,64
 352 288 352 288 352 298 c 2,65,-1
 352 374 l 2,66,67
 352 384 352 384 362 384 c 2,68,-1
 438 384 l 2,69,70
 448 384 448 384 448 374 c 2,71,-1
 448 298 l 2,60,61
160 170 m 2,72,73
 160 160 160 160 150 160 c 2,74,-1
 74 160 l 2,75,76
 64 160 64 160 64 170 c 2,77,-1
 64 246 l 2,78,79
 64 256 64 256 74 256 c 2,80,-1
 150 256 l 2,81,82
 160 256 160 256 160 246 c 2,83,-1
 160 170 l 2,72,73
307 170 m 2,84,85
 307 160 307 160 297 160 c 2,86,-1
 221 160 l 2,87,88
 211 160 211 160 211 170 c 2,89,-1
 211 246 l 2,90,91
 211 256 211 256 221 256 c 2,92,-1
 297 256 l 2,93,94
 307 256 307 256 307 246 c 2,95,-1
 307 170 l 2,84,85
307 42 m 2,96,97
 307 32 307 32 297 32 c 2,98,-1
 221 32 l 2,99,100
 211 32 211 32 211 42 c 2,101,-1
 211 118 l 2,102,103
 211 128 211 128 221 128 c 2,104,-1
 297 128 l 2,105,106
 307 128 307 128 307 118 c 2,107,-1
 307 42 l 2,96,97
448 170 m 2,108,109
 448 160 448 160 438 160 c 2,110,-1
 362 160 l 2,111,112
 352 160 352 160 352 170 c 2,113,-1
 352 246 l 2,114,115
 352 256 352 256 362 256 c 2,116,-1
 438 256 l 2,117,118
 448 256 448 256 448 246 c 2,119,-1
 448 170 l 2,108,109
EndSplineSet
Validated: 1
EndChar

StartChar: berserk
Encoding: 57406 57406 63
Width: 512
GlyphClass: 2
Flags: W
LayerCount: 2
Fore
SplineSet
228 359 m 0,0,1
 232 359 232 359 242 361 c 0,2,3
 246 361 246 361 247 364 c 0,4,5
 249 368 249 368 249 370 c 2,6,-1
 225 505 l 2,7,8
 223 514 223 514 215 512 c 0,9,10
 183 507 183 507 165 480.5 c 128,-1,11
 147 454 147 454 153 423 c 0,12,13
 157 395 157 395 178.5 377 c 128,-1,14
 200 359 200 359 228 359 c 0,0,1
210 493 m 1,15,-1
 230 377 l 1,16,-1
 228 376 l 1,17,18
 206 376 206 376 190 390 c 128,-1,19
 174 404 174 404 170 426 c 128,-1,20
 166 448 166 448 177.5 467 c 128,-1,21
 189 486 189 486 210 493 c 1,15,-1
364 361 m 0,22,23
 374 359 374 359 378 359 c 0,24,25
 406 359 406 359 427.5 377 c 128,-1,26
 449 395 449 395 453 423 c 0,27,28
 459 454 459 454 441 480.5 c 128,-1,29
 423 507 423 507 391 512 c 0,30,31
 387 512 387 512 385 510 c 0,32,33
 383 509 383 509 381 505 c 2,34,-1
 358 370 l 2,35,36
 356 361 356 361 364 361 c 0,22,23
396 493 m 1,37,38
 417 486 417 486 429 467 c 128,-1,39
 441 448 441 448 437 426 c 0,40,41
 432 404 432 404 415 390 c 128,-1,42
 398 376 398 376 376 377 c 1,43,-1
 396 493 l 1,37,38
495 119 m 2,44,-1
 401 119 l 1,45,-1
 407 152 l 1,46,47
 417 146 417 146 423 145 c 0,48,49
 437 142 437 142 449 150.5 c 128,-1,50
 461 159 461 159 463 173 c 2,51,-1
 477 263 l 2,52,53
 482 286 482 286 467 307 c 0,54,55
 453 327 453 327 429 332 c 2,56,-1
 362 344 l 2,57,58
 357 344 357 344 355 342 c 0,59,60
 352 340 352 340 352 337 c 2,61,-1
 321 160 l 2,62,63
 319 151 319 151 327 151 c 0,64,65
 336 149 336 149 334 141 c 2,66,-1
 331 119 l 1,67,-1
 274 119 l 1,68,-1
 272 141 l 2,69,70
 270 149 270 149 279 151 c 0,71,72
 282 151 282 151 284 154 c 0,73,74
 286 156 286 156 286 160 c 2,75,-1
 255 337 l 2,76,77
 253 346 253 346 245 344 c 2,78,-1
 177 332 l 2,79,80
 153 327 153 327 139 307 c 128,-1,81
 125 287 125 287 129 263 c 2,82,-1
 144 174 l 2,83,84
 147 160 147 160 158 152 c 0,85,86
 170 143 170 143 184 146 c 0,87,88
 191 147 191 147 199 153 c 1,89,-1
 205 119 l 1,90,-1
 162 119 l 1,91,-1
 162 128 l 2,92,93
 162 137 162 137 154 137 c 0,94,95
 145 137 145 137 145 128 c 2,96,-1
 145 119 l 1,97,-1
 17 119 l 2,98,99
 2 119 2 119 2 85 c 128,-1,100
 2 51 2 51 17 51 c 2,101,-1
 145 51 l 1,102,-1
 145 26 l 2,103,104
 145 17 145 17 154 17 c 0,105,106
 162 17 162 17 162 26 c 2,107,-1
 162 51 l 1,108,-1
 218 51 l 1,109,-1
 222 28 l 2,110,111
 224 16 224 16 234 8 c 128,-1,112
 244 0 244 0 256 0 c 2,113,-1
 262 0 l 2,114,115
 276 3 276 3 284 14.5 c 128,-1,116
 292 26 292 26 290 40 c 2,117,-1
 288 51 l 1,118,-1
 319 51 l 1,119,-1
 317 40 l 2,120,121
 314 27 314 27 322 14 c 0,122,123
 330 3 330 3 344 0 c 2,124,-1
 350 0 l 2,125,126
 363 0 363 0 372.5 8 c 128,-1,127
 382 16 382 16 384 28 c 2,128,-1
 388 51 l 1,129,-1
 461 51 l 2,130,131
 478 51 478 51 491 72 c 128,-1,132
 504 93 504 93 504 111 c 0,133,134
 504 119 504 119 495 119 c 2,44,-1
211 184 m 1,135,-1
 211 185 l 1,136,-1
 201 243 l 2,137,138
 199 252 199 252 191 250 c 0,139,140
 188 250 188 250 185.5 247 c 128,-1,141
 183 244 183 244 184 241 c 2,142,-1
 194 183 l 1,143,-1
 194 182 l 2,144,145
 196 175 196 175 192 169.5 c 128,-1,146
 188 164 188 164 181 163 c 128,-1,147
 174 162 174 162 168 166 c 0,148,149
 163 169 163 169 161 177 c 2,150,-1
 146 266 l 2,151,152
 143 283 143 283 153 297.5 c 128,-1,153
 163 312 163 312 180 315 c 2,154,-1
 239 326 l 1,155,-1
 268 164 l 1,156,157
 252 156 252 156 255 138 c 2,158,-1
 257 119 l 1,159,-1
 222 119 l 1,160,-1
 211 184 l 1,135,-1
94 102 m 1,161,-1
 111 102 l 1,162,-1
 111 68 l 1,163,-1
 94 68 l 1,164,-1
 94 102 l 1,161,-1
77 68 m 1,165,-1
 60 68 l 1,166,-1
 60 102 l 1,167,-1
 77 102 l 1,168,-1
 77 68 l 1,165,-1
20 102 m 1,169,-1
 43 102 l 1,170,-1
 43 68 l 1,171,-1
 20 68 l 1,172,173
 18 73 18 73 18 85 c 128,-1,174
 18 97 18 97 20 102 c 1,169,-1
128 68 m 1,175,-1
 128 102 l 1,176,-1
 145 102 l 1,177,-1
 145 68 l 1,178,-1
 128 68 l 1,175,-1
273 37 m 2,179,180
 275 21 275 21 259 17 c 0,181,182
 252 16 252 16 246.5 20 c 128,-1,183
 241 24 241 24 239 31 c 2,184,-1
 236 51 l 1,185,-1
 270 51 l 1,186,-1
 273 37 l 2,179,180
162 68 m 1,187,-1
 162 102 l 1,188,-1
 328 102 l 1,189,-1
 322 68 l 1,190,-1
 162 68 l 1,187,-1
367 31 m 2,191,192
 363 14 363 14 347 17 c 0,193,194
 340 19 340 19 336 24 c 0,195,196
 333 30 333 30 333 37 c 2,197,-1
 351 138 l 2,198,199
 354 156 354 156 339 164 c 1,200,-1
 367 326 l 1,201,-1
 426 315 l 2,202,203
 444 312 444 312 453 298 c 0,204,205
 463 283 463 283 460 266 c 2,206,-1
 446 175 l 2,207,208
 442 159 442 159 426 162 c 0,209,210
 420 162 420 162 415 169 c 0,211,212
 412 173 412 173 412 181 c 2,213,-1
 412 182 l 1,214,-1
 423 241 l 2,215,216
 423 249 423 249 416 251 c 0,217,218
 408 253 408 253 406 244 c 2,219,-1
 395 183 l 1,220,-1
 395 182 l 1,221,-1
 367 31 l 2,191,192
461 68 m 2,222,-1
 391 68 l 1,223,-1
 398 102 l 1,224,-1
 485 102 l 1,225,226
 483 90 483 90 475.5 79 c 128,-1,227
 468 68 468 68 461 68 c 2,222,-1
EndSplineSet
Validated: 553
EndChar

StartChar: padlock
Encoding: 57407 57407 64
Width: 512
GlyphClass: 2
Flags: W
LayerCount: 2
Fore
SplineSet
177 279 m 5,0,-1
 337 279 l 5,1,-1
 337 339 l 6,2,3
 337 373 337 373 313.5 396.5 c 132,-1,4
 290 420 290 420 257 419.5 c 132,-1,5
 224 419 224 419 200 396.5 c 132,-1,6
 176 374 176 374 177 339 c 6,7,-1
 177 279 l 5,0,-1
438 249 m 6,8,-1
 438 68 l 6,9,10
 438 55 438 55 429 46.5 c 132,-1,11
 420 38 420 38 407 38 c 6,12,-1
 107 38 l 6,13,14
 94 38 94 38 85.5 47 c 132,-1,15
 77 56 77 56 76 68 c 6,16,-1
 76 249 l 6,17,18
 76 261 76 261 85 270 c 132,-1,19
 94 279 94 279 107 279 c 6,20,-1
 116 279 l 5,21,-1
 116 339 l 6,22,23
 116 397 116 397 157.5 438.5 c 132,-1,24
 199 480 199 480 256.5 480 c 132,-1,25
 314 480 314 480 356 438.5 c 132,-1,26
 398 397 398 397 397 339 c 6,27,-1
 397 279 l 5,28,-1
 407 279 l 6,29,30
 420 279 420 279 428.5 270.5 c 132,-1,31
 437 262 437 262 438 249 c 6,8,-1
EndSplineSet
EndChar

StartChar: flag-outline
Encoding: 57408 57408 65
Width: 512
GlyphClass: 2
Flags: W
LayerCount: 2
Fore
SplineSet
475 213 m 1,0,-1
 475 389 l 1,1,2
 426 363 426 363 388 363 c 0,3,4
 364 363 364 363 347 373 c 0,5,6
 319 386 319 386 294 394 c 0,7,8
 273 402 273 402 243 402 c 0,9,10
 194 402 194 402 128 366 c 1,11,-1
 128 195 l 1,12,13
 200 227 200 227 252 227 c 0,14,15
 263 227 263 227 281 225 c 0,16,17
 291 224 291 224 309 218 c 0,18,19
 315 216 315 216 322 213 c 128,-1,20
 329 210 329 210 331 209 c 128,-1,21
 333 208 333 208 337 206 c 128,-1,22
 341 204 341 204 345.5 202 c 128,-1,23
 350 200 350 200 355 197 c 2,24,-1
 363 193 l 2,25,26
 375 187 375 187 392 187 c 0,27,28
 425 187 425 187 475 213 c 1,0,-1
91 439 m 0,29,30
 91 427 91 427 86 421 c 0,31,32
 82 413 82 413 73 407 c 1,33,-1
 73 46 l 2,34,35
 73 43 73 43 71 39 c 0,36,37
 69 37 69 37 64 37 c 2,38,-1
 46 37 l 2,39,40
 41 37 41 37 39 39 c 128,-1,41
 37 41 37 41 37 46 c 2,42,-1
 37 407 l 1,43,44
 29 413 29 413 23 421 c 0,45,46
 18 429 18 429 18 439 c 0,47,48
 18 454 18 454 29 465 c 0,49,50
 39 475 39 475 55 475 c 128,-1,51
 71 475 71 475 81 465 c 128,-1,52
 91 455 91 455 91 439 c 0,29,30
512 421 m 2,53,-1
 512 203 l 2,54,55
 512 192 512 192 502 186 c 0,56,57
 498 184 498 184 497 184 c 0,58,59
 436 151 436 151 392 151 c 0,60,61
 366 151 366 151 347 161 c 2,62,-1
 339 165 l 2,63,64
 322 173 322 173 310 178 c 0,65,66
 302 182 302 182 284 187 c 0,67,68
 264 191 264 191 252 191 c 0,69,70
 226 191 226 191 184 178 c 0,71,72
 147 166 147 166 119 149 c 0,73,74
 114 146 114 146 110 146 c 128,-1,75
 106 146 106 146 101 149 c 0,76,77
 91 153 91 153 91 165 c 2,78,-1
 91 377 l 2,79,80
 91 386 91 386 100 392 c 0,81,82
 114 400 114 400 123 404 c 0,83,84
 124 405 124 405 155 419 c 0,85,86
 179 429 179 429 199 433 c 0,87,88
 222 439 222 439 243 439 c 0,89,90
 274 439 274 439 303 430 c 0,91,92
 333 420 333 420 363 405 c 0,93,94
 375 400 375 400 388 400 c 0,95,96
 422 400 422 400 477 432 c 0,97,98
 483 435 483 435 485 437 c 0,99,100
 494 442 494 442 503 436 c 128,-1,101
 512 430 512 430 512 421 c 2,53,-1
EndSplineSet
Validated: 545
EndChar

StartChar: bubble-speech
Encoding: 57409 57409 66
Width: 512
GlyphClass: 2
Flags: W
LayerCount: 2
Fore
SplineSet
256 402 m 128,-1,1
 196 402 196 402 147 382 c 0,2,3
 97 363 97 363 66 329 c 0,4,5
 37 294 37 294 37 256 c 0,6,7
 37 222 37 222 57 195 c 0,8,9
 79 165 79 165 115 145 c 2,10,-1
 139 131 l 1,11,-1
 132 103 l 2,12,13
 124 77 124 77 112 54 c 1,14,15
 157 72 157 72 190 103 c 2,16,-1
 203 114 l 1,17,-1
 219 112 l 2,18,19
 232 110 232 110 256 110 c 0,20,21
 316 110 316 110 365 130 c 0,22,23
 415 149 415 149 446 183 c 0,24,25
 475 218 475 218 475 256 c 128,-1,26
 475 294 475 294 446 329 c 0,27,28
 415 363 415 363 365 382 c 0,29,0
 316 402 316 402 256 402 c 128,-1,1
512 256 m 128,-1,31
 512 205 512 205 478 164 c 0,32,33
 444 122 444 122 385 98 c 0,34,35
 326 73 326 73 256 73 c 0,36,37
 243 73 243 73 215 75 c 1,38,39
 158 26 158 26 83 6 c 0,40,41
 71 3 71 3 51 0 c 2,42,-1
 49 0 l 2,43,44
 46 0 46 0 41 3 c 0,45,46
 39 5 39 5 37 11 c 0,47,48
 36 12 36 12 37 15 c 2,49,-1
 37 17 l 2,50,51
 37 18 37 18 39 20 c 2,52,-1
 40 23 l 1,53,-1
 42 25 l 2,54,55
 45 28 45 28 45 28 c 1,56,-1
 46 30 l 2,57,58
 48 31 48 31 50 33.5 c 128,-1,59
 52 36 52 36 53 38 c 2,60,-1
 63 48 l 2,61,62
 64 49 64 49 67 53 c 128,-1,63
 70 57 70 57 72 60 c 0,64,65
 77 67 77 67 81 74 c 0,66,67
 84 78 84 78 89 91 c 0,68,69
 91 95 91 95 93.5 102.5 c 128,-1,70
 96 110 96 110 97 113 c 0,71,72
 51 139 51 139 26 176 c 0,73,74
 0 214 0 214 0 256 c 0,75,76
 0 307 0 307 34 348 c 0,77,78
 68 390 68 390 127 414 c 0,79,80
 186 439 186 439 256 439 c 128,-1,81
 326 439 326 439 385 414 c 0,82,83
 444 390 444 390 478 348 c 0,84,30
 512 307 512 307 512 256 c 128,-1,31
EndSplineSet
Validated: 513
EndChar

StartChar: bubble-convo
Encoding: 57410 57410 67
Width: 512
GlyphClass: 2
Flags: W
LayerCount: 2
Fore
SplineSet
201 402 m 0,0,1
 158 402 158 402 119 387 c 0,2,3
 83 374 83 374 59 347 c 0,4,5
 37 322 37 322 37 293 c 0,6,7
 37 270 37 270 52 247 c 0,8,9
 68 224 68 224 94 210 c 2,10,-1
 122 194 l 1,11,-1
 112 170 l 1,12,13
 115 172 115 172 121 175.5 c 128,-1,14
 127 179 127 179 130 181 c 2,15,-1
 142 190 l 1,16,-1
 157 187 l 2,17,18
 177 183 177 183 201 183 c 0,19,20
 246 183 246 183 283 198 c 0,21,22
 321 213 321 213 343 238 c 0,23,24
 366 264 366 264 366 293 c 0,25,26
 366 321 366 321 343 347 c 0,27,28
 319 374 319 374 283 387 c 0,29,30
 245 402 245 402 201 402 c 0,0,1
201 439 m 128,-1,32
 254 439 254 439 302 419 c 0,33,34
 349 399 349 399 375 366 c 0,35,36
 402 333 402 333 402 293 c 0,37,38
 402 254 402 254 375 219 c 0,39,40
 349 186 349 186 302 166 c 0,41,42
 254 146 254 146 201 146 c 0,43,44
 179 146 179 146 151 151 c 1,45,46
 116 126 116 126 71 114 c 0,47,48
 69 114 69 114 64.5 113 c 128,-1,49
 60 112 60 112 55.5 111 c 128,-1,50
 51 110 51 110 47 110 c 2,51,-1
 46 110 l 2,52,53
 42 110 42 110 40 112 c 0,54,55
 37 115 37 115 37 118 c 2,56,-1
 37 120 l 1,57,-1
 37 122 l 1,58,-1
 37 123 l 1,59,-1
 38 125 l 1,60,-1
 39 126 l 1,61,-1
 40 128 l 2,62,63
 41 128 41 128 41 129 c 2,64,-1
 43 131 l 2,65,66
 46 134 46 134 49 138 c 2,67,-1
 57 146 l 2,68,69
 59 150 59 150 63 154 c 0,70,71
 65 156 65 156 67.5 160 c 128,-1,72
 70 164 70 164 70 165 c 0,73,74
 74 173 74 173 76 178 c 1,75,76
 42 198 42 198 20 229 c 0,77,78
 0 260 0 260 0 293 c 0,79,80
 0 333 0 333 27 366 c 0,81,82
 55 400 55 400 100 419 c 0,83,31
 148 439 148 439 201 439 c 128,-1,32
436 105 m 1,84,85
 438 100 438 100 442 92 c 0,86,87
 444 87 444 87 449 81 c 0,88,89
 453 77 453 77 455 73 c 0,90,91
 456 72 456 72 457 70.5 c 128,-1,92
 458 69 458 69 459.5 67.5 c 128,-1,93
 461 66 461 66 463 65 c 0,94,95
 464 64 464 64 465.5 62 c 128,-1,96
 467 60 467 60 468 59 c 128,-1,97
 469 58 469 58 469 57 c 1,98,99
 470 57 470 57 471 56 c 2,100,-1
 472 55 l 2,101,102
 472 54 472 54 472.5 54 c 128,-1,103
 473 54 473 54 473 53 c 2,104,-1
 474 52 l 1,105,-1
 475 50 l 1,106,-1
 475 49 l 2,107,108
 476 47 476 47 475 47 c 1,109,-1
 475 45 l 2,110,111
 475 41 475 41 471 39 c 0,112,113
 469 35 469 35 465 37 c 0,114,115
 447 39 447 39 441 41 c 0,116,117
 396 53 396 53 361 78 c 1,118,119
 333 73 333 73 311 73 c 0,120,121
 234 73 234 73 176 111 c 1,122,123
 187 110 187 110 201 110 c 0,124,125
 249 110 249 110 289 123 c 0,126,127
 332 135 332 135 365 159 c 0,128,129
 401 186 401 186 420 220 c 0,130,131
 439 256 439 256 439 293 c 0,132,133
 439 316 439 316 432 336 c 1,134,135
 470 315 470 315 491 285 c 128,-1,136
 512 255 512 255 512 219 c 0,137,138
 512 186 512 186 492 155 c 0,139,140
 471 126 471 126 436 105 c 1,84,85
EndSplineSet
Validated: 513
EndChar

StartChar: envelope
Encoding: 57411 57411 68
Width: 512
GlyphClass: 2
Flags: W
LayerCount: 2
Fore
SplineSet
512 309 m 1,0,-1
 512 82 l 2,1,2
 512 63 512 63 499 50 c 128,-1,3
 486 37 486 37 466 37 c 2,4,-1
 46 37 l 2,5,6
 26 37 26 37 13 50 c 128,-1,7
 0 63 0 63 0 82 c 2,8,-1
 0 309 l 1,9,10
 10 298 10 298 29 284 c 0,11,12
 145 205 145 205 171 186 c 0,13,14
 175 183 175 183 181 178.5 c 128,-1,15
 187 174 187 174 190.5 171.5 c 128,-1,16
 194 169 194 169 197 167 c 0,17,18
 212 159 212 159 224 153 c 0,19,20
 245 146 245 146 256 146 c 128,-1,21
 267 146 267 146 288 153 c 0,22,23
 300 159 300 159 315 167 c 0,24,25
 318 169 318 169 321.5 171.5 c 128,-1,26
 325 174 325 174 331 178.5 c 128,-1,27
 337 183 337 183 341 186 c 0,28,29
 433 250 433 250 483 284 c 0,30,31
 502 298 502 298 512 309 c 1,0,-1
512 393 m 0,32,33
 512 372 512 372 498 350 c 0,34,35
 486 332 486 332 463 315 c 0,36,37
 365 246 365 246 329 222 c 1,38,-1
 327 220 l 2,39,40
 325 219 325 219 322.5 217 c 128,-1,41
 320 215 320 215 317 213 c 128,-1,42
 314 211 314 211 302 202 c 0,43,44
 296 199 296 199 287 193 c 2,45,-1
 271 185 l 2,46,47
 259 183 259 183 256 183 c 128,-1,48
 253 183 253 183 241 185 c 0,49,50
 239 186 239 186 237 187 c 128,-1,51
 235 188 235 188 233.5 188.5 c 128,-1,52
 232 189 232 189 229.5 190.5 c 128,-1,53
 227 192 227 192 225 193 c 0,54,55
 216 199 216 199 210 202 c 0,56,57
 198 211 198 211 195 213 c 128,-1,58
 192 215 192 215 189.5 217 c 128,-1,59
 187 219 187 219 185 220 c 2,60,-1
 183 222 l 2,61,62
 173 228 173 228 147.5 246 c 128,-1,63
 122 264 122 264 108 274 c 0,64,65
 94 283 94 283 80 293 c 128,-1,66
 66 303 66 303 59 308 c 128,-1,67
 52 313 52 313 49 315 c 0,68,69
 31 327 31 327 16 348 c 0,70,71
 0 368 0 368 0 387 c 0,72,73
 0 409 0 409 12 424 c 128,-1,74
 24 439 24 439 46 439 c 2,75,-1
 466 439 l 2,76,77
 484 439 484 439 498 425 c 128,-1,78
 512 411 512 411 512 393 c 0,32,33
EndSplineSet
Validated: 513
EndChar

StartChar: group
Encoding: 57412 57412 69
Width: 512
GlyphClass: 2
Flags: W
LayerCount: 2
Fore
SplineSet
426 222 m 5,0,-1
 480 222 l 29,1,-1
 480 86 l 29,2,-1
 442 86 l 5,3,-1
 444 102 l 4,4,5
 444 102 444 102 441 172 c 4,6,7
 441 172 441 172 436 199 c 4,8,-1
 426 222 l 5,0,-1
88 222 m 1,9,-1
 34 222 l 25,10,-1
 34 86 l 25,11,-1
 72 86 l 1,12,-1
 70 102 l 0,13,14
 70 102 70 102 73 172 c 0,15,16
 73 172 73 172 78 199 c 0,17,-1
 88 222 l 1,9,-1
358.349609375 262.28515625 m 1,18,19
 399 262 399 262 417.650390625 222.794921875 c 1,20,-1
 451.799804688 222.794921875 l 2,21,22
 486 223 486 223 498.080078125 232.584960938 c 0,23,24
 511.319216656 243.257327713 511.319216656 243.257327713 511.4296875 263.174804688 c 0,25,26
 512 364 512 364 473.049804688 363.745117188 c 0,27,28
 473 364 473 364 469.071289062 357.727539062 c 0,29,30
 459 342 459 342 439.33984375 336.155273438 c 0,31,32
 425 332 425 332 411.75 331.705078125 c 0,33,34
 393 332 393 332 373.259765625 339.594726562 c 1,35,36
 374 333 374 333 374.150390625 316.575195312 c 0,37,38
 374 286 374 286 358.349609375 262.28515625 c 1,18,19
357.045898438 404.427734375 m 0,39,40
 357 381 357 381 374.385742188 365.315429688 c 0,41,42
 391 350 391 350 413.063476562 349.760742188 c 0,43,44
 438 350 438 350 452.018554688 365.154296875 c 0,45,46
 466 380 466 380 465.563476562 402.313476562 c 0,47,48
 466 427 466 427 449.362304688 442.795898438 c 0,49,50
 434 458 434 458 411.434570312 458.279296875 c 0,51,52
 389 458 389 458 372.79296875 442.341796875 c 0,53,54
 357 427 357 427 357.045898438 404.427734375 c 0,39,40
155.650390625 263.065429688 m 1,55,56
 118 262 118 262 93.349609375 222.575195312 c 1,57,-1
 62.2001953125 222.575195312 l 2,58,59
 35 223 35 223 15.919921875 232.365234375 c 0,60,61
 3.05429622119 239.233881466 3.05429622119 239.233881466 2.5703125 259.955078125 c 0,62,63
 0 364 0 364 39.9501953125 364.525390625 c 0,64,65
 40 365 40 365 43.9287109375 358.5078125 c 0,66,67
 53 339 53 339 89 334 c 0,68,69
 101 332 101 332 102.25 332.485351562 c 0,70,71
 118 334 118 334 144 344 c 1,72,73
 143 334 143 334 141.849609375 323.35546875 c 0,74,75
 139 291 139 291 155.650390625 263.065429688 c 1,55,56
423.540039062 104.64453125 m 0,76,77
 423.540039062 76.1650390625 423.540039062 76.1650390625 405.740234375 60.14453125 c 0,78,79
 388.830078125 43.2353515625 388.830078125 43.2353515625 360.349609375 43.2353515625 c 2,80,-1
 152.08984375 43.2353515625 l 2,81,82
 123.610351562 43.2353515625 123.610351562 43.2353515625 106.700195312 60.14453125 c 0,83,84
 88.900390625 76.1650390625 88.900390625 76.1650390625 88.900390625 104.64453125 c 0,85,86
 88.900390625 109.094726562 88.900390625 109.094726562 89.3447265625 117.549804688 c 128,-1,87
 89.7900390625 126.004882812 89.7900390625 126.004882812 89.7900390625 129.565429688 c 0,88,89
 91.5703125 145.584960938 91.5703125 145.584960938 93.349609375 155.375 c 0,90,91
 96.91015625 173.174804688 96.91015625 173.174804688 99.580078125 181.184570312 c 0,92,93
 101.360351562 185.634765625 101.360351562 185.634765625 109.370117188 204.325195312 c 0,94,95
 115.599609375 214.115234375 115.599609375 214.115234375 124.5 223.014648438 c 0,96,97
 132.509765625 231.025390625 132.509765625 231.025390625 144.969726562 236.365234375 c 0,98,99
 158.3203125 240.815429688 158.3203125 240.815429688 171.669921875 240.815429688 c 0,100,101
 173.450195312 240.815429688 173.450195312 240.815429688 181.459960938 235.474609375 c 0,102,103
 192.139648438 228.35546875 192.139648438 228.35546875 198.370117188 223.905273438 c 0,104,105
 215.280273438 215.004882812 215.280273438 215.004882812 224.1796875 213.224609375 c 0,106,107
 240.200195312 207.884765625 240.200195312 207.884765625 256.219726562 207.884765625 c 128,-1,108
 272.240234375 207.884765625 272.240234375 207.884765625 288.259765625 213.224609375 c 0,109,110
 297.16015625 215.004882812 297.16015625 215.004882812 314.0703125 223.905273438 c 0,111,112
 320.299804688 228.35546875 320.299804688 228.35546875 330.98046875 235.474609375 c 0,113,114
 338.990234375 240.815429688 338.990234375 240.815429688 340.76953125 240.815429688 c 0,115,116
 354.120117188 240.815429688 354.120117188 240.815429688 367.469726562 236.365234375 c 0,117,118
 379.9296875 231.025390625 379.9296875 231.025390625 387.940429688 223.014648438 c 0,119,120
 396.83984375 214.115234375 396.83984375 214.115234375 403.0703125 204.325195312 c 0,121,122
 411.080078125 185.634765625 411.080078125 185.634765625 412.860351562 181.184570312 c 0,123,124
 415.530273438 173.174804688 415.530273438 173.174804688 419.08984375 155.375 c 0,125,126
 420.870117188 145.584960938 420.870117188 145.584960938 422.650390625 129.565429688 c 0,127,128
 422.650390625 126.004882812 422.650390625 126.004882812 423.094726562 117.549804688 c 128,-1,129
 423.540039062 109.094726562 423.540039062 109.094726562 423.540039062 104.64453125 c 0,76,77
153.954101562 404.208007812 m 0,130,131
 154 381 154 381 136.614257812 365.094726562 c 0,132,133
 120 350 120 350 97.9365234375 349.541015625 c 0,134,135
 73 350 73 350 58.9814453125 364.934570312 c 128,-1,136
 45 380 45 380 45.4365234375 402.09375 c 0,137,138
 45 426 45 426 61.63671875 442.575195312 c 0,139,140
 77 458 77 458 99.5654296875 458.05859375 c 128,-1,141
 122 458 122 458 138.20703125 442.122070312 c 0,142,143
 154 426 154 426 153.954101562 404.208007812 c 0,130,131
347 316.46484375 m 0,144,145
 347 279.084960938 347 279.084960938 320.299804688 252.384765625 c 128,-1,146
 293.599609375 225.684570312 293.599609375 225.684570312 256.219726562 225.684570312 c 128,-1,147
 218.83984375 225.684570312 218.83984375 225.684570312 192.139648438 252.384765625 c 128,-1,148
 165.440429688 279.084960938 165.440429688 279.084960938 165.440429688 316.46484375 c 0,149,150
 165.440429688 354.735351562 165.440429688 354.735351562 192.139648438 381.434570312 c 128,-1,151
 218.83984375 408.134765625 218.83984375 408.134765625 256.219726562 408.134765625 c 128,-1,152
 293.599609375 408.134765625 293.599609375 408.134765625 320.299804688 381.434570312 c 128,-1,153
 347 354.735351562 347 354.735351562 347 316.46484375 c 0,144,145
EndSplineSet
EndChar

StartChar: trophy
Encoding: 57413 57413 70
Width: 512
GlyphClass: 2
Flags: W
LayerCount: 2
Fore
SplineSet
149 260 m 1,0,1
 128 307 128 307 128 366 c 1,2,-1
 55 366 l 1,3,-1
 55 338 l 2,4,5
 55 316 55 316 82 292 c 0,6,7
 110 267 110 267 149 260 c 1,0,1
457 338 m 2,8,-1
 457 366 l 1,9,-1
 384 366 l 1,10,11
 384 307 384 307 363 260 c 1,12,13
 402 267 402 267 430 292 c 0,14,15
 457 316 457 316 457 338 c 2,8,-1
494 375 m 2,16,-1
 494 338 l 2,17,18
 494 318 494 318 482 297 c 0,19,20
 469 276 469 276 450 260 c 0,21,22
 429 244 429 244 400 232 c 0,23,24
 372 222 372 222 339 220 c 1,25,26
 327 204 327 204 312 193 c 0,27,28
 300 182 300 182 297 172 c 0,29,30
 293 163 293 163 293 146 c 128,-1,31
 293 129 293 129 301 120 c 0,32,33
 310 110 310 110 329 110 c 0,34,35
 349 110 349 110 367 97 c 0,36,37
 384 83 384 83 384 64 c 2,38,-1
 384 46 l 2,39,40
 384 42 384 42 381 39 c 0,41,42
 380 37 380 37 375 37 c 2,43,-1
 137 37 l 2,44,45
 132 37 132 37 131 39 c 0,46,47
 128 42 128 42 128 46 c 2,48,-1
 128 64 l 2,49,50
 128 83 128 83 145 97 c 0,51,52
 163 110 163 110 183 110 c 0,53,54
 202 110 202 110 211 120 c 0,55,56
 219 129 219 129 219 146 c 128,-1,57
 219 163 219 163 215 172 c 0,58,59
 212 182 212 182 200 193 c 0,60,61
 185 204 185 204 173 220 c 1,62,63
 140 222 140 222 112 232 c 0,64,65
 83 244 83 244 62 260 c 0,66,67
 43 276 43 276 30 297 c 0,68,69
 18 318 18 318 18 338 c 2,70,-1
 18 375 l 2,71,72
 18 386 18 386 26 394 c 128,-1,73
 34 402 34 402 46 402 c 2,74,-1
 128 402 l 1,75,-1
 128 430 l 2,76,77
 128 449 128 449 141 462 c 128,-1,78
 154 475 154 475 174 475 c 2,79,-1
 338 475 l 2,80,81
 358 475 358 475 371 462 c 128,-1,82
 384 449 384 449 384 430 c 2,83,-1
 384 402 l 1,84,-1
 466 402 l 2,85,86
 478 402 478 402 486 394 c 128,-1,87
 494 386 494 386 494 375 c 2,16,-1
EndSplineSet
Validated: 513
EndChar

StartChar: thumbs-up
Encoding: 57414 57414 71
Width: 512
GlyphClass: 2
Flags: W
LayerCount: 2
Fore
SplineSet
110 128 m 128,-1,1
 110 135 110 135 104 141 c 0,2,3
 99 146 99 146 91 146 c 0,4,5
 84 146 84 146 79 141 c 0,6,7
 73 135 73 135 73 128 c 128,-1,8
 73 121 73 121 79 115 c 0,9,10
 84 110 84 110 91 110 c 0,11,12
 99 110 99 110 104 115 c 0,13,0
 110 121 110 121 110 128 c 128,-1,1
439 293 m 0,14,15
 439 307 439 307 428 318 c 0,16,17
 415 329 415 329 402 329 c 2,18,-1
 302 329 l 1,19,20
 302 346 302 346 315 375 c 0,21,22
 329 402 329 402 329 421 c 0,23,24
 329 448 329 448 320 462 c 0,25,26
 311 475 311 475 283 475 c 1,27,28
 276 468 276 468 273 451 c 0,29,30
 268 434 268 434 264 415 c 0,31,32
 257 394 257 394 247 384 c 0,33,34
 238 375 238 375 225 358 c 1,35,-1
 224 356 l 2,36,37
 223 355 223 355 221.5 353 c 128,-1,38
 220 351 220 351 218 349 c 0,39,40
 212 341 212 341 209 338 c 0,41,42
 205 332 205 332 199 326 c 0,43,44
 191 316 191 316 188 313 c 0,45,46
 181 306 181 306 177 303 c 0,47,48
 175 301 175 301 166 295 c 0,49,50
 162 293 162 293 155 293 c 2,51,-1
 146 293 l 1,52,-1
 146 110 l 1,53,-1
 155 110 l 2,54,55
 156 110 156 110 159 109.5 c 128,-1,56
 162 109 162 109 164 109 c 128,-1,57
 166 109 166 109 169 108.5 c 128,-1,58
 172 108 172 108 174 107 c 0,59,60
 180 105 180 105 185 104 c 0,61,62
 191 101 191 101 195 101 c 2,63,-1
 205 97 l 2,64,65
 211 94 211 94 213 94 c 0,66,67
 273 73 273 73 311 73 c 2,68,-1
 345 73 l 2,69,70
 400 73 400 73 400 121 c 0,71,72
 400 131 400 131 399 137 c 1,73,74
 407 141 407 141 412 152 c 0,75,76
 417 161 417 161 417 173 c 0,77,78
 417 184 417 184 412 193 c 1,79,80
 427 206 427 206 427 227 c 0,81,82
 427 232 427 232 425 242 c 0,83,84
 422 251 422 251 417 256 c 1,85,86
 426 256 426 256 433 269 c 0,87,88
 439 282 439 282 439 293 c 0,14,15
475 293 m 0,89,90
 475 266 475 266 461 246 c 1,91,92
 464 237 464 237 464 227 c 0,93,94
 464 205 464 205 453 185 c 0,95,96
 454 181 454 181 454 173 c 0,97,98
 454 145 454 145 437 122 c 1,99,100
 437 82 437 82 413 60 c 0,101,102
 389 37 389 37 348 37 c 2,103,-1
 311 37 l 2,104,105
 284 37 284 37 257 43 c 0,106,107
 237 48 237 48 195 62 c 0,108,109
 160 73 160 73 155 73 c 2,110,-1
 73 73 l 2,111,112
 58 73 58 73 47 84 c 0,113,114
 37 94 37 94 37 110 c 2,115,-1
 37 293 l 2,116,117
 37 308 37 308 47 318 c 0,118,119
 57 329 57 329 73 329 c 2,120,-1
 151 329 l 1,121,122
 162 337 162 337 191 373 c 0,123,124
 206 393 206 393 221 410 c 0,125,126
 228 417 228 417 231 434 c 128,-1,127
 234 451 234 451 240 471 c 0,128,129
 246 489 246 489 258 501 c 0,130,131
 269 512 269 512 283 512 c 0,132,133
 308 512 308 512 327 503 c 0,134,135
 345 494 345 494 356 474 c 0,136,137
 366 452 366 452 366 421 c 0,138,139
 366 396 366 396 352 366 c 1,140,-1
 402 366 l 2,141,142
 430 366 430 366 454 344 c 0,143,144
 475 323 475 323 475 293 c 0,89,90
EndSplineSet
Validated: 513
EndChar

StartChar: back
Encoding: 57415 57415 72
Width: 512
GlyphClass: 2
Flags: W
LayerCount: 2
Fore
SplineSet
512 192 m 0,0,1
 512 144 512 144 476 63 c 0,2,3
 474 61 474 61 473 56 c 2,4,-1
 469 48 l 2,5,6
 469 47 469 47 468 45.5 c 128,-1,7
 467 44 467 44 466 43 c 128,-1,8
 465 42 465 42 465 41 c 0,9,10
 462 37 462 37 457 37 c 0,11,12
 454 37 454 37 450 39 c 0,13,14
 448 43 448 43 448 47 c 128,-1,15
 448 51 448 51 449 54 c 2,16,-1
 449 61 l 2,17,18
 451 87 451 87 451 96 c 0,19,20
 451 121 451 121 446 148 c 0,21,22
 442 169 442 169 432 187 c 0,23,24
 423 204 423 204 409 216 c 0,25,26
 394 229 394 229 379 236 c 0,27,28
 362 244 362 244 341 248 c 0,29,30
 318 253 318 253 297 254 c 0,31,32
 267 256 267 256 247 256 c 2,33,-1
 183 256 l 1,34,-1
 183 183 l 2,35,36
 183 176 183 176 177 170 c 0,37,38
 173 165 173 165 165 165 c 0,39,40
 156 165 156 165 152 170 c 2,41,-1
 5 316 l 2,42,43
 0 323 0 323 0 329 c 128,-1,44
 0 335 0 335 5 342 c 2,45,-1
 152 488 l 2,46,47
 156 494 156 494 165 494 c 0,48,49
 172 494 172 494 177 488 c 0,50,51
 183 484 183 484 183 475 c 2,52,-1
 183 402 l 1,53,-1
 247 402 l 2,54,55
 451 402 451 402 497 287 c 0,56,57
 512 249 512 249 512 192 c 0,0,1
EndSplineSet
Validated: 513
EndChar

StartChar: caution-circle
Encoding: 57416 57416 73
Width: 512
GlyphClass: 2
Flags: W
LayerCount: 2
Fore
SplineSet
256 475 m 128,-1,1
 318 475 318 475 366 446 c 0,2,3
 416 416 416 416 446 366 c 0,4,5
 475 318 475 318 475 256 c 128,-1,6
 475 194 475 194 446 146 c 0,7,8
 416 96 416 96 366 66 c 0,9,10
 318 37 318 37 256 37 c 128,-1,11
 194 37 194 37 146 66 c 0,12,13
 96 96 96 96 66 146 c 0,14,15
 37 194 37 194 37 256 c 128,-1,16
 37 318 37 318 66 366 c 0,17,18
 96 416 96 416 146 446 c 0,19,0
 194 475 194 475 256 475 c 128,-1,1
293 119 m 2,20,-1
 293 173 l 2,21,22
 293 177 293 177 290 180 c 128,-1,23
 287 183 287 183 284 183 c 2,24,-1
 229 183 l 2,25,26
 225 183 225 183 222 180 c 128,-1,27
 219 177 219 177 219 173 c 2,28,-1
 219 119 l 2,29,30
 219 114 219 114 222 113 c 0,31,32
 225 110 225 110 229 110 c 2,33,-1
 284 110 l 2,34,35
 286 110 286 110 290 112 c 0,36,37
 293 115 293 115 293 119 c 2,20,-1
292 217 m 2,38,-1
 297 395 l 2,39,40
 297 398 297 398 294 400 c 0,41,42
 292 402 292 402 287 402 c 2,43,-1
 225 402 l 2,44,45
 220 402 220 402 218 400 c 0,46,47
 215 398 215 398 215 395 c 2,48,-1
 220 217 l 2,49,50
 220 215 220 215 223 212 c 0,51,52
 225 210 225 210 229 210 c 2,53,-1
 282 210 l 2,54,55
 285 210 285 210 289 212 c 0,56,57
 292 215 292 215 292 217 c 2,38,-1
EndSplineSet
Validated: 513
EndChar

StartChar: not-allowed
Encoding: 57417 57417 74
Width: 512
GlyphClass: 2
Flags: W
LayerCount: 2
Fore
SplineSet
411 257 m 0,0,1
 411 304 411 304 387 341 c 1,2,-1
 171 126 l 1,3,4
 209 101 209 101 256 101 c 0,5,6
 288 101 288 101 316 113 c 0,7,8
 344 124 344 124 366 146 c 0,9,10
 387 167 387 167 399 196 c 128,-1,11
 411 225 411 225 411 257 c 0,0,1
126 171 m 1,12,-1
 342 387 l 1,13,14
 302 413 302 413 256 413 c 0,15,16
 214 413 214 413 178 392 c 128,-1,17
 142 371 142 371 121 335 c 0,18,19
 101 298 101 298 101 257 c 0,20,21
 101 211 101 211 126 171 c 1,12,-1
475 257 m 0,22,23
 475 209 475 209 458 171 c 0,24,25
 438 127 438 127 411 101 c 0,26,27
 385 74 385 74 341 54 c 0,28,29
 303 37 303 37 256 37 c 128,-1,30
 209 37 209 37 171 54 c 0,31,32
 127 74 127 74 101 101 c 0,33,34
 74 127 74 127 54 171 c 0,35,36
 37 209 37 209 37 257 c 0,37,38
 37 304 37 304 54 342 c 0,39,40
 72 384 72 384 101 413 c 0,41,42
 131 443 131 443 171 459 c 0,43,44
 212 477 212 477 256 477 c 128,-1,45
 300 477 300 477 341 459 c 0,46,47
 382 443 382 443 411 413 c 0,48,49
 440 384 440 384 458 342 c 0,50,51
 475 304 475 304 475 257 c 0,22,23
EndSplineSet
Validated: 513
EndChar

StartChar: random-color
Encoding: 57418 57418 75
Width: 512
GlyphClass: 2
Flags: W
LayerCount: 2
Fore
SplineSet
256 101 m 1,0,-1
 256 411 l 1,1,2
 215 411 215 411 178 391 c 0,3,4
 142 370 142 370 121 334 c 0,5,6
 101 297 101 297 101 256 c 128,-1,7
 101 215 101 215 121 178 c 0,8,9
 142 142 142 142 178 121 c 0,10,11
 215 101 215 101 256 101 c 1,0,-1
475 256 m 128,-1,13
 475 194 475 194 446 146 c 0,14,15
 416 96 416 96 366 66 c 0,16,17
 318 37 318 37 256 37 c 128,-1,18
 194 37 194 37 146 66 c 0,19,20
 96 96 96 96 66 146 c 0,21,22
 37 194 37 194 37 256 c 128,-1,23
 37 318 37 318 66 366 c 0,24,25
 96 416 96 416 146 446 c 0,26,27
 194 475 194 475 256 475 c 128,-1,28
 318 475 318 475 366 446 c 0,29,30
 416 416 416 416 446 366 c 0,31,12
 475 318 475 318 475 256 c 128,-1,13
EndSplineSet
Validated: 513
EndChar

StartChar: pencil
Encoding: 57419 57419 76
Width: 512
GlyphClass: 2
Flags: W
LayerCount: 2
Fore
SplineSet
140 73 m 1,0,-1
 166 99 l 1,1,-1
 99 166 l 1,2,-1
 73 140 l 1,3,-1
 73 110 l 1,4,-1
 110 110 l 1,5,-1
 110 73 l 1,6,-1
 140 73 l 1,0,-1
290 338 m 0,7,8
 290 345 290 345 283 345 c 0,9,10
 281 345 281 345 279 343 c 2,11,-1
 124 188 l 2,12,13
 122 186 122 186 122 183 c 0,14,15
 122 177 122 177 128 177 c 0,16,17
 132 177 132 177 133 179 c 2,18,-1
 288 333 l 2,19,20
 290 337 290 337 290 338 c 0,7,8
274 393 m 1,21,-1
 393 274 l 1,22,-1
 155 37 l 1,23,-1
 37 37 l 1,24,-1
 37 155 l 1,25,-1
 274 393 l 1,21,-1
469 366 m 0,26,27
 469 350 469 350 459 340 c 2,28,-1
 411 293 l 1,29,-1
 293 411 l 1,30,-1
 340 459 l 2,31,32
 350 469 350 469 366 469 c 0,33,34
 381 469 381 469 392 459 c 2,35,-1
 459 392 l 2,36,37
 469 381 469 381 469 366 c 0,26,27
EndSplineSet
Validated: 513
EndChar

StartChar: cogs
Encoding: 57420 57420 77
Width: 512
GlyphClass: 2
Flags: W
LayerCount: 2
Fore
SplineSet
238 256 m 128,-1,1
 238 286 238 286 216 308 c 0,2,3
 195 329 195 329 165 329 c 0,4,5
 134 329 134 329 113 308 c 0,6,7
 91 284 91 284 91 256 c 128,-1,8
 91 228 91 228 113 204 c 0,9,10
 134 183 134 183 165 183 c 0,11,12
 195 183 195 183 216 204 c 0,13,0
 238 226 238 226 238 256 c 128,-1,1
457 110 m 0,14,15
 457 125 457 125 446 135 c 0,16,17
 436 146 436 146 421 146 c 0,18,19
 405 146 405 146 395 135 c 0,20,21
 384 124 384 124 384 110 c 0,22,23
 384 95 384 95 395 84 c 128,-1,24
 406 73 406 73 421 73 c 0,25,26
 435 73 435 73 446 84 c 0,27,28
 457 94 457 94 457 110 c 0,14,15
457 402 m 0,29,30
 457 418 457 418 446 428 c 0,31,32
 435 439 435 439 421 439 c 0,33,34
 406 439 406 439 395 428 c 128,-1,35
 384 417 384 417 384 402 c 0,36,37
 384 389 384 389 395 376 c 0,38,39
 405 366 405 366 421 366 c 0,40,41
 436 366 436 366 446 376 c 0,42,43
 457 387 457 387 457 402 c 0,29,30
347 282 m 2,44,-1
 347 229 l 2,45,46
 347 225 347 225 345 224 c 0,47,48
 344 221 344 221 341 221 c 2,49,-1
 297 214 l 1,50,51
 291 200 291 200 287 192 c 1,52,53
 309 164 309 164 313 159 c 0,54,55
 315 155 315 155 315 153 c 0,56,57
 315 150 315 150 313 148 c 0,58,59
 311 145 311 145 290 122 c 0,60,61
 271 105 271 105 267 105 c 0,62,63
 265 105 265 105 261 107 c 2,64,-1
 228 133 l 1,65,66
 214 127 214 127 206 124 c 1,67,68
 203 93 203 93 200 80 c 0,69,70
 197 73 197 73 191 73 c 2,71,-1
 138 73 l 2,72,73
 136 73 136 73 132 75 c 0,74,75
 132 76 132 76 131 77.5 c 128,-1,76
 130 79 130 79 129 80 c 2,77,-1
 123 124 l 1,78,79
 114 127 114 127 101 133 c 1,80,-1
 68 107 l 2,81,82
 64 105 64 105 62 105 c 0,83,84
 59 105 59 105 56 108 c 0,85,86
 15 146 15 146 15 153 c 0,87,88
 15 155 15 155 17 159 c 0,89,90
 20 164 20 164 29 174 c 0,91,92
 32 178 32 178 37 184 c 128,-1,93
 42 190 42 190 42 191 c 0,94,95
 33 211 33 211 32 215 c 2,96,-1
 -11 222 l 2,97,98
 -14 222 -14 222 -16 224 c 128,-1,99
 -18 226 -18 226 -18 230 c 2,100,-1
 -18 283 l 2,101,102
 -18 287 -18 287 -16 288 c 0,103,104
 -14 291 -14 291 -12 291 c 2,105,-1
 33 298 l 1,106,107
 36 307 36 307 42 320 c 1,108,109
 20 348 20 348 16 353 c 0,110,111
 14 357 14 357 14 359 c 0,112,113
 14 362 14 362 16 364 c 0,114,115
 18 367 18 367 39 390 c 0,116,117
 58 407 58 407 62 407 c 0,118,119
 64 407 64 407 68 405 c 2,120,-1
 101 379 l 1,121,122
 107 382 107 382 123 388 c 1,123,124
 126 418 126 418 129 432 c 0,125,126
 132 439 132 439 138 439 c 2,127,-1
 191 439 l 2,128,129
 193 439 193 439 197 437 c 0,130,131
 200 434 200 434 200 432 c 2,132,-1
 206 388 l 1,133,134
 215 385 215 385 228 379 c 1,135,-1
 261 405 l 2,136,137
 265 407 265 407 267 407 c 0,138,139
 270 407 270 407 273 404 c 0,140,141
 314 367 314 367 314 359 c 0,142,143
 314 355 314 355 312 353 c 0,144,145
 309 348 309 348 300 338 c 0,146,147
 298 334 298 334 295.5 331 c 128,-1,148
 293 328 293 328 290.5 325 c 128,-1,149
 288 322 288 322 287 321 c 0,150,151
 294 306 294 306 297 297 c 1,152,-1
 341 291 l 2,153,154
 342 290 342 290 343 289 c 128,-1,155
 344 288 344 288 345 288 c 0,156,157
 347 286 347 286 347 282 c 2,44,-1
530 130 m 2,158,-1
 530 90 l 2,159,160
 530 86 530 86 488 81 c 0,161,162
 487 79 487 79 485.5 76 c 128,-1,163
 484 73 484 73 482.5 70.5 c 128,-1,164
 481 68 481 68 479 66 c 0,165,166
 494 33 494 33 494 27 c 2,167,-1
 493 25 l 1,168,-1
 457 4 l 2,169,170
 455 4 455 4 444 18 c 0,171,172
 440 22 440 22 435.5 28.5 c 128,-1,173
 431 35 431 35 429 37 c 2,174,-1
 421 37 l 1,175,-1
 412 37 l 2,176,177
 410 35 410 35 405 28.5 c 128,-1,178
 400 22 400 22 397 18 c 0,179,180
 386 4 386 4 384 4 c 0,181,182
 372 11 372 11 349 25 c 0,183,184
 347 25 347 25 347 27 c 0,185,186
 347 33 347 33 362 66 c 1,187,-1
 353 81 l 1,188,189
 311 86 311 86 311 90 c 2,190,-1
 311 130 l 2,191,192
 311 134 311 134 353 139 c 1,193,194
 359 149 359 149 362 153 c 1,195,196
 347 186 347 186 347 193 c 1,197,-1
 349 195 l 2,198,199
 353 197 353 197 359 201 c 0,200,201
 362 203 362 203 367.5 206 c 128,-1,202
 373 209 373 209 375 210 c 2,203,-1
 384 215 l 2,204,205
 386 215 386 215 397 202 c 0,206,207
 400 198 400 198 403 194 c 128,-1,208
 406 190 406 190 408.5 186.5 c 128,-1,209
 411 183 411 183 412 182 c 0,210,211
 416 183 416 183 421 183 c 0,212,213
 425 183 425 183 429 182 c 0,214,215
 438 194 438 194 455 214 c 1,216,-1
 457 215 l 2,217,218
 458 215 458 215 493 195 c 0,219,220
 493 194 493 194 493.5 194 c 128,-1,221
 494 194 494 194 494 193 c 0,222,223
 494 186 494 186 479 153 c 1,224,225
 482 149 482 149 488 139 c 1,226,227
 530 134 530 134 530 130 c 2,158,-1
530 422 m 2,228,-1
 530 382 l 2,229,230
 530 378 530 378 488 373 c 1,231,232
 480 361 480 361 479 359 c 0,233,234
 494 326 494 326 494 319 c 0,235,236
 494 318 494 318 493.5 318 c 128,-1,237
 493 318 493 318 493 317 c 0,238,239
 488 314 488 314 483.5 311.5 c 128,-1,240
 479 309 479 309 475.5 307 c 128,-1,241
 472 305 472 305 469 303.5 c 128,-1,242
 466 302 466 302 464 301 c 128,-1,243
 462 300 462 300 460.5 299 c 128,-1,244
 459 298 459 298 458 298 c 2,245,-1
 457 297 l 2,246,247
 454 297 454 297 444 310 c 0,248,249
 441 314 441 314 438 318 c 128,-1,250
 435 322 435 322 432.5 325.5 c 128,-1,251
 430 329 430 329 429 330 c 0,252,253
 425 329 425 329 421 329 c 0,254,255
 416 329 416 329 412 330 c 0,256,257
 411 329 411 329 408.5 325.5 c 128,-1,258
 406 322 406 322 403 318 c 128,-1,259
 400 314 400 314 397 310 c 0,260,261
 387 297 387 297 384 297 c 0,262,263
 372 304 372 304 349 317 c 1,264,-1
 347 319 l 1,265,266
 347 326 347 326 362 359 c 1,267,268
 359 363 359 363 353 373 c 1,269,270
 311 378 311 378 311 382 c 2,271,-1
 311 422 l 2,272,273
 311 426 311 426 353 431 c 1,274,275
 358 440 358 440 362 446 c 1,276,277
 347 479 347 479 347 485 c 0,278,279
 347 487 347 487 349 487 c 1,280,281
 349 488 349 488 359 493 c 0,282,283
 361 495 361 495 375 503 c 2,284,-1
 384 507 l 2,285,286
 387 507 387 507 397 494 c 0,287,288
 400 490 400 490 405 483.5 c 128,-1,289
 410 477 410 477 412 475 c 2,290,-1
 421 475 l 1,291,-1
 429 475 l 1,292,293
 444 494 444 494 455 507 c 1,294,-1
 457 507 l 2,295,296
 460 507 460 507 493 487 c 0,297,298
 494 486 494 486 494 485 c 0,299,300
 494 479 494 479 479 446 c 1,301,302
 484 440 484 440 488 431 c 1,303,304
 530 426 530 426 530 422 c 2,228,-1
EndSplineSet
Validated: 1
EndChar

StartChar: tag
Encoding: 57421 57421 78
Width: 512
GlyphClass: 2
Flags: W
LayerCount: 2
Fore
SplineSet
224 450 m 1,0,-1
 96 450 l 1,1,-1
 32 386 l 1,2,-1
 32 258 l 1,3,-1
 288 2 l 1,4,-1
 480 194 l 1,5,-1
 224 450 l 1,0,-1
64 274 m 1,6,-1
 64 370 l 1,7,-1
 112 418 l 1,8,-1
 208 418 l 1,9,-1
 432 194 l 1,10,-1
 288 50 l 1,11,-1
 64 274 l 1,6,-1
256 322 m 1,12,-1
 160 226 l 1,13,-1
 288 98 l 1,14,-1
 384 194 l 1,15,-1
 256 322 l 1,12,-1
208 226 m 1,16,-1
 256 274 l 1,17,-1
 336 194 l 1,18,-1
 288 146 l 1,19,-1
 208 226 l 1,16,-1
192 338 m 128,-1,21
 192 358 192 358 178 372 c 128,-1,22
 164 386 164 386 144 386 c 128,-1,23
 124 386 124 386 110 372 c 128,-1,24
 96 358 96 358 96 338 c 128,-1,25
 96 318 96 318 110 304 c 128,-1,26
 124 290 124 290 144 290 c 128,-1,27
 164 290 164 290 178 304 c 128,-1,20
 192 318 192 318 192 338 c 128,-1,21
144 322 m 128,-1,29
 128 322 128 322 128 338 c 128,-1,30
 128 354 128 354 144 354 c 128,-1,31
 160 354 160 354 160 338 c 128,-1,28
 160 322 160 322 144 322 c 128,-1,29
EndSplineSet
Validated: 9
EndChar

StartChar: clock
Encoding: 57422 57422 79
Width: 512
GlyphClass: 2
Flags: W
LayerCount: 2
Fore
SplineSet
293 357 m 2,0,-1
 293 229 l 2,1,2
 293 225 293 225 290 222 c 128,-1,3
 287 219 287 219 283 219 c 2,4,-1
 192 219 l 2,5,6
 188 219 188 219 185 222 c 0,7,8
 183 226 183 226 183 229 c 2,9,-1
 183 247 l 2,10,11
 183 251 183 251 185 253 c 0,12,13
 188 256 188 256 192 256 c 2,14,-1
 256 256 l 1,15,-1
 256 357 l 2,16,17
 256 360 256 360 259 363 c 0,18,19
 260 366 260 366 265 366 c 2,20,-1
 283 366 l 2,21,22
 287 366 287 366 290 363 c 128,-1,23
 293 360 293 360 293 357 c 2,0,-1
411 256 m 128,-1,25
 411 297 411 297 391 334 c 0,26,27
 370 370 370 370 334 391 c 0,28,29
 297 411 297 411 256 411 c 128,-1,30
 215 411 215 411 178 391 c 0,31,32
 142 370 142 370 121 334 c 0,33,34
 101 297 101 297 101 256 c 128,-1,35
 101 215 101 215 121 178 c 0,36,37
 142 142 142 142 178 121 c 0,38,39
 215 101 215 101 256 101 c 128,-1,40
 297 101 297 101 334 121 c 0,41,42
 370 142 370 142 391 178 c 0,43,24
 411 215 411 215 411 256 c 128,-1,25
475 256 m 128,-1,45
 475 194 475 194 446 146 c 0,46,47
 416 96 416 96 366 66 c 0,48,49
 318 37 318 37 256 37 c 128,-1,50
 194 37 194 37 146 66 c 0,51,52
 96 96 96 96 66 146 c 0,53,54
 37 194 37 194 37 256 c 128,-1,55
 37 318 37 318 66 366 c 0,56,57
 96 416 96 416 146 446 c 0,58,59
 194 475 194 475 256 475 c 128,-1,60
 318 475 318 475 366 446 c 0,61,62
 416 416 416 416 446 366 c 0,63,44
 475 318 475 318 475 256 c 128,-1,45
EndSplineSet
Validated: 513
EndChar

StartChar: trash
Encoding: 57423 57423 80
Width: 512
GlyphClass: 2
Flags: W
LayerCount: 2
Fore
SplineSet
201 302 m 2,0,-1
 201 137 l 2,1,2
 201 133 201 133 199 131 c 0,3,4
 196 128 196 128 192 128 c 2,5,-1
 174 128 l 2,6,7
 170 128 170 128 167 131 c 0,8,9
 165 132 165 132 165 137 c 2,10,-1
 165 302 l 2,11,12
 165 307 165 307 167 308 c 0,13,14
 170 311 170 311 174 311 c 2,15,-1
 192 311 l 2,16,17
 196 311 196 311 199 308 c 0,18,19
 201 306 201 306 201 302 c 2,0,-1
274 302 m 2,20,-1
 274 137 l 2,21,22
 274 133 274 133 272 131 c 0,23,24
 269 128 269 128 265 128 c 2,25,-1
 247 128 l 2,26,27
 243 128 243 128 240 131 c 0,28,29
 238 133 238 133 238 137 c 2,30,-1
 238 302 l 2,31,32
 238 306 238 306 240 308 c 0,33,34
 243 311 243 311 247 311 c 2,35,-1
 265 311 l 2,36,37
 269 311 269 311 272 308 c 0,38,39
 274 306 274 306 274 302 c 2,20,-1
347 302 m 2,40,-1
 347 137 l 2,41,42
 347 132 347 132 345 131 c 0,43,44
 342 128 342 128 338 128 c 2,45,-1
 320 128 l 2,46,47
 316 128 316 128 313 131 c 0,48,49
 311 133 311 133 311 137 c 2,50,-1
 311 302 l 2,51,52
 311 306 311 306 313 308 c 0,53,54
 316 311 316 311 320 311 c 2,55,-1
 338 311 l 2,56,57
 342 311 342 311 345 308 c 0,58,59
 347 307 347 307 347 302 c 2,40,-1
384 95 m 2,60,-1
 384 366 l 1,61,-1
 128 366 l 1,62,-1
 128 95 l 2,63,64
 128 91 128 91 130 83 c 0,65,66
 132 78 132 78 134 76 c 2,67,-1
 137 73 l 1,68,-1
 375 73 l 1,69,-1
 378 76 l 2,70,71
 380 78 380 78 382 83 c 0,72,73
 384 91 384 91 384 95 c 2,60,-1
192 402 m 1,74,-1
 320 402 l 1,75,-1
 306 436 l 2,76,77
 305 437 305 437 301 439 c 2,78,-1
 211 439 l 2,79,80
 207 437 207 437 206 436 c 2,81,-1
 192 402 l 1,74,-1
457 393 m 2,82,-1
 457 375 l 2,83,84
 457 372 457 372 455 368 c 0,85,86
 451 366 451 366 448 366 c 2,87,-1
 421 366 l 1,88,-1
 421 95 l 2,89,90
 421 71 421 71 407 54 c 0,91,92
 394 37 394 37 375 37 c 2,93,-1
 137 37 l 2,94,95
 118 37 118 37 105 53 c 0,96,97
 91 70 91 70 91 94 c 2,98,-1
 91 366 l 1,99,-1
 64 366 l 2,100,101
 61 366 61 366 57 368 c 0,102,103
 55 372 55 372 55 375 c 2,104,-1
 55 393 l 2,105,106
 55 396 55 396 57 400 c 0,107,108
 61 402 61 402 64 402 c 2,109,-1
 152 402 l 1,110,-1
 172 450 l 2,111,112
 177 461 177 461 188 468 c 0,113,114
 198 475 198 475 210 475 c 2,115,-1
 302 475 l 2,116,117
 314 475 314 475 324 468 c 0,118,119
 335 461 335 461 340 450 c 2,120,-1
 360 402 l 1,121,-1
 448 402 l 2,122,123
 451 402 451 402 455 400 c 0,124,125
 457 396 457 396 457 393 c 2,82,-1
EndSplineSet
Validated: 513
EndChar

StartChar: user
Encoding: 57424 57424 81
Width: 512
GlyphClass: 2
Flags: W
LayerCount: 2
Fore
SplineSet
457 111 m 0,0,1
 457 77 457 77 436 56 c 0,2,3
 416 37 416 37 381 37 c 2,4,-1
 131 37 l 2,5,6
 96 37 96 37 76 56 c 0,7,8
 55 77 55 77 55 111 c 0,9,10
 55 131 55 131 56 140 c 0,11,12
 58 160 58 160 60 171 c 0,13,14
 64 193 64 193 67 202 c 0,15,16
 70 212 70 212 80 230 c 0,17,18
 88 244 88 244 97 253 c 0,19,20
 107 263 107 263 122 269 c 0,21,22
 137 274 137 274 154 274 c 0,23,24
 156 274 156 274 166 268 c 2,25,-1
 187 254 l 2,26,27
 198 247 198 247 218 241 c 128,-1,28
 238 235 238 235 256 235 c 128,-1,29
 274 235 274 235 294 241 c 128,-1,30
 314 247 314 247 325 254 c 2,31,-1
 346 268 l 2,32,33
 356 274 356 274 358 274 c 0,34,35
 375 274 375 274 390 269 c 0,36,37
 405 263 405 263 415 253 c 0,38,39
 424 244 424 244 432 230 c 0,40,41
 442 212 442 212 445 202 c 0,42,43
 448 193 448 193 452 171 c 0,44,45
 454 160 454 160 456 140 c 0,46,47
 457 131 457 131 457 111 c 0,0,1
366 366 m 0,48,49
 366 322 366 322 334 288 c 0,50,51
 300 256 300 256 256 256 c 128,-1,52
 212 256 212 256 178 288 c 0,53,54
 146 322 146 322 146 366 c 0,55,56
 146 411 146 411 178 443 c 128,-1,57
 210 475 210 475 256 475 c 128,-1,58
 302 475 302 475 334 443 c 128,-1,59
 366 411 366 411 366 366 c 0,48,49
EndSplineSet
Validated: 513
EndChar

StartChar: star-outline
Encoding: 57425 57425 82
Width: 512
GlyphClass: 2
Flags: W
LayerCount: 2
Fore
SplineSet
343 225 m 1,0,-1
 431 310 l 1,1,-1
 310 328 l 1,2,-1
 256 437 l 1,3,-1
 202 328 l 1,4,-1
 81 310 l 1,5,-1
 169 225 l 1,6,-1
 148 105 l 1,7,-1
 256 162 l 1,8,-1
 364 105 l 1,9,-1
 343 225 l 1,0,-1
494 327 m 0,10,11
 494 321 494 321 486 313 c 2,12,-1
 383 212 l 1,13,-1
 407 69 l 1,14,-1
 407 64 l 2,15,16
 407 49 407 49 396 49 c 0,17,18
 392 49 392 49 384 53 c 2,19,-1
 256 120 l 1,20,-1
 128 53 l 2,21,22
 120 49 120 49 116 49 c 0,23,24
 110 49 110 49 107 54 c 0,25,26
 104 57 104 57 104 64 c 0,27,28
 104 67 104 67 105 69 c 2,29,-1
 129 212 l 1,30,-1
 25 313 l 2,31,32
 18 324 18 324 18 327 c 0,33,34
 18 338 18 338 34 340 c 2,35,-1
 178 361 l 1,36,-1
 242 491 l 2,37,38
 248 503 248 503 256 503 c 128,-1,39
 264 503 264 503 270 491 c 2,40,-1
 334 361 l 1,41,-1
 478 340 l 2,42,43
 494 338 494 338 494 327 c 0,10,11
EndSplineSet
Validated: 513
EndChar

StartChar: star
Encoding: 57426 57426 83
Width: 512
GlyphClass: 2
Flags: W
LayerCount: 2
Fore
SplineSet
494 327 m 0,0,1
 494 321 494 321 486 313 c 2,2,-1
 383 212 l 1,3,-1
 407 69 l 1,4,-1
 407 64 l 2,5,6
 407 57 407 57 404 54 c 0,7,8
 401 49 401 49 396 49 c 0,9,10
 392 49 392 49 384 53 c 2,11,-1
 256 120 l 1,12,-1
 128 53 l 2,13,14
 120 49 120 49 116 49 c 0,15,16
 110 49 110 49 107 54 c 0,17,18
 104 57 104 57 104 64 c 0,19,20
 104 67 104 67 105 69 c 2,21,-1
 129 212 l 1,22,-1
 25 313 l 2,23,24
 18 324 18 324 18 327 c 0,25,26
 18 338 18 338 34 340 c 2,27,-1
 178 361 l 1,28,-1
 242 491 l 2,29,30
 248 503 248 503 256 503 c 128,-1,31
 264 503 264 503 270 491 c 2,32,-1
 334 361 l 1,33,-1
 478 340 l 2,34,35
 494 338 494 338 494 327 c 0,0,1
EndSplineSet
Validated: 513
EndChar

StartChar: more-triangle
Encoding: 57427 57427 84
Width: 512
GlyphClass: 2
Flags: W
LayerCount: 2
Fore
SplineSet
402 311 m 128,-1,1
 402 305 402 305 397 298 c 2,2,-1
 269 170 l 2,3,4
 264 165 264 165 256 165 c 128,-1,5
 248 165 248 165 243 170 c 2,6,-1
 115 298 l 2,7,8
 110 305 110 305 110 311 c 128,-1,9
 110 317 110 317 115 324 c 0,10,11
 122 329 122 329 128 329 c 2,12,-1
 384 329 l 2,13,14
 390 329 390 329 397 324 c 0,15,0
 402 317 402 317 402 311 c 128,-1,1
EndSplineSet
Validated: 513
EndChar

StartChar: eye
Encoding: 57428 57428 85
Width: 512
GlyphClass: 2
Flags: WO
LayerCount: 2
Fore
SplineSet
512 243 m 21,0,1
 256 -52 256 -52 0 239 c 24,2,-1
 0 259 l 4,3,4
 256 554 256 554 512 262.9375 c 24,5,-1
 512 243 l 21,0,1
  Spiro
    512 243 {
    256 94.5 o
    0 239 o
    0 259 o
    258 406.484 o
    512 262.938 o
    0 0 z
  EndSpiro
251 136 m 128,-1,7
 299 132 299 132 335.5 163 c 128,-1,8
 372 194 372 194 376 242 c 128,-1,9
 380 290 380 290 348.5 326.5 c 128,-1,10
 317 363 317 363 269 367 c 128,-1,11
 221 371 221 371 184.5 340 c 128,-1,12
 148 309 148 309 144 261 c 128,-1,13
 140 213 140 213 171.5 176.5 c 128,-1,6
 203 140 203 140 251 136 c 128,-1,7
  Spiro
    281.693 137.217 o
    309.916 146.235 o
    335.5 163 o
    356.205 185.531 o
    369.732 211.917 o
    376 242 o
    374.727 272.693 o
    365.542 300.916 o
    348.5 326.5 o
    325.691 347.205 o
    299.138 360.732 o
    269 367 o
    238.307 365.783 o
    210.084 356.765 o
    184.5 340 o
    163.795 317.469 o
    150.268 291.083 o
    144 261 o
    145.273 230.307 o
    154.458 202.084 o
    171.5 176.5 o
    194.309 155.795 o
    220.862 142.268 o
    251 136 o
    0 0 z
  EndSpiro
260 310 m 128,-1,15
 284 310 284 310 301 293 c 128,-1,16
 318 276 318 276 318 252 c 0,17,18
 318 227 318 227 301 210 c 128,-1,19
 284 193 284 193 260 193 c 128,-1,20
 236 193 236 193 219 210 c 128,-1,21
 202 227 202 227 202 252 c 0,22,23
 202 276 202 276 219 293 c 128,-1,14
 236 310 236 310 260 310 c 128,-1,15
  Spiro
    275.208 308.115 o
    288.902 302.437 o
    301 293 o
    310.437 280.902 o
    316.115 267.208 o
    318 252 o
    316.115 236.237 o
    310.437 222.209 o
    301 210 o
    288.902 200.563 o
    275.208 194.885 o
    260 193 o
    244.792 194.885 o
    231.098 200.563 o
    219 210 o
    209.563 222.209 o
    203.885 236.237 o
    202 252 o
    203.885 267.208 o
    209.563 280.902 o
    219 293 o
    231.098 302.437 o
    244.792 308.115 o
    260 310 o
    0 0 z
  EndSpiro
EndSplineSet
EndChar

StartChar: power
Encoding: 57429 57429 86
Width: 512
GlyphClass: 2
Flags: W
LayerCount: 2
Fore
SplineSet
475 256 m 0,0,1
 475 209 475 209 458 171 c 0,2,3
 438 127 438 127 411 101 c 0,4,5
 385 74 385 74 341 54 c 0,6,7
 303 37 303 37 256 37 c 128,-1,8
 209 37 209 37 171 54 c 0,9,10
 127 74 127 74 101 101 c 0,11,12
 74 127 74 127 54 171 c 0,13,14
 37 209 37 209 37 256 c 0,15,16
 37 309 37 309 60 354 c 0,17,18
 82 400 82 400 124 431 c 0,19,20
 137 441 137 441 152 438 c 0,21,22
 167 436 167 436 175 424 c 0,23,24
 185 412 185 412 182 397 c 0,25,26
 181 382 181 382 168 373 c 0,27,28
 139 350 139 350 125 321 c 0,29,30
 110 291 110 291 110 256 c 0,31,32
 110 227 110 227 121 199 c 0,33,34
 133 171 133 171 153 153 c 0,35,36
 171 133 171 133 199 121 c 0,37,38
 227 110 227 110 256 110 c 128,-1,39
 285 110 285 110 313 121 c 0,40,41
 341 133 341 133 359 153 c 0,42,43
 379 171 379 171 391 199 c 0,44,45
 402 227 402 227 402 256 c 0,46,47
 402 291 402 291 387 321 c 0,48,49
 373 350 373 350 344 373 c 0,50,51
 331 382 331 382 330 397 c 0,52,53
 327 412 327 412 337 424 c 0,54,55
 345 437 345 437 361 438 c 0,56,57
 375 441 375 441 388 431 c 0,58,59
 430 400 430 400 452 354 c 0,60,61
 475 309 475 309 475 256 c 0,0,1
293 475 m 2,62,-1
 293 293 l 2,63,64
 293 278 293 278 282 267 c 0,65,66
 269 256 269 256 256 256 c 128,-1,67
 243 256 243 256 230 267 c 0,68,69
 219 278 219 278 219 293 c 2,70,-1
 219 475 l 2,71,72
 219 490 219 490 230 501 c 0,73,74
 243 512 243 512 256 512 c 128,-1,75
 269 512 269 512 282 501 c 0,76,77
 293 490 293 490 293 475 c 2,62,-1
EndSplineSet
Validated: 545
EndChar

StartChar: download
Encoding: 57430 57430 87
Width: 512
GlyphClass: 2
Flags: W
LayerCount: 2
Fore
SplineSet
384 128 m 128,-1,1
 384 134 384 134 379 141 c 0,2,3
 372 146 372 146 366 146 c 0,4,5
 358 146 358 146 353 141 c 0,6,7
 347 135 347 135 347 128 c 128,-1,8
 347 121 347 121 353 115 c 0,9,10
 358 110 358 110 366 110 c 0,11,12
 372 110 372 110 379 115 c 0,13,0
 384 122 384 122 384 128 c 128,-1,1
457 128 m 128,-1,15
 457 134 457 134 452 141 c 0,16,17
 445 146 445 146 439 146 c 128,-1,18
 433 146 433 146 426 141 c 0,19,20
 421 136 421 136 421 128 c 128,-1,21
 421 120 421 120 426 115 c 0,22,23
 433 110 433 110 439 110 c 128,-1,24
 445 110 445 110 452 115 c 0,25,14
 457 122 457 122 457 128 c 128,-1,15
494 192 m 2,26,-1
 494 101 l 2,27,28
 494 89 494 89 486 81 c 0,29,30
 476 73 476 73 466 73 c 2,31,-1
 46 73 l 2,32,33
 36 73 36 73 26 81 c 0,34,35
 18 89 18 89 18 101 c 2,36,-1
 18 192 l 2,37,38
 18 203 18 203 26 211 c 128,-1,39
 34 219 34 219 46 219 c 2,40,-1
 179 219 l 1,41,-1
 217 181 l 2,42,43
 233 165 233 165 256 165 c 128,-1,44
 279 165 279 165 295 181 c 2,45,-1
 334 219 l 1,46,-1
 466 219 l 2,47,48
 478 219 478 219 486 211 c 128,-1,49
 494 203 494 203 494 192 c 2,26,-1
401 355 m 0,50,51
 406 342 406 342 397 335 c 2,52,-1
 269 207 l 2,53,54
 263 201 263 201 256 201 c 128,-1,55
 249 201 249 201 243 207 c 2,56,-1
 115 335 l 2,57,58
 106 342 106 342 111 355 c 0,59,60
 116 366 116 366 128 366 c 2,61,-1
 201 366 l 1,62,-1
 201 494 l 2,63,64
 201 501 201 501 207 507 c 0,65,66
 212 512 212 512 219 512 c 2,67,-1
 293 512 l 2,68,69
 300 512 300 512 305 507 c 0,70,71
 311 501 311 501 311 494 c 2,72,-1
 311 366 l 1,73,-1
 384 366 l 2,74,75
 396 366 396 366 401 355 c 0,50,51
EndSplineSet
Validated: 545
EndChar

StartChar: search
Encoding: 57431 57431 88
Width: 512
GlyphClass: 2
Flags: W
LayerCount: 2
Fore
SplineSet
363.8671875 297.895507812 m 0,0,1
 363.8671875 358.111328125 363.8671875 358.111328125 322.606445312 399.368164062 c 128,-1,2
 281.350585938 440.62890625 281.350585938 440.62890625 221.1328125 440.62890625 c 0,3,4
 162.033203125 440.62890625 162.033203125 440.62890625 120.7734375 399.368164062 c 0,5,6
 78.3994140625 356.995117188 78.3994140625 356.995117188 78.3994140625 297.895507812 c 0,7,8
 78.3994140625 239.911132812 78.3994140625 239.911132812 120.7734375 197.534179688 c 128,-1,9
 163.1484375 155.161132812 163.1484375 155.161132812 221.1328125 155.161132812 c 0,10,11
 280.234375 155.161132812 280.234375 155.161132812 322.606445312 197.534179688 c 0,12,13
 363.8671875 238.794921875 363.8671875 238.794921875 363.8671875 297.895507812 c 0,0,1
492.274414062 62.5625 m 0,14,15
 492 48 492 48 481.909179688 38.0625 c 128,-1,16
 472 28 472 28 457.408203125 27.6962890625 c 0,17,18
 442.970168472 28.0006288197 442.970168472 28.0006288197 432.908203125 38.0625 c 2,19,-1
 328.559570312 142.41015625 l 1,20,21
 282 109 282 109 221.1328125 108.486328125 c 0,22,23
 182 108 182 108 147.631835938 123.563476562 c 0,24,25
 113 139 113 139 87.3232421875 164.083984375 c 0,26,27
 60 191 60 191 46.802734375 224.393554688 c 0,28,29
 32 262 32 262 31.7255859375 297.895507812 c 0,30,31
 32 336 32 336 46.802734375 371.396484375 c 0,32,33
 63 408 63 408 87.3232421875 432.6484375 c 0,34,35
 115 460 115 460 147.631835938 473.168945312 c 0,36,37
 182 487 182 487 221.1328125 487.303710938 c 256,38,39
 263 487 263 487 295.577148438 473.168945312 c 0,40,41
 330 458 330 458 355.887695312 432.6484375 c 0,42,43
 382 406 382 406 396.407226562 371.396484375 c 0,44,45
 411 336 411 336 411.484375 297.895507812 c 0,46,47
 411 239 411 239 377.560546875 190.469726562 c 1,48,-1
 481.909179688 86.12109375 l 2,49,50
 492 76 492 76 492.274414062 62.5625 c 0,14,15
EndSplineSet
EndChar

StartChar: forward
Encoding: 57432 57432 89
Width: 512
GlyphClass: 2
Flags: W
LayerCount: 2
Fore
SplineSet
512 329 m 128,-1,1
 512 323 512 323 507 316 c 2,2,-1
 360 170 l 2,3,4
 356 165 356 165 347 165 c 0,5,6
 339 165 339 165 335 170 c 0,7,8
 329 176 329 176 329 183 c 2,9,-1
 329 256 l 1,10,-1
 265 256 l 2,11,12
 245 256 245 256 215 254 c 0,13,14
 194 253 194 253 171 248 c 0,15,16
 150 244 150 244 133 236 c 0,17,18
 118 229 118 229 103 216 c 0,19,20
 89 204 89 204 80 187 c 0,21,22
 70 169 70 169 66 148 c 0,23,24
 61 121 61 121 61 96 c 0,25,26
 61 87 61 87 63 61 c 2,27,-1
 63 54 l 2,28,29
 64 51 64 51 64 47 c 128,-1,30
 64 43 64 43 62 39 c 0,31,32
 58 37 58 37 55 37 c 0,33,34
 50 37 50 37 47 41 c 2,35,-1
 46 44 l 2,36,37
 44 46 44 46 43 48 c 2,38,-1
 39 56 l 2,39,40
 38 61 38 61 36 63 c 0,41,42
 0 144 0 144 0 192 c 0,43,44
 0 250 0 250 15 287 c 0,45,46
 61 402 61 402 265 402 c 2,47,-1
 329 402 l 1,48,-1
 329 475 l 2,49,50
 329 484 329 484 335 488 c 0,51,52
 340 494 340 494 347 494 c 0,53,54
 356 494 356 494 360 488 c 2,55,-1
 507 342 l 2,56,0
 512 335 512 335 512 329 c 128,-1,1
EndSplineSet
Validated: 513
EndChar

StartChar: ultra-bullet
Encoding: 57433 57433 90
Width: 512
GlyphClass: 2
Flags: W
LayerCount: 2
Fore
SplineSet
299 398 m 1,0,1
 305 396 305 396 314 392 c 256,2,3
 323 388 323 388 349 376 c 0,4,5
 375 363 375 363 401 347 c 0,6,7
 426 331 426 331 457 303 c 0,8,9
 489 276 489 276 513 245 c 1,10,11
 474 196 474 196 421 158 c 0,12,13
 367 119 367 119 334 106 c 2,14,-1
 299 92 l 1,15,-1
 299 132 l 1,16,-1
 122 130 l 1,17,-1
 169 198 l 1,18,-1
 1 245 l 1,19,-1
 169 292 l 1,20,-1
 122 360 l 1,21,-1
 299 358 l 1,22,-1
 299 398 l 1,0,1
333 340 m 1,23,-1
 333 315 l 1,24,-1
 207 316 l 1,25,-1
 236 274 l 1,26,-1
 110 245 l 1,27,-1
 236 216 l 1,28,-1
 207 174 l 1,29,-1
 333 175 l 1,30,-1
 333 150 l 1,31,32
 335 151 335 151 340.5 153.5 c 128,-1,33
 346 156 346 156 361 164 c 128,-1,34
 376 172 376 172 390.5 182 c 128,-1,35
 405 192 405 192 423.5 209 c 128,-1,36
 442 226 442 226 457 245 c 1,37,38
 434 276 434 276 402.5 299.5 c 128,-1,39
 371 323 371 323 352 331 c 2,40,-1
 333 340 l 1,23,-1
302 294 m 2,41,42
 371 294 371 294 411 245 c 1,43,44
 389 217 389 217 356.5 205 c 128,-1,45
 324 193 324 193 303 195 c 2,46,-1
 282 197 l 2,47,48
 277 198 277 198 273 212.5 c 128,-1,49
 269 227 269 227 269 245 c 128,-1,50
 269 263 269 263 273 277.5 c 128,-1,51
 277 292 277 292 282 293 c 2,52,-1
 302 294 l 2,41,42
301 284 m 2,53,-1
 292 284 l 1,54,-1
 288 266 l 1,55,56
 288 266 288 266 294.5 266 c 128,-1,57
 301 266 301 266 312 266 c 128,-1,58
 323 266 323 266 336 265 c 128,-1,59
 349 264 349 264 364.5 260.5 c 128,-1,60
 380 257 380 257 393 251 c 1,61,62
 355 284 355 284 301 284 c 2,53,-1
EndSplineSet
Validated: 33
EndChar

StartChar: storm
Encoding: 57434 57434 91
Width: 512
GlyphClass: 2
Flags: W
LayerCount: 2
Fore
SplineSet
27 3 m 1024,0,-1
486 454 m 1024,1,-1
264 439 m 1,2,-1
 264 439 l 1,3,4
 327 439 327 439 358 428 c 0,5,6
 379 421 379 421 387 411 c 0,7,8
 399 397 399 397 395 381 c 1,9,-1
 395 380 l 2,10,11
 392 373 392 373 389 365 c 1,12,13
 419 353 419 353 430 340 c 0,14,15
 441 325 441 325 429 312 c 0,16,17
 416 298 416 298 377 289 c 1,18,19
 377 264 377 264 384 208 c 1,20,21
 430 199 430 199 431 183 c 0,22,23
 431 167 431 167 388 162 c 1,24,25
 389 150 389 150 389 140 c 1,26,27
 405 128 405 128 415.5 114.5 c 128,-1,28
 426 101 426 101 429.5 88 c 128,-1,29
 433 75 433 75 430 65 c 0,30,31
 427 40 427 40 365 30 c 1,32,33
 360 20 360 20 355 10 c 1,34,-1
 335 10 l 1,35,36
 357 44 357 44 366 79 c 1,37,38
 345 100 345 100 273 106 c 1,39,40
 310 59 310 59 321 10 c 1,41,-1
 304 10 l 1,42,43
 292 58 292 58 250 108 c 1,44,45
 187 111 187 111 138 102 c 1,46,47
 184 120 184 120 234 126 c 1,48,49
 223 138 223 138 206 155 c 1,50,51
 139 157 139 157 142 173 c 0,52,53
 144 182 144 182 169 192 c 1,54,55
 159 202 159 202 151 210 c 1,56,57
 117 217 117 217 101 228 c 128,-1,58
 85 239 85 239 86 250.5 c 128,-1,59
 87 262 87 262 101 275 c 1,60,61
 74 320 74 320 71 368 c 1,62,-1
 71 368 l 1,63,64
 70 387 70 387 85 401 c 0,65,66
 99 415 99 415 125 423 c 0,67,68
 174 439 174 439 264 439 c 1,2,-1
264 423 m 0,69,70
 218 423 218 423 182 418 c 1,71,72
 221 415 221 415 265 403 c 1,73,74
 213 403 213 403 168.5 390.5 c 128,-1,75
 124 378 124 378 104 354 c 1,76,77
 130 365 130 365 173.5 360.5 c 128,-1,78
 217 356 217 356 268 339 c 1,79,80
 211 345 211 345 162.5 329 c 128,-1,81
 114 313 114 313 115 285 c 1,82,83
 152 307 152 307 209 314.5 c 128,-1,84
 266 322 266 322 329 307 c 1,85,86
 290 308 290 308 251.5 304 c 128,-1,87
 213 300 213 300 178 286 c 128,-1,88
 143 272 143 272 139 250 c 1,89,90
 156 228 156 228 187 198 c 1,91,92
 235 211 235 211 298 213 c 0,93,94
 337 214 337 214 366 210 c 1,95,-1
 366 211 l 1,96,97
 355 225 355 225 315 231 c 128,-1,98
 275 237 275 237 230 233 c 1,99,100
 267 248 267 248 304 252 c 1,101,102
 248 267 248 267 181 264 c 1,103,104
 213 275 213 275 245 280 c 128,-1,105
 277 285 277 285 309.5 282 c 128,-1,106
 342 279 342 279 361 265 c 1,107,108
 359 298 359 298 363 326 c 1,109,110
 352 351 352 351 299.5 363 c 128,-1,111
 247 375 247 375 192 376 c 1,112,113
 242 387 242 387 288 385 c 128,-1,114
 334 383 334 383 373 371 c 1,115,116
 376 378 376 378 379 385 c 0,117,118
 380 393 380 393 375 399 c 0,119,120
 368 407 368 407 352 412 c 0,121,122
 321 422 321 422 264 423 c 0,69,70
311 198 m 0,123,124
 280 197 280 197 250 191.5 c 128,-1,125
 220 186 220 186 207 177 c 1,126,127
 239 145 239 145 255 127 c 1,128,129
 301 130 301 130 342 121 c 1,130,131
 303 147 303 147 259 154 c 1,132,133
 279 156 279 156 308 152 c 128,-1,134
 337 148 337 148 364 137 c 1,135,136
 348 154 348 154 330 168 c 1,137,138
 352 162 352 162 372 151 c 1,139,140
 371 167 371 167 369 190 c 1,141,142
 348 198 348 198 311 198 c 0,123,124
EndSplineSet
Validated: 37
EndChar

StartChar: tools
Encoding: 57435 57435 92
Width: 512
GlyphClass: 2
Flags: W
LayerCount: 2
Fore
SplineSet
79 336 m 0,0,1
 78 335 78 335 73 325 c 0,2,3
 72 320 72 320 72 312 c 0,4,5
 72 306 72 306 71 306 c 2,6,-1
 70 305 l 2,7,8
 68 304 68 304 66 302 c 128,-1,9
 64 300 64 300 62 298 c 0,10,11
 57 294 57 294 53 290 c 0,12,13
 44 283 44 283 38 292 c 2,14,-1
 2 331 l 2,15,16
 -3 337 -3 337 3 343 c 0,17,18
 4 344 4 344 13 350 c 2,19,-1
 23 358 l 2,20,21
 26 361 26 361 37 361 c 0,22,23
 46 361 46 361 56 369 c 0,24,25
 62 375 62 375 65 388 c 0,26,27
 66 399 66 399 70 403 c 2,28,-1
 72 404 l 2,29,30
 73 406 73 406 75 407 c 0,31,32
 81 413 81 413 88 418 c 0,33,34
 102 430 102 430 109 434 c 0,35,36
 177 480 177 480 204 483 c 0,37,38
 271 483 271 483 280 482 c 0,39,40
 285 482 285 482 276 478 c 0,41,42
 214 451 214 451 198 439 c 0,43,44
 157 410 157 410 179 381 c 0,45,46
 194 361 194 361 199 356 c 0,47,48
 204 353 204 353 198 349 c 2,49,-1
 196 347 l 2,50,51
 193 345 193 345 188.5 340.5 c 128,-1,52
 184 336 184 336 178 331 c 0,53,54
 166 320 166 320 159 313 c 0,55,56
 151 310 151 310 150 311 c 0,57,58
 128 336 128 336 113 342 c 0,59,60
 99 348 99 348 79 336 c 0,0,1
226 323 m 2,61,-1
 435 79 l 2,62,63
 445 68 445 68 434 59 c 2,64,-1
 410 38 l 2,65,66
 399 31 399 31 390 40 c 2,67,-1
 178 282 l 2,68,69
 175 285 175 285 178 292 c 2,70,-1
 215 324 l 2,71,72
 222 327 222 327 226 323 c 2,61,-1
509 426 m 0,73,74
 518 373 518 373 501 341 c 0,75,76
 475 296 475 296 422 309 c 0,77,78
 393 315 393 315 371 293 c 2,79,-1
 329 253 l 1,80,-1
 294 293 l 1,81,-1
 329 329 l 2,82,83
 340 340 340 340 345 356 c 0,84,85
 348 371 348 371 348 389 c 0,86,87
 348 411 348 411 350 419 c 0,88,89
 358 448 358 448 422 476 c 0,90,91
 428 479 428 479 431 475 c 0,92,93
 435 470 435 470 432 467 c 0,94,95
 426 460 426 460 409 426 c 1,96,97
 402 422 402 422 403 408 c 0,98,99
 403 395 403 395 423 381 c 0,100,101
 452 360 452 360 472 392 c 0,102,103
 474 395 474 395 486 413 c 0,104,105
 495 428 495 428 497 430 c 0,106,107
 499 435 499 435 504 435 c 0,108,109
 509 433 509 433 509 426 c 0,73,74
70 76 m 2,110,-1
 200 203 l 1,111,-1
 239 159 l 1,112,-1
 113 35 l 2,113,114
 103 25 103 25 93 33 c 2,115,-1
 70 56 l 2,116,117
 58 65 58 65 70 76 c 2,110,-1
EndSplineSet
Validated: 33
EndChar

StartChar: bullseye
Encoding: 57436 57436 93
Width: 512
GlyphClass: 2
Flags: W
LayerCount: 2
Fore
SplineSet
329 256 m 128,-1,1
 329 226 329 226 308 204 c 0,2,3
 286 183 286 183 256 183 c 128,-1,4
 226 183 226 183 204 204 c 0,5,6
 183 226 183 226 183 256 c 128,-1,7
 183 286 183 286 204 308 c 0,8,9
 226 329 226 329 256 329 c 128,-1,10
 286 329 286 329 308 308 c 0,11,0
 329 286 329 286 329 256 c 128,-1,1
366 256 m 128,-1,13
 366 300 366 300 334 334 c 0,14,15
 300 366 300 366 256 366 c 128,-1,16
 212 366 212 366 178 334 c 0,17,18
 146 300 146 300 146 256 c 128,-1,19
 146 212 146 212 178 178 c 0,20,21
 212 146 212 146 256 146 c 128,-1,22
 300 146 300 146 334 178 c 0,23,12
 366 212 366 212 366 256 c 128,-1,13
402 256 m 128,-1,25
 402 195 402 195 359 153 c 0,26,27
 317 110 317 110 256 110 c 128,-1,28
 195 110 195 110 153 153 c 0,29,30
 110 195 110 195 110 256 c 128,-1,31
 110 317 110 317 153 359 c 0,32,33
 195 402 195 402 256 402 c 128,-1,34
 317 402 317 402 359 359 c 0,35,24
 402 317 402 317 402 256 c 128,-1,25
439 256 m 0,36,37
 439 292 439 292 424 327 c 0,38,39
 411 361 411 361 385 385 c 0,40,41
 361 411 361 411 327 424 c 0,42,43
 292 439 292 439 256 439 c 128,-1,44
 220 439 220 439 185 424 c 0,45,46
 151 411 151 411 127 385 c 0,47,48
 101 361 101 361 88 327 c 0,49,50
 73 292 73 292 73 256 c 128,-1,51
 73 220 73 220 88 185 c 0,52,53
 101 151 101 151 127 127 c 0,54,55
 151 101 151 101 185 88 c 0,56,57
 220 73 220 73 256 73 c 128,-1,58
 292 73 292 73 327 88 c 0,59,60
 361 101 361 101 385 127 c 0,61,62
 411 151 411 151 424 185 c 0,63,64
 439 219 439 219 439 256 c 0,36,37
475 256 m 128,-1,66
 475 194 475 194 446 146 c 0,67,68
 416 96 416 96 366 66 c 0,69,70
 318 37 318 37 256 37 c 128,-1,71
 194 37 194 37 146 66 c 0,72,73
 96 96 96 96 66 146 c 0,74,75
 37 194 37 194 37 256 c 128,-1,76
 37 318 37 318 66 366 c 0,77,78
 96 416 96 416 146 446 c 0,79,80
 194 475 194 475 256 475 c 128,-1,81
 318 475 318 475 366 446 c 0,82,83
 416 416 416 416 446 366 c 0,84,65
 475 318 475 318 475 256 c 128,-1,66
EndSplineSet
Validated: 1
EndChar

StartChar: agent
Encoding: 57437 57437 94
Width: 512
GlyphClass: 2
Flags: W
LayerCount: 2
Fore
SplineSet
384 64 m 128,-1,1
 384 90 384 90 403 109 c 128,-1,2
 422 128 422 128 448 128 c 128,-1,3
 474 128 474 128 493 109 c 128,-1,4
 512 90 512 90 512 64 c 128,-1,5
 512 38 512 38 493 19 c 128,-1,6
 474 0 474 0 448 0 c 128,-1,7
 422 0 422 0 403 19 c 128,-1,0
 384 38 384 38 384 64 c 128,-1,1
416 64 m 128,-1,9
 416 50 416 50 425 41 c 128,-1,10
 434 32 434 32 448 32 c 128,-1,11
 462 32 462 32 471 41 c 128,-1,12
 480 50 480 50 480 64 c 128,-1,13
 480 78 480 78 471 87 c 128,-1,14
 462 96 462 96 448 96 c 128,-1,15
 434 96 434 96 425 87 c 128,-1,8
 416 78 416 78 416 64 c 128,-1,9
0 448 m 128,-1,17
 0 474 0 474 19 493 c 128,-1,18
 38 512 38 512 64 512 c 128,-1,19
 90 512 90 512 109 493 c 128,-1,20
 128 474 128 474 128 448 c 128,-1,21
 128 422 128 422 109 403 c 128,-1,22
 90 384 90 384 64 384 c 128,-1,23
 38 384 38 384 19 403 c 128,-1,16
 0 422 0 422 0 448 c 128,-1,17
32 448 m 128,-1,25
 32 434 32 434 41 425 c 128,-1,26
 50 416 50 416 64 416 c 128,-1,27
 78 416 78 416 87 425 c 128,-1,28
 96 434 96 434 96 448 c 128,-1,29
 96 462 96 462 87 471 c 128,-1,30
 78 480 78 480 64 480 c 128,-1,31
 50 480 50 480 41 471 c 128,-1,24
 32 462 32 462 32 448 c 128,-1,25
448 384 m 0,32,33
 474 384 474 384 493 403 c 128,-1,34
 512 422 512 422 512 448 c 128,-1,35
 512 474 512 474 493 493 c 128,-1,36
 474 512 474 512 448 512 c 128,-1,37
 422 512 422 512 403 493 c 128,-1,38
 384 474 384 474 384 448 c 0,39,40
 384 430 384 430 393 416 c 1,41,-1
 342 364 l 1,42,43
 299 384 299 384 256 384 c 0,44,45
 215 384 215 384 177 368.5 c 128,-1,46
 139 353 139 353 111 327.5 c 128,-1,47
 83 302 83 302 72 290.5 c 128,-1,48
 61 279 61 279 52 267 c 2,49,-1
 51 266 l 1,50,-1
 44 257 l 1,51,-1
 51 247 l 1,52,-1
 55 242 l 2,53,54
 59 237 59 237 67 228 c 128,-1,55
 75 219 75 219 85 208.5 c 128,-1,56
 95 198 95 198 110 186 c 128,-1,57
 125 174 125 174 141 164 c 1,58,-1
 96 119 l 1,59,60
 82 128 82 128 64 128 c 0,61,62
 38 128 38 128 19 109 c 128,-1,63
 0 90 0 90 0 64 c 128,-1,64
 0 38 0 38 19 19 c 128,-1,65
 38 0 38 0 64 0 c 128,-1,66
 90 0 90 0 109 19 c 128,-1,67
 128 38 128 38 128 64 c 0,68,69
 128 82 128 82 119 96 c 1,70,-1
 171 148 l 1,71,72
 213 128 213 128 256 128 c 0,73,74
 374 129 374 129 460 246 c 1,75,-1
 461 247 l 1,76,-1
 468 256 l 1,77,-1
 461 265 l 1,78,-1
 460 267 l 2,79,80
 458 269 458 269 455.5 272 c 128,-1,81
 453 275 453 275 449.5 279.5 c 128,-1,82
 446 284 446 284 441.5 289 c 128,-1,83
 437 294 437 294 431.5 299.5 c 128,-1,84
 426 305 426 305 419 311.5 c 128,-1,85
 412 318 412 318 405 324 c 128,-1,86
 398 330 398 330 389 336.5 c 128,-1,87
 380 343 380 343 371 348 c 1,88,-1
 416 393 l 1,89,90
 429 384 429 384 448 384 c 0,32,33
422 263 m 0,91,92
 424 260 424 260 428 256 c 1,93,94
 424 252 424 252 422 249 c 0,95,96
 341 159 341 159 256 160 c 0,97,98
 193 160 193 160 128 213 c 0,99,100
 111 227 111 227 90 250 c 0,101,102
 89 251 89 251 87 253.5 c 128,-1,103
 85 256 85 256 84 257 c 1,104,-1
 90 263 l 1,105,106
 169 353 169 353 256 352 c 0,107,108
 318 352 318 352 384 300 c 0,109,110
 406 281 406 281 422 263 c 0,91,92
320 256 m 128,-1,112
 320 230 320 230 301 211 c 128,-1,113
 282 192 282 192 256 192 c 128,-1,114
 230 192 230 192 211 211 c 128,-1,115
 192 230 192 230 192 256 c 128,-1,116
 192 282 192 282 211 301 c 128,-1,117
 230 320 230 320 256 320 c 128,-1,118
 282 320 282 320 301 301 c 128,-1,111
 320 282 320 282 320 256 c 128,-1,112
EndSplineSet
Validated: 41
EndChar

StartChar: mic
Encoding: 57438 57438 95
Width: 512
GlyphClass: 2
Flags: W
LayerCount: 2
Fore
SplineSet
244 476 m 1,0,1
 226 474 226 474 211 469 c 1,2,-1
 211 411 l 1,3,-1
 187 411 l 1,4,-1
 187 460 l 1,5,6
 174 454 174 454 157 441 c 1,7,-1
 157 440 l 1,8,-1
 157 200 l 1,9,10
 199 164 199 164 256 164 c 128,-1,11
 313 164 313 164 355 200 c 1,12,-1
 355 440 l 1,13,-1
 355 441 l 1,14,15
 344 450 344 450 325 460 c 1,16,-1
 325 411 l 1,17,-1
 301 411 l 1,18,-1
 301 469 l 1,19,20
 286 474 286 474 268 476 c 1,21,-1
 268 411 l 1,22,-1
 244 411 l 1,23,-1
 244 476 l 1,0,1
110 283 m 1,24,-1
 110 160 l 1,25,26
 118 152 118 152 138 138 c 0,27,28
 174 114 174 114 216 107 c 1,29,-1
 216 121 l 1,30,-1
 296 121 l 1,31,-1
 296 107 l 1,32,33
 337 114 337 114 374 138 c 0,34,35
 394 152 394 152 402 160 c 1,36,-1
 402 283 l 1,37,-1
 374 283 l 1,38,-1
 374 174 l 1,39,40
 322 132 322 132 256 132 c 128,-1,41
 190 132 190 132 138 174 c 1,42,-1
 138 283 l 1,43,-1
 110 283 l 1,24,-1
296 107 m 1,44,45
 279 103 279 103 256 103 c 128,-1,46
 233 103 233 103 216 107 c 1,47,-1
 216 66 l 1,48,-1
 168 66 l 1,49,-1
 168 36 l 1,50,-1
 344 36 l 1,51,-1
 344 66 l 1,52,-1
 296 66 l 1,53,-1
 296 107 l 1,44,45
EndSplineSet
Validated: 5
EndChar

StartChar: bar-chart
Encoding: 57439 57439 96
Width: 512
GlyphClass: 2
Flags: W
LayerCount: 2
Fore
SplineSet
137 222 m 1,0,-1
 137 119 l 1,1,-1
 68 119 l 1,2,-1
 68 222 l 1,3,-1
 137 222 l 1,0,-1
239 358 m 1,4,-1
 239 119 l 1,5,-1
 171 119 l 1,6,-1
 171 358 l 1,7,-1
 239 358 l 1,4,-1
341 290 m 1,8,-1
 341 119 l 1,9,-1
 273 119 l 1,10,-1
 273 290 l 1,11,-1
 341 290 l 1,8,-1
444 393 m 1,12,-1
 444 119 l 1,13,-1
 375 119 l 1,14,-1
 375 393 l 1,15,-1
 444 393 l 1,12,-1
478 94 m 2,16,-1
 478 418 l 2,17,18
 478 421 478 421 475 424 c 0,19,20
 474 427 474 427 469 427 c 2,21,-1
 43 427 l 2,22,23
 38 427 38 427 37 424 c 0,24,25
 34 421 34 421 34 418 c 2,26,-1
 34 94 l 2,27,28
 34 91 34 91 37 88 c 0,29,30
 38 85 38 85 43 85 c 2,31,-1
 469 85 l 2,32,33
 474 85 474 85 475 88 c 0,34,35
 478 91 478 91 478 94 c 2,16,-1
512 418 m 2,36,-1
 512 94 l 2,37,38
 512 76 512 76 499 64 c 0,39,40
 487 51 487 51 469 51 c 2,41,-1
 43 51 l 2,42,43
 25 51 25 51 13 64 c 0,44,45
 0 76 0 76 0 94 c 2,46,-1
 0 418 l 2,47,48
 0 436 0 436 13 448 c 0,49,50
 25 461 25 461 43 461 c 2,51,-1
 469 461 l 2,52,53
 487 461 487 461 499 448 c 0,54,55
 512 436 512 436 512 418 c 2,36,-1
EndSplineSet
Validated: 513
EndChar

StartChar: info-circle
Encoding: 57440 57440 97
Width: 512
GlyphClass: 2
Flags: W
LayerCount: 2
Fore
SplineSet
253 492 m 0,0,1
 350 492 350 492 420 425 c 0,2,3
 489 358 489 358 492 260 c 0,4,5
 492 161 492 161 424 93 c 0,6,7
 357 23 357 23 259 20 c 0,8,9
 160 20 160 20 92 88 c 0,10,11
 22 156 22 156 20 253 c 0,12,13
 18 351 18 351 87 420 c 0,14,15
 156 491 156 491 253 492 c 0,0,1
280 414 m 0,16,17
 258 414 258 414 246 401 c 0,18,19
 234 389 234 389 234 376 c 0,20,21
 234 361 234 361 242 353 c 0,22,23
 252 345 252 345 267 345 c 0,24,25
 287 345 287 345 298 356 c 0,26,27
 310 368 310 368 310 384 c 0,28,29
 310 414 310 414 280 414 c 0,16,17
218 110 m 0,30,31
 235 110 235 110 261 123 c 0,32,33
 290 137 290 137 315 163 c 1,34,-1
 306 175 l 1,35,36
 282 157 282 157 269 157 c 0,37,38
 263 157 263 157 267 176 c 2,39,-1
 289 258 l 2,40,41
 302 307 302 307 278 307 c 0,42,43
 262 307 262 307 232 292 c 0,44,45
 198 275 198 275 173 254 c 1,46,-1
 181 241 l 1,47,48
 209 258 209 258 219 258 c 0,49,50
 225 258 225 258 219 241 c 2,51,-1
 201 163 l 2,52,53
 188 110 188 110 218 110 c 0,30,31
EndSplineSet
Validated: 545
EndChar

StartChar: screen-desktop
Encoding: 57441 57441 98
Width: 512
GlyphClass: 2
Flags: W
LayerCount: 2
Fore
SplineSet
478 230 m 2,0,-1
 478 452 l 2,1,2
 478 456 478 456 475 458 c 0,3,4
 474 461 474 461 469 461 c 2,5,-1
 43 461 l 2,6,7
 38 461 38 461 37 458 c 0,8,9
 34 456 34 456 34 452 c 2,10,-1
 34 230 l 2,11,12
 34 227 34 227 37 224 c 0,13,14
 39 222 39 222 43 222 c 2,15,-1
 469 222 l 2,16,17
 473 222 473 222 475 224 c 0,18,19
 478 227 478 227 478 230 c 2,0,-1
512 452 m 2,20,-1
 512 162 l 2,21,22
 512 144 512 144 499 132 c 0,23,24
 486 119 486 119 469 119 c 2,25,-1
 324 119 l 1,26,27
 324 111 324 111 329 99 c 0,28,29
 332 88 332 88 337 80 c 0,30,31
 341 72 341 72 341 68 c 0,32,33
 341 61 341 61 336 56 c 128,-1,34
 331 51 331 51 324 51 c 2,35,-1
 188 51 l 2,36,37
 181 51 181 51 176 56 c 128,-1,38
 171 61 171 61 171 68 c 0,39,40
 171 73 171 73 175 80 c 0,41,42
 180 88 180 88 183 99 c 0,43,44
 188 111 188 111 188 119 c 1,45,-1
 43 119 l 2,46,47
 26 119 26 119 13 132 c 0,48,49
 0 144 0 144 0 162 c 2,50,-1
 0 452 l 2,51,52
 0 470 0 470 13 482 c 0,53,54
 25 495 25 495 43 495 c 2,55,-1
 469 495 l 2,56,57
 487 495 487 495 499 482 c 0,58,59
 512 470 512 470 512 452 c 2,20,-1
EndSplineSet
Validated: 513
EndChar

StartChar: phone-mobile
Encoding: 57442 57442 99
Width: 512
GlyphClass: 2
Flags: W
LayerCount: 2
Fore
SplineSet
279 110 m 0,0,1
 279 119 279 119 272 126 c 128,-1,2
 265 133 265 133 256 133 c 128,-1,3
 247 133 247 133 240 126 c 128,-1,4
 233 119 233 119 233 110 c 0,5,6
 233 100 233 100 240 94 c 0,7,8
 246 87 246 87 256 87 c 128,-1,9
 266 87 266 87 272 94 c 0,10,11
 279 100 279 100 279 110 c 0,0,1
338 155 m 2,12,-1
 338 357 l 2,13,14
 338 359 338 359 336 363 c 0,15,16
 333 366 333 366 329 366 c 2,17,-1
 183 366 l 2,18,19
 179 366 179 366 176 363 c 0,20,21
 174 359 174 359 174 357 c 2,22,-1
 174 155 l 2,23,24
 174 153 174 153 176 149 c 0,25,26
 179 146 179 146 183 146 c 2,27,-1
 329 146 l 2,28,29
 333 146 333 146 336 149 c 0,30,31
 338 153 338 153 338 155 c 2,12,-1
283 398 m 0,32,33
 283 402 283 402 279 402 c 2,34,-1
 233 402 l 2,35,36
 229 402 229 402 229 398 c 0,37,38
 229 393 229 393 233 393 c 2,39,-1
 279 393 l 2,40,41
 283 393 283 393 283 398 c 0,32,33
366 402 m 2,42,-1
 366 110 l 2,43,44
 366 95 366 95 355 84 c 128,-1,45
 344 73 344 73 329 73 c 2,46,-1
 183 73 l 2,47,48
 168 73 168 73 157 84 c 128,-1,49
 146 95 146 95 146 110 c 2,50,-1
 146 402 l 2,51,52
 146 417 146 417 157 428 c 128,-1,53
 168 439 168 439 183 439 c 2,54,-1
 329 439 l 2,55,56
 344 439 344 439 355 428 c 128,-1,57
 366 417 366 417 366 402 c 2,42,-1
EndSplineSet
Validated: 513
EndChar

StartChar: multiboard
Encoding: 57443 57443 100
Width: 512
GlyphClass: 2
Flags: W
LayerCount: 2
Fore
SplineSet
238 219 m 2,0,-1
 238 110 l 2,1,2
 238 95 238 95 227 84 c 128,-1,3
 216 73 216 73 201 73 c 2,4,-1
 55 73 l 2,5,6
 40 73 40 73 29 84 c 128,-1,7
 18 95 18 95 18 110 c 2,8,-1
 18 219 l 2,9,10
 18 234 18 234 29 245 c 128,-1,11
 40 256 40 256 55 256 c 2,12,-1
 201 256 l 2,13,14
 216 256 216 256 227 245 c 128,-1,15
 238 234 238 234 238 219 c 2,0,-1
238 439 m 2,16,-1
 238 329 l 2,17,18
 238 316 238 316 227 303 c 0,19,20
 217 293 217 293 201 293 c 2,21,-1
 55 293 l 2,22,23
 39 293 39 293 29 303 c 0,24,25
 18 316 18 316 18 329 c 2,26,-1
 18 439 l 2,27,28
 18 452 18 452 29 465 c 0,29,30
 39 475 39 475 55 475 c 2,31,-1
 201 475 l 2,32,33
 217 475 217 475 227 465 c 0,34,35
 238 452 238 452 238 439 c 2,16,-1
494 219 m 2,36,-1
 494 110 l 2,37,38
 494 95 494 95 483 84 c 128,-1,39
 472 73 472 73 457 73 c 2,40,-1
 311 73 l 2,41,42
 296 73 296 73 285 84 c 128,-1,43
 274 95 274 95 274 110 c 2,44,-1
 274 219 l 2,45,46
 274 234 274 234 285 245 c 128,-1,47
 296 256 296 256 311 256 c 2,48,-1
 457 256 l 2,49,50
 472 256 472 256 483 245 c 128,-1,51
 494 234 494 234 494 219 c 2,36,-1
494 439 m 2,52,-1
 494 329 l 2,53,54
 494 316 494 316 483 303 c 0,55,56
 473 293 473 293 457 293 c 2,57,-1
 311 293 l 2,58,59
 295 293 295 293 285 303 c 0,60,61
 274 316 274 316 274 329 c 2,62,-1
 274 439 l 2,63,64
 274 452 274 452 285 465 c 0,65,66
 295 475 295 475 311 475 c 2,67,-1
 457 475 l 2,68,69
 473 475 473 475 483 465 c 0,70,71
 494 452 494 452 494 439 c 2,52,-1
EndSplineSet
Validated: 513
EndChar

StartChar: heart-outline
Encoding: 57444 57444 101
Width: 512
GlyphClass: 2
Flags: W
LayerCount: 2
Fore
SplineSet
475 342 m 0,0,1
 475 365 475 365 469 383 c 0,2,3
 462 401 462 401 454 411 c 0,4,5
 446 419 446 419 430 428 c 0,6,7
 416 434 416 434 403 437 c 0,8,9
 387 439 387 439 375 439 c 0,10,11
 364 439 364 439 343 432 c 0,12,13
 323 423 323 423 312 413 c 0,14,15
 303 407 303 407 287 393 c 0,16,17
 283 389 283 389 277.5 383 c 128,-1,18
 272 377 272 377 270 375 c 0,19,20
 266 369 266 369 256 369 c 128,-1,21
 246 369 246 369 242 375 c 0,22,23
 240 377 240 377 234.5 383 c 128,-1,24
 229 389 229 389 225 393 c 0,25,26
 209 407 209 407 200 413 c 0,27,28
 189 423 189 423 169 432 c 0,29,30
 148 439 148 439 137 439 c 0,31,32
 125 439 125 439 109 437 c 0,33,34
 96 434 96 434 82 428 c 0,35,36
 66 419 66 419 58 411 c 0,37,38
 50 401 50 401 43 383 c 0,39,40
 37 365 37 365 37 342 c 0,41,42
 37 293 37 293 90 240 c 2,43,-1
 256 80 l 1,44,-1
 422 240 l 2,45,46
 475 293 475 293 475 342 c 0,0,1
512 342 m 128,-1,48
 512 280 512 280 447 213 c 2,49,-1
 269 42 l 2,50,51
 264 37 264 37 256 37 c 128,-1,52
 248 37 248 37 243 42 c 2,53,-1
 65 214 l 2,54,55
 64 214 64 214 61.5 216.5 c 128,-1,56
 59 219 59 219 57 221 c 0,57,58
 52 227 52 227 41 240 c 0,59,60
 31 252 31 252 22 268 c 0,61,62
 14 281 14 281 7 302 c 0,63,64
 0 322 0 322 0 342 c 0,65,66
 0 404 0 404 36 440 c 0,67,68
 71 475 71 475 137 475 c 0,69,70
 154 475 154 475 173 469 c 256,71,72
 192 463 192 463 207 453 c 0,73,74
 221 444 221 444 234 433 c 0,75,76
 246 424 246 424 256 414 c 1,77,78
 266 424 266 424 278 433 c 0,79,80
 291 444 291 444 305 453 c 0,81,82
 320 463 320 463 339 469 c 256,83,84
 358 475 358 475 375 475 c 0,85,86
 441 475 441 475 476 440 c 0,87,47
 512 404 512 404 512 342 c 128,-1,48
EndSplineSet
Validated: 513
EndChar

StartChar: flag-racing-kings
Encoding: 57445 57445 102
Width: 512
GlyphClass: 2
Flags: W
LayerCount: 2
Fore
SplineSet
238 226 m 1,0,-1
 238 281 l 1,1,2
 187 277 187 277 128 248 c 1,3,-1
 128 195 l 1,4,5
 189 223 189 223 238 226 c 1,0,-1
238 346 m 1,6,-1
 238 402 l 1,7,8
 188 399 188 399 128 366 c 1,9,-1
 128 312 l 1,10,11
 188 343 188 343 238 346 c 1,6,-1
475 213 m 1,12,-1
 475 266 l 1,13,14
 408 233 408 233 366 246 c 1,15,-1
 366 310 l 1,16,17
 358 312 358 312 355 314 c 2,18,-1
 354 315 l 2,19,20
 352 316 352 316 349.5 317 c 128,-1,21
 347 318 347 318 345 319 c 128,-1,22
 343 320 343 320 341 321 c 128,-1,23
 339 322 339 322 337.5 323 c 128,-1,24
 336 324 336 324 335 324 c 2,25,-1
 334 324 l 2,26,27
 332 325 332 325 330 326 c 128,-1,28
 328 327 328 327 326 328 c 0,29,30
 318 332 318 332 316 332 c 0,31,32
 315 333 315 333 307 336 c 0,33,34
 305 337 305 337 301.5 338.5 c 128,-1,35
 298 340 298 340 297 340 c 0,36,37
 295 340 295 340 287 342 c 128,-1,38
 279 344 279 344 276 344 c 0,39,40
 272 345 272 345 264 345 c 0,41,42
 260 346 260 346 252 346 c 0,43,44
 243 346 243 346 238 345 c 1,45,-1
 238 282 l 1,46,-1
 243 282 l 2,47,48
 272 282 272 282 298 273 c 0,49,50
 321 266 321 266 355 250 c 0,51,52
 358 248 358 248 366 246 c 1,53,-1
 366 192 l 1,54,55
 379 187 379 187 392 187 c 0,56,57
 425 187 425 187 475 213 c 1,12,-1
475 335 m 1,58,-1
 475 389 l 1,59,60
 426 363 426 363 388 363 c 0,61,62
 375 363 375 363 366 366 c 1,63,-1
 366 310 l 1,64,65
 408 298 408 298 475 335 c 1,58,-1
91 439 m 0,66,67
 91 427 91 427 86 421 c 0,68,69
 82 413 82 413 73 407 c 1,70,-1
 73 46 l 2,71,72
 73 43 73 43 71 39 c 0,73,74
 69 37 69 37 64 37 c 2,75,-1
 46 37 l 2,76,77
 41 37 41 37 39 39 c 128,-1,78
 37 41 37 41 37 46 c 2,79,-1
 37 407 l 1,80,81
 29 413 29 413 23 421 c 0,82,83
 18 429 18 429 18 439 c 0,84,85
 18 454 18 454 29 465 c 0,86,87
 39 475 39 475 55 475 c 128,-1,88
 71 475 71 475 81 465 c 128,-1,89
 91 455 91 455 91 439 c 0,66,67
512 421 m 2,90,-1
 512 203 l 2,91,92
 512 192 512 192 502 186 c 0,93,94
 498 184 498 184 497 184 c 0,95,96
 436 151 436 151 392 151 c 0,97,98
 366 151 366 151 347 161 c 2,99,-1
 339 165 l 2,100,101
 322 173 322 173 310 178 c 0,102,103
 302 182 302 182 284 187 c 0,104,105
 264 191 264 191 252 191 c 0,106,107
 226 191 226 191 184 178 c 0,108,109
 147 166 147 166 119 149 c 0,110,111
 114 146 114 146 110 146 c 128,-1,112
 106 146 106 146 101 149 c 0,113,114
 91 153 91 153 91 165 c 2,115,-1
 91 377 l 2,116,117
 91 386 91 386 100 392 c 0,118,119
 114 400 114 400 123 404 c 0,120,121
 124 405 124 405 155 419 c 0,122,123
 179 429 179 429 199 433 c 0,124,125
 222 439 222 439 243 439 c 0,126,127
 274 439 274 439 303 430 c 0,128,129
 333 420 333 420 363 405 c 0,130,131
 375 400 375 400 388 400 c 0,132,133
 422 400 422 400 477 432 c 0,134,135
 483 435 483 435 485 437 c 0,136,137
 494 442 494 442 503 436 c 128,-1,138
 512 430 512 430 512 421 c 2,90,-1
EndSplineSet
Validated: 549
EndChar

StartChar: crazyhouse
Encoding: 57446 57446 103
Width: 512
GlyphClass: 2
Flags: W
LayerCount: 2
Fore
SplineSet
389 140 m 2,0,-1
 389 372 l 2,1,2
 389 378 389 378 384 384 c 0,3,4
 378 389 378 389 372 389 c 2,5,-1
 339 389 l 2,6,7
 332 389 332 389 328 384 c 0,8,9
 322 379 322 379 322 372 c 2,10,-1
 322 290 l 1,11,-1
 190 290 l 1,12,-1
 190 372 l 2,13,14
 190 379 190 379 184 384 c 0,15,16
 180 389 180 389 173 389 c 2,17,-1
 140 389 l 2,18,19
 134 389 134 389 128 384 c 0,20,21
 123 378 123 378 123 372 c 2,22,-1
 123 140 l 2,23,24
 123 134 123 134 128 128 c 0,25,26
 134 123 134 123 140 123 c 2,27,-1
 173 123 l 2,28,29
 180 123 180 123 184 128 c 0,30,31
 190 133 190 133 190 140 c 2,32,-1
 190 222 l 1,33,-1
 322 222 l 1,34,-1
 322 140 l 2,35,36
 322 133 322 133 328 128 c 0,37,38
 332 123 332 123 339 123 c 2,39,-1
 372 123 l 2,40,41
 378 123 378 123 384 128 c 0,42,43
 389 134 389 134 389 140 c 2,0,-1
455 381 m 2,44,-1
 455 131 l 2,45,46
 455 100 455 100 433.5 78.5 c 128,-1,47
 412 57 412 57 381 57 c 2,48,-1
 131 57 l 2,49,50
 100 57 100 57 78.5 78.5 c 128,-1,51
 57 100 57 100 57 131 c 2,52,-1
 57 381 l 2,53,54
 57 412 57 412 78.5 433.5 c 128,-1,55
 100 455 100 455 131 455 c 2,56,-1
 381 455 l 2,57,58
 412 455 412 455 433.5 433.5 c 128,-1,59
 455 412 455 412 455 381 c 2,44,-1
EndSplineSet
Validated: 513
EndChar

StartChar: tshirt
Encoding: 57447 57447 104
Width: 512
GlyphClass: 2
Flags: W
LayerCount: 2
Fore
SplineSet
500 409 m 2,0,-1
 420 473 l 2,1,2
 412 480 412 480 400 480 c 2,3,-1
 112 480 l 2,4,5
 100 480 100 480 92 473 c 2,6,-1
 12 409 l 2,7,8
 -6 395 -6 395 2 374 c 2,9,-1
 34 278 l 2,10,11
 39 263 39 263 54 258 c 0,12,13
 60 256 60 256 64 256 c 0,14,15
 73 256 73 256 80 260 c 1,16,-1
 80 64 l 2,17,18
 80 50 80 50 89 41 c 128,-1,19
 98 32 98 32 112 32 c 2,20,-1
 400 32 l 2,21,22
 414 32 414 32 423 41 c 128,-1,23
 432 50 432 50 432 64 c 2,24,-1
 432 260 l 1,25,26
 439 256 439 256 448 256 c 0,27,28
 452 256 452 256 458 258 c 0,29,30
 473 263 473 263 478 278 c 2,31,-1
 510 374 l 2,32,33
 518 395 518 395 500 409 c 2,0,-1
316 448 m 1,34,35
 301 416 301 416 256 416 c 128,-1,36
 211 416 211 416 196 448 c 1,37,-1
 316 448 l 1,34,35
448 288 m 1,38,-1
 400 320 l 1,39,-1
 400 64 l 1,40,-1
 112 64 l 1,41,-1
 112 320 l 1,42,-1
 64 288 l 1,43,-1
 32 384 l 1,44,-1
 112 448 l 1,45,-1
 179 448 l 1,46,47
 186 427 186 427 207 413.5 c 128,-1,48
 228 400 228 400 256 400 c 128,-1,49
 284 400 284 400 305 413.5 c 128,-1,50
 326 427 326 427 333 448 c 1,51,-1
 400 448 l 1,52,-1
 480 384 l 1,53,-1
 448 288 l 1,38,-1
EndSplineSet
Validated: 553
EndChar

StartChar: heart
Encoding: 57448 57448 105
Width: 512
GlyphClass: 2
Flags: W
LayerCount: 2
Fore
SplineSet
256 37 m 128,-1,1
 248 37 248 37 243 42 c 2,2,-1
 65 214 l 2,3,4
 64 214 64 214 61.5 216.5 c 128,-1,5
 59 219 59 219 57 221 c 0,6,7
 52 227 52 227 41 240 c 0,8,9
 31 252 31 252 22 268 c 0,10,11
 14 281 14 281 7 302 c 0,12,13
 0 322 0 322 0 342 c 0,14,15
 0 404 0 404 36 440 c 0,16,17
 71 475 71 475 137 475 c 0,18,19
 154 475 154 475 173 469 c 256,20,21
 192 463 192 463 207 453 c 0,22,23
 221 444 221 444 234 433 c 0,24,25
 246 424 246 424 256 414 c 1,26,27
 266 424 266 424 278 433 c 0,28,29
 291 444 291 444 305 453 c 0,30,31
 320 463 320 463 339 469 c 256,32,33
 358 475 358 475 375 475 c 0,34,35
 441 475 441 475 476 440 c 0,36,37
 512 404 512 404 512 342 c 128,-1,38
 512 280 512 280 447 213 c 2,39,-1
 269 42 l 2,40,0
 264 37 264 37 256 37 c 128,-1,1
EndSplineSet
Validated: 1
EndChar

StartChar: radio-tower
Encoding: 57449 57449 106
Width: 512
GlyphClass: 2
Flags: W
LayerCount: 2
Fore
SplineSet
153 317 m 0,0,1
 159 323 159 323 159 331.5 c 128,-1,2
 159 340 159 340 153 346 c 0,3,4
 138 363 138 363 138 384 c 0,5,6
 138 407 138 407 153 422 c 0,7,8
 159 428 159 428 159 437 c 128,-1,9
 159 446 159 446 153 452 c 128,-1,10
 147 458 147 458 139 458 c 128,-1,11
 131 458 131 458 125 452 c 0,12,13
 97 422 97 422 97 384 c 0,14,15
 97 345 97 345 125 317 c 0,16,17
 139 301 139 301 153 317 c 0,0,1
75 495 m 0,18,19
 68 502 68 502 60 502 c 0,20,21
 51 502 51 502 45 495 c 0,22,23
 0 450 0 450 0 384 c 0,24,25
 0 320 0 320 45 273 c 0,26,27
 59 259 59 259 75 273 c 0,28,29
 81 279 81 279 81 288 c 128,-1,30
 81 297 81 297 75 303 c 0,31,32
 42 338 42 338 42 384 c 0,33,34
 42 432 42 432 75 465 c 0,35,36
 89 481 89 481 75 495 c 0,18,19
257 332 m 0,37,38
 278 332 278 332 293 347 c 128,-1,39
 308 362 308 362 308 384 c 128,-1,40
 308 406 308 406 293 421 c 128,-1,41
 278 436 278 436 257 436 c 0,42,43
 235 436 235 436 220 421 c 128,-1,44
 205 406 205 406 205 384 c 128,-1,45
 205 362 205 362 220 347 c 128,-1,46
 235 332 235 332 257 332 c 0,37,38
467 495 m 0,47,48
 461 501 461 501 452.5 501 c 128,-1,49
 444 501 444 501 438 495 c 0,50,51
 431 489 431 489 431 480 c 128,-1,52
 431 471 431 471 438 465 c 0,53,54
 470 431 470 431 470 384 c 128,-1,55
 470 337 470 337 438 303 c 0,56,57
 422 287 422 287 438 273 c 0,58,59
 445 266 445 266 452 266 c 0,60,61
 460 266 460 266 467 273 c 0,62,63
 512 318 512 318 512 384 c 0,64,65
 512 448 512 448 467 495 c 0,47,48
257 291 m 0,66,67
 236 291 236 291 218 300 c 1,68,-1
 118 32 l 1,69,-1
 165 32 l 1,70,-1
 193 64 l 1,71,-1
 320 64 l 1,72,-1
 347 32 l 1,73,-1
 395 32 l 1,74,-1
 295 300 l 1,75,76
 277 291 277 291 257 291 c 0,66,67
256 275 m 1,77,-1
 289 160 l 1,78,-1
 225 160 l 1,79,-1
 256 275 l 1,77,-1
193 96 m 1,80,-1
 225 128 l 1,81,-1
 289 128 l 1,82,-1
 320 96 l 1,83,-1
 193 96 l 1,80,-1
359 451 m 0,84,85
 353 445 353 445 353 436.5 c 128,-1,86
 353 428 353 428 359 422 c 0,87,88
 374 406 374 406 374 384 c 0,89,90
 374 361 374 361 359 346 c 0,91,92
 353 340 353 340 353 331 c 128,-1,93
 353 322 353 322 359 316 c 128,-1,94
 365 310 365 310 373 310 c 128,-1,95
 381 310 381 310 387 316 c 0,96,97
 415 346 415 346 415 384 c 0,98,99
 415 423 415 423 387 451 c 0,100,101
 373 467 373 467 359 451 c 0,84,85
EndSplineSet
Validated: 553
EndChar

StartChar: bell-outline
Encoding: 57450 57450 107
Width: 512
GlyphClass: 2
Flags: W
LayerCount: 2
Fore
SplineSet
261 27 m 0,0,1
 261 32 261 32 256 32 c 0,2,3
 239 32 239 32 227 44 c 128,-1,4
 215 56 215 56 215 73 c 0,5,6
 215 78 215 78 210 78 c 0,7,8
 206 78 206 78 206 73 c 0,9,10
 206 52 206 52 220 38 c 0,11,12
 235 23 235 23 256 23 c 0,13,14
 261 23 261 23 261 27 c 0,0,1
70 110 m 1,15,-1
 442 110 l 1,16,17
 366 195 366 195 366 347 c 0,18,19
 366 360 366 360 359 377 c 0,20,21
 351 395 351 395 339 407 c 0,22,23
 327 421 327 421 304 430 c 0,24,25
 283 439 283 439 256 439 c 128,-1,26
 229 439 229 439 208 430 c 0,27,28
 185 421 185 421 173 407 c 0,29,30
 161 395 161 395 153 377 c 0,31,32
 146 360 146 360 146 347 c 0,33,34
 146 195 146 195 70 110 c 1,15,-1
494 110 m 1,35,36
 494 95 494 95 483 84 c 128,-1,37
 472 73 472 73 457 73 c 2,38,-1
 329 73 l 1,39,40
 329 44 329 44 308 21 c 0,41,42
 286 0 286 0 256 0 c 128,-1,43
 226 0 226 0 204 21 c 0,44,45
 183 43 183 43 183 73 c 1,46,-1
 55 73 l 2,47,48
 40 73 40 73 29 84 c 128,-1,49
 18 95 18 95 18 110 c 1,50,51
 31 120 31 120 44 135 c 0,52,53
 55 148 55 148 69 169 c 0,54,55
 81 190 81 190 90 214 c 0,56,57
 97 233 97 233 104 273 c 0,58,59
 110 308 110 308 110 347 c 0,60,61
 110 390 110 390 143 428 c 0,62,63
 176 465 176 465 231 473 c 1,64,65
 229 477 229 477 229 485 c 0,66,67
 229 497 229 497 237 504 c 0,68,69
 245 512 245 512 256 512 c 128,-1,70
 267 512 267 512 275 504 c 0,71,72
 283 497 283 497 283 485 c 0,73,74
 283 477 283 477 281 473 c 1,75,76
 336 465 336 465 369 428 c 0,77,78
 402 390 402 390 402 347 c 0,79,80
 402 308 402 308 408 273 c 0,81,82
 415 233 415 233 422 214 c 0,83,84
 431 190 431 190 443 169 c 0,85,86
 457 148 457 148 468 135 c 0,87,88
 481 120 481 120 494 110 c 1,35,36
EndSplineSet
Validated: 513
EndChar

StartChar: disc
Encoding: 57451 57451 108
Width: 512
GlyphClass: 2
Flags: W
LayerCount: 2
Fore
SplineSet
99 235 m 128,-1,1
 99 301 99 301 145.17578125 347.17578125 c 0,2,3
 191 393 191 393 255.9375 393 c 128,-1,4
 321 393 321 393 367.010742188 346.989257812 c 128,-1,5
 413 301 413 301 413 235.00390625 c 128,-1,6
 413 169 413 169 366.82421875 122.82421875 c 0,7,8
 321 77 321 77 256.0625 77 c 128,-1,9
 191 77 191 77 145.1640625 122.8359375 c 0,10,0
 99 169 99 169 99 235 c 128,-1,1
EndSplineSet
EndChar

StartChar: wings
Encoding: 57452 57452 109
Width: 512
GlyphClass: 2
Flags: W
LayerCount: 2
Fore
SplineSet
1 508 m 0,0,1
 1 507 1 507 1.5 505 c 128,-1,2
 2 503 2 503 2.5 500 c 128,-1,3
 3 497 3 497 3 495 c 0,4,5
 5 460 5 460 24 423 c 0,6,7
 37 396 37 396 59 376 c 0,8,9
 83 352 83 352 116 333 c 128,-1,10
 149 314 149 314 220 284 c 0,11,12
 288 256 288 256 320 237 c 0,13,14
 361 213 361 213 361 209 c 1,15,-1
 356 212 l 2,16,17
 350 214 350 214 345 216 c 0,18,19
 311 226 311 226 233 240 c 0,20,21
 132 258 132 258 89 276 c 0,22,23
 61 288 61 288 46 297 c 0,24,25
 38 302 38 302 38 301 c 0,26,27
 40 296 40 296 42 290 c 0,28,29
 70 217 70 217 152 194 c 0,30,31
 183 186 183 186 260 177 c 0,32,33
 338 170 338 170 368 161 c 2,34,-1
 377 158 l 1,35,-1
 359 158 l 2,36,37
 334 158 334 158 289 151 c 0,38,39
 234 145 234 145 207 144 c 0,40,41
 168 142 168 142 125 152 c 1,42,-1
 116 156 l 2,43,44
 115 155 115 155 124.5 142.5 c 128,-1,45
 134 130 134 130 141 123 c 0,46,47
 164 100 164 100 198 89 c 0,48,49
 208 87 208 87 232 87 c 0,50,51
 263 87 263 87 315 99 c 0,52,53
 377 111 377 111 383 111 c 0,54,55
 387 112 387 112 398 112 c 2,56,-1
 404 113 l 1,57,-1
 395 110 l 2,58,59
 369 99 369 99 345 85 c 0,60,61
 285 51 285 51 242 48 c 2,62,-1
 229 46 l 1,63,-1
 239 38 l 2,64,65
 260 22 260 22 276 16 c 0,66,67
 279 15 279 15 298 11 c 0,68,69
 317 10 317 10 334 18 c 128,-1,70
 351 26 351 26 387 53 c 0,71,72
 416 74 416 74 426 77 c 0,73,74
 440 82 440 82 452 76 c 0,75,76
 468 67 468 67 468 49 c 0,77,78
 468 47 468 47 468 45 c 128,-1,79
 468 43 468 43 468 42 c 2,80,-1
 468 40 l 2,81,82
 467 38 467 38 466 40 c 2,83,84
 466 40 466 40 465 43 c 0,85,86
 460 53 460 53 449.5 56.5 c 128,-1,87
 439 60 439 60 430 54 c 0,88,89
 412 45 412 45 419 25 c 0,90,91
 420 22 420 22 426 14 c 0,92,93
 440 0 440 0 459 0.5 c 128,-1,94
 478 1 478 1 491 16 c 0,95,96
 516 40 516 40 498 70 c 0,97,98
 488 84 488 84 478 88 c 2,99,-1
 466 94 l 2,100,101
 452 105 452 105 451 109 c 1,102,103
 467 104 467 104 483.5 111 c 128,-1,104
 500 118 500 118 507 134 c 0,105,106
 517 156 517 156 504 176 c 0,107,108
 493 196 493 196 467 198 c 0,109,110
 454 198 454 198 446 193 c 0,111,112
 433 182 433 182 440 169 c 0,113,114
 448 150 448 150 467 157 c 0,115,116
 478 162 478 162 479 169 c 0,117,118
 480 171 480 171 481 164 c 0,119,120
 478 146 478 146 464 138 c 0,121,122
 450 132 450 132 435 138 c 0,123,124
 427 143 427 143 421 153 c 0,125,126
 418 165 418 165 418 173 c 0,127,128
 412 204 412 204 403 221 c 0,129,130
 388 253 388 253 354 281 c 0,131,132
 318 310 318 310 225 358 c 0,133,134
 135 405 135 405 93 432.5 c 128,-1,135
 51 460 51 460 17 496 c 2,136,-1
 2 511 l 2,137,138
 1 511 1 511 1 508 c 0,0,1
EndSplineSet
Validated: 553
EndChar

StartChar: disc-outline
Encoding: 57453 57453 110
Width: 512
GlyphClass: 2
Flags: W
LayerCount: 2
Fore
SplineSet
256 370 m 128,-1,1
 223 370 223 370 194 354 c 0,2,3
 165 337 165 337 148 308 c 0,4,5
 132 279 132 279 132 246 c 128,-1,6
 132 213 132 213 148 184 c 0,7,8
 165 155 165 155 194 138 c 0,9,10
 223 122 223 122 256 122 c 128,-1,11
 289 122 289 122 318 138 c 0,12,13
 347 155 347 155 364 184 c 0,14,15
 380 213 380 213 380 246 c 128,-1,16
 380 279 380 279 364 308 c 0,17,18
 347 337 347 337 318 354 c 0,19,0
 289 370 289 370 256 370 c 128,-1,1
431 246 m 128,-1,21
 431 196 431 196 408 158 c 0,22,23
 384 118 384 118 344 94 c 0,24,25
 306 71 306 71 256 71 c 128,-1,26
 206 71 206 71 168 94 c 0,27,28
 128 118 128 118 104 158 c 0,29,30
 81 196 81 196 81 246 c 128,-1,31
 81 296 81 296 104 334 c 0,32,33
 128 374 128 374 168 398 c 0,34,35
 206 421 206 421 256 421 c 128,-1,36
 306 421 306 421 344 398 c 0,37,38
 384 374 384 374 408 334 c 0,39,20
 431 296 431 296 431 246 c 128,-1,21
EndSplineSet
Validated: 1
EndChar

StartChar: handset
Encoding: 57454 57454 111
Width: 512
GlyphClass: 2
Flags: W
LayerCount: 2
Fore
SplineSet
493 455 m 2,0,1
 512 451 512 451 512 432 c 0,2,3
 512 240 512 240 376 104 c 128,-1,4
 240 -32 240 -32 48 -32 c 0,5,6
 29 -32 29 -32 25 -13 c 2,7,-1
 1 91 l 2,8,9
 -4 110 -4 110 15 118 c 2,10,-1
 127 166 l 2,11,12
 143 173 143 173 155 159 c 2,13,-1
 204 99 l 1,14,15
 263 126 263 126 308.5 172 c 128,-1,16
 354 218 354 218 381 276 c 1,17,-1
 321 326 l 2,18,19
 307 337 307 337 314 354 c 2,20,-1
 362 466 l 2,21,22
 370 484 370 484 389 479 c 2,23,-1
 493 455 l 2,0,1
EndSplineSet
Validated: 33
EndChar

StartChar: arrow-thru-apple
Encoding: 57455 57455 112
Width: 512
GlyphClass: 2
Flags: W
LayerCount: 2
Fore
SplineSet
86 463 m 1,0,-1
 71 428 l 1,1,-1
 44 455 l 1,2,-1
 29 439 l 1,3,-1
 56 413 l 1,4,-1
 22 399 l 1,5,-1
 60 361 l 1,6,-1
 103 367 l 1,7,-1
 152 318 l 1,8,9
 157 323 157 323 163 327 c 0,10,11
 166 330 166 330 170 332 c 1,12,-1
 118 382 l 1,13,-1
 124 425 l 1,14,-1
 86 463 l 1,0,-1
271 387 m 1,15,16
 248 387 248 387 244 367 c 1,17,18
 265 334 265 334 265 303 c 1,19,20
 251 314 251 314 236 320 c 0,21,22
 223 325 223 325 211 324 c 0,23,24
 191 324 191 324 174 312 c 0,25,26
 146 292 146 292 140 250 c 0,27,28
 134 206 134 206 151 168.5 c 128,-1,29
 168 131 168 131 201 119 c 0,30,31
 211 115 211 115 224.5 116 c 128,-1,32
 238 117 238 117 241 122 c 2,33,-1
 249 136 l 1,34,-1
 257 122 l 2,35,36
 261 114 261 114 274 110 c 0,37,38
 286 106 286 106 296 106 c 0,39,40
 310 107 310 107 323 113 c 1,41,-1
 284 151 l 2,42,43
 275 160 275 160 276 172 c 0,44,45
 278 183 278 183 286 190 c 0,46,47
 295 198 295 198 305 199 c 0,48,49
 307 200 307 200 310 199 c 0,50,51
 320 199 320 199 326 192 c 2,52,-1
 368 152 l 1,53,54
 388 181 388 181 393 217 c 256,55,56
 398 253 398 253 380 278.5 c 128,-1,57
 362 304 362 304 333 309 c 1,58,-1
 332 309 l 2,59,60
 325 310 325 310 315 310 c 0,61,62
 298 308 298 308 282 300 c 1,63,64
 286 341 286 341 271 387 c 1,15,16
309 181 m 2,65,66
 309 181 309 181 308 181 c 2,67,68
 308 181 308 181 307 181 c 0,69,70
 303 180 303 180 299 176.5 c 128,-1,71
 295 173 295 173 295 170 c 0,72,73
 294 167 294 167 297 164 c 2,74,-1
 379 84 l 1,75,-1
 385 78 l 1,76,-1
 380 72 l 2,77,78
 376 67 376 67 367 61 c 0,79,80
 355 53 355 53 337 44 c 1,81,82
 415 -2 415 -2 494 -10 c 1,83,84
 493 59 493 59 439 141 c 1,85,86
 433 130 433 130 425 119.5 c 128,-1,87
 417 109 417 109 413 104 c 2,88,-1
 408 99 l 1,89,-1
 401 93 l 1,90,-1
 395 99 l 1,91,-1
 313 179 l 1,92,-1
 313 179 l 1,93,94
 311 181 311 181 309 181 c 2,65,66
EndSplineSet
Validated: 37
EndChar

StartChar: clipboard
Encoding: 57456 57456 113
Width: 512
VWidth: 544
LayerCount: 2
Fore
SplineSet
384 448 m 2,0,1
 410 448 410 448 429 429 c 128,-1,2
 448 410 448 410 448 384 c 2,3,-1
 448 64 l 2,4,5
 448 37 448 37 429.5 18.5 c 128,-1,6
 411 0 411 0 384 0 c 2,7,-1
 128 0 l 2,8,9
 101 0 101 0 82.5 18.5 c 128,-1,10
 64 37 64 37 64 64 c 2,11,-1
 64 384 l 2,12,13
 64 411 64 411 82.5 429.5 c 128,-1,14
 101 448 101 448 128 448 c 2,15,-1
 177.599609375 448 l 1,16,17
 183.198242188 475.625976562 183.198242188 475.625976562 205.206054688 493.813476562 c 128,-1,18
 227.213867188 512 227.213867188 512 256 512 c 128,-1,19
 284.629882812 512 284.629882812 512 306.354492188 493.897460938 c 128,-1,20
 328.080078125 475.795898438 328.080078125 475.795898438 334.389648438 448 c 1,21,-1
 384 448 l 2,0,1
256 464 m 128,-1,23
 246 464 246 464 239 457 c 128,-1,24
 232 450 232 450 232 440 c 128,-1,25
 232 430 232 430 239 423 c 128,-1,26
 246 416 246 416 256 416 c 128,-1,27
 266 416 266 416 273 423 c 128,-1,28
 280 430 280 430 280 440 c 128,-1,29
 280 450 280 450 273 457 c 128,-1,22
 266 464 266 464 256 464 c 128,-1,23
400 64 m 2,30,-1
 400 384 l 2,31,32
 400 391 400 391 395.5 395.5 c 128,-1,33
 391 400 391 400 384 400 c 2,34,-1
 365.736328125 400 l 1,35,36
 368 391.265625 368 391.265625 368 384 c 2,37,-1
 368 368 l 2,38,39
 368 361 368 361 363.5 356.5 c 128,-1,40
 359 352 359 352 352 352 c 2,41,-1
 160 352 l 2,42,43
 153 352 153 352 148.5 356.5 c 128,-1,44
 144 361 144 361 144 368 c 2,45,-1
 144 384 l 2,46,47
 144 391.3359375 144 391.3359375 146.259765625 400 c 1,48,-1
 128 400 l 2,49,50
 121 400 121 400 116.5 395.5 c 128,-1,51
 112 391 112 391 112 384 c 2,52,-1
 112 64 l 2,53,54
 112 57 112 57 116.5 52.5 c 128,-1,55
 121 48 121 48 128 48 c 2,56,-1
 384 48 l 2,57,58
 391 48 391 48 395.5 52.5 c 128,-1,59
 400 57 400 57 400 64 c 2,30,-1
EndSplineSet
Validated: 1
EndChar

StartChar: move
Encoding: 57457 57457 114
Width: 512
Flags: W
LayerCount: 2
Fore
SplineSet
222.5 109.5 m 1,0,-1
 222.5 372.5 l 1,1,-1
 286.5 372.5 l 1,2,-1
 286.5 109.5 l 1,3,-1
 222.5 109.5 l 1,0,-1
123 272 m 1,4,-1
 386 272 l 1,5,-1
 386 208 l 1,6,-1
 123 208 l 1,7,-1
 123 272 l 1,4,-1
111.559570312 144.540039062 m 0,8,9
 105.803040883 145.016295054 105.803040883 145.016295054 102.979492188 147.83984375 c 2,10,-1
 18.4990234375 232.3203125 l 2,11,12
 15 236 15 236 15.19921875 240.900390625 c 0,13,14
 15.0006960757 245.982181828 15.0006960757 245.982181828 18.4990234375 249.48046875 c 2,15,-1
 102.979492188 333.959960938 l 2,16,17
 106 337 106 337 111.559570312 337.259765625 c 0,18,19
 118 337 118 337 120.139648438 333.959960938 c 0,20,21
 123 326 123 326 123.439453125 325.379882812 c 2,22,-1
 123.439453125 156.419921875 l 2,23,24
 123 150 123 150 120.139648438 147.83984375 c 0,25,26
 116 145 116 145 111.559570312 144.540039062 c 0,8,9
397.719726562 337.260742188 m 0,27,28
 403.274286577 336.98645561 403.274286577 336.98645561 406.299804688 333.9609375 c 2,29,-1
 490.780273438 249.48046875 l 2,30,31
 494 246 494 246 494.129882812 242.043945312 c 0,32,33
 494 241 494 241 494.080078125 240.900390625 c 0,34,35
 494 240 494 240 494.133789062 239.836914062 c 0,36,37
 493.983380875 235.523382911 493.983380875 235.523382911 490.780273438 232.3203125 c 2,38,-1
 406.299804688 147.840820312 l 2,39,40
 402 143 402 143 398.4140625 144.520507812 c 0,41,42
 397 145 397 145 396.842773438 144.520507812 c 0,43,44
 391 145 391 145 389.139648438 147.840820312 c 0,45,46
 385.83984375 152.212163443 385.83984375 152.212163443 385.83984375 156.420898438 c 2,47,-1
 385.83984375 325.380859375 l 2,48,49
 386 326 386 326 385.81640625 326.266601562 c 0,50,51
 386 331 386 331 389.139648438 333.9609375 c 0,52,53
 394 337 394 337 397.719726562 337.260742188 c 0,27,28
158.279296875 383.98046875 m 0,54,55
 158.000978002 388.982423315 158.000978002 388.982423315 161.579101562 392.560546875 c 2,56,-1
 246.059570312 477.041015625 l 2,57,58
 249 480 249 480 254.639648438 480.340820312 c 0,59,60
 260.278482586 479.982293601 260.278482586 479.982293601 263.219726562 477.041015625 c 2,61,-1
 347.69921875 392.560546875 l 2,62,63
 351 389 351 389 350.999023438 383.98046875 c 0,64,65
 351 378 351 378 347.69921875 375.400390625 c 0,66,67
 343.139006184 372.100585938 343.139006184 372.100585938 339.119140625 372.100585938 c 2,68,-1
 170.159179688 372.100585938 l 2,69,70
 164 372 164 372 161.579101562 375.400390625 c 0,71,72
 158 380 158 380 158.279296875 383.98046875 c 0,54,55
351 97.8203125 m 0,73,74
 351 92.5400390625 351 92.5400390625 347.700195312 89.240234375 c 2,75,-1
 263.219726562 4.759765625 l 2,76,77
 260 1 260 1 254.639648438 1.4599609375 c 0,78,79
 249.835591279 0.983701008706 249.835591279 0.983701008706 246.059570312 4.759765625 c 2,80,-1
 161.580078125 89.240234375 l 2,81,82
 158 93 158 93 158.280273438 97.8203125 c 0,83,84
 158 104 158 104 161.580078125 106.400390625 c 0,85,86
 165.631873029 109.700195312 165.631873029 109.700195312 170.16015625 109.700195312 c 2,87,-1
 339.120117188 109.700195312 l 2,88,89
 345 110 345 110 347.700195312 106.400390625 c 0,90,91
 351 102 351 102 351 97.8203125 c 0,73,74
EndSplineSet
EndChar

StartChar: ibeam
Encoding: 57458 57458 115
Width: 512
Flags: W
LayerCount: 2
Fore
SplineSet
281 367 m 20,0,1
 281 390 281 390 301 410.5 c 128,-1,2
 321 431 321 431 346 431 c 9,3,4
 346 431 346 431 346 480 c 1,5,-1
 297 480 l 0,6,7
 259 436 259 436 227 464 c 2,8,9
 218 472 218 472 209 480 c 0,10,11
 209 480 209 480 160 480 c 9,12,-1
 160 431 l 0,13,14
 185 431 185 431 205 411 c 128,-1,15
 225 391 225 391 225 368 c 0,16,17
 225 368 225 368 225 113 c 0,18,19
 225 90 225 90 205 69.5 c 128,-1,20
 185 49 185 49 160 49 c 9,21,22
 160 49 160 49 160 0 c 1,23,-1
 209 0 l 0,24,25
 247 44 247 44 279 16 c 2,26,27
 288 8 288 8 297 0 c 0,28,29
 297 0 297 0 346 0 c 9,30,-1
 346 49 l 0,31,32
 321 49 321 49 301 69 c 128,-1,33
 281 89 281 89 281 112 c 0,34,35
 281 370 281 370 281 365 c 25,36,-1
 281 367 l 20,0,1
EndSplineSet
EndChar

StartChar: cancel
Encoding: 57459 57459 116
Width: 512
Flags: W
LayerCount: 2
Fore
SplineSet
383.287109375 178.129882812 m 0,0,1
 383.287109375 185.6171875 383.287109375 185.6171875 377.297851562 193.10546875 c 2,2,3
 377.297851562 193.10546875 377.297851562 193.10546875 314.40234375 256 c 1,4,-1
 377.297851562 318.89453125 l 2,5,6
 383.287109375 324.884765625 383.287109375 324.884765625 383.287109375 333.12109375 c 0,7,8
 383.287109375 340.608398438 383.287109375 340.608398438 377.297851562 348.096679688 c 2,9,10
 377.297851562 348.096679688 377.297851562 348.096679688 348.096679688 376.548828125 c 2,11,12
 342.85546875 382.5390625 342.85546875 382.5390625 333.12109375 382.5390625 c 0,13,14
 324.13671875 382.5390625 324.13671875 382.5390625 318.89453125 376.548828125 c 2,15,16
 318.89453125 376.548828125 318.89453125 376.548828125 256 313.653320312 c 1,17,-1
 193.10546875 376.548828125 l 2,18,19
 187.86328125 382.5390625 187.86328125 382.5390625 178.87890625 382.5390625 c 0,20,21
 169.14453125 382.5390625 169.14453125 382.5390625 163.903320312 376.548828125 c 2,22,23
 163.903320312 376.548828125 163.903320312 376.548828125 134.702148438 348.096679688 c 2,24,25
 128.712890625 340.608398438 128.712890625 340.608398438 128.712890625 333.12109375 c 0,26,27
 128.712890625 324.884765625 128.712890625 324.884765625 134.702148438 318.89453125 c 2,28,29
 134.702148438 318.89453125 134.702148438 318.89453125 197.59765625 256 c 1,30,-1
 134.702148438 193.10546875 l 2,31,32
 128.712890625 185.6171875 128.712890625 185.6171875 128.712890625 178.129882812 c 0,33,34
 128.712890625 169.893554688 128.712890625 169.893554688 134.702148438 163.903320312 c 2,35,36
 134.702148438 163.903320312 134.702148438 163.903320312 163.903320312 134.702148438 c 2,37,38
 169.893554688 128.712890625 169.893554688 128.712890625 178.87890625 128.712890625 c 0,39,40
 187.115234375 128.712890625 187.115234375 128.712890625 193.10546875 134.702148438 c 2,41,42
 193.10546875 134.702148438 193.10546875 134.702148438 256 197.59765625 c 1,43,-1
 318.89453125 134.702148438 l 2,44,45
 324.884765625 128.712890625 324.884765625 128.712890625 333.12109375 128.712890625 c 0,46,47
 342.106445312 128.712890625 342.106445312 128.712890625 348.096679688 134.702148438 c 2,48,49
 348.096679688 134.702148438 348.096679688 134.702148438 377.297851562 163.903320312 c 2,50,51
 383.287109375 169.893554688 383.287109375 169.893554688 383.287109375 178.129882812 c 0,0,1
475 256 m 128,-1,53
 475 194 475 194 446 146 c 0,54,55
 416 96 416 96 366 66 c 0,56,57
 318 37 318 37 256 37 c 128,-1,58
 194 37 194 37 146 66 c 0,59,60
 96 96 96 96 66 146 c 0,61,62
 37 194 37 194 37 256 c 128,-1,63
 37 318 37 318 66 366 c 0,64,65
 96 416 96 416 146 446 c 0,66,67
 194 475 194 475 256 475 c 128,-1,68
 318 475 318 475 366 446 c 0,69,70
 416 416 416 416 446 366 c 0,71,52
 475 318 475 318 475 256 c 128,-1,53
EndSplineSet
EndChar

